<svg width="312" height="48" viewBox="0 0 312 48" fill="none" xmlns="http://www.w3.org/2000/svg">
<rect width="312" height="48" rx="8" fill="#C7C7C7"/>
<path d="M140.029 24.6387H125.536V23.0303H140.029V24.6387ZM138.359 21.791H127.32V20.2178H138.359V21.791ZM138.263 17.7656H129.245V21.0088H127.32V16.1748H138.263V17.7656ZM132.752 25.7373C133.895 25.7373 134.879 25.8486 135.705 26.0713C136.531 26.2939 137.161 26.6221 137.595 27.0557C138.034 27.4893 138.254 28.0137 138.254 28.6289C138.254 29.2441 138.034 29.7686 137.595 30.2021C137.161 30.6416 136.531 30.9727 135.705 31.1953C134.885 31.4238 133.9 31.5381 132.752 31.5381C131.604 31.5381 130.613 31.4238 129.781 31.1953C128.955 30.9727 128.319 30.6416 127.874 30.2021C127.435 29.7686 127.215 29.2441 127.215 28.6289C127.215 28.0137 127.435 27.4893 127.874 27.0557C128.319 26.6221 128.955 26.2939 129.781 26.0713C130.607 25.8486 131.598 25.7373 132.752 25.7373ZM132.752 27.2314C131.984 27.2314 131.337 27.2871 130.81 27.3984C130.282 27.5039 129.884 27.6621 129.614 27.873C129.345 28.0781 129.21 28.3301 129.21 28.6289C129.21 28.9395 129.345 29.2002 129.614 29.4111C129.884 29.6162 130.279 29.7744 130.801 29.8857C131.328 29.9912 131.979 30.0439 132.752 30.0439C133.52 30.0439 134.167 29.9912 134.694 29.8857C135.222 29.7744 135.62 29.6162 135.89 29.4111C136.159 29.2002 136.294 28.9395 136.294 28.6289C136.294 28.3301 136.159 28.0781 135.89 27.873C135.62 27.6621 135.219 27.5039 134.686 27.3984C134.158 27.2871 133.514 27.2314 132.752 27.2314ZM155.415 25.8428H140.895V24.2695H155.415V25.8428ZM153.622 20.165H144.674V22.0371H142.732V18.7412H151.653V17.5547H142.688V16.0166H153.622V20.165ZM153.929 22.9512H142.732V21.4307H153.929V22.9512ZM149.113 25.1133H147.179V22.1602H149.113V25.1133ZM153.71 31.459H151.732V28.4004H142.512V26.8447H153.71V31.459ZM168.726 31.5469H166.792V15.6738H168.726V31.5469ZM171.178 23.6191H168.286V22.0107H171.178V23.6191ZM165.562 19.6816H156.202V18.1084H165.562V19.6816ZM160.93 20.71C161.698 20.71 162.383 20.8711 162.987 21.1934C163.596 21.5098 164.074 21.9521 164.419 22.5205C164.765 23.0889 164.938 23.7334 164.938 24.4541C164.938 25.1689 164.765 25.8135 164.419 26.3877C164.074 26.9561 163.596 27.3984 162.987 27.7148C162.383 28.0312 161.698 28.1895 160.93 28.1895C160.168 28.1895 159.483 28.0312 158.873 27.7148C158.264 27.3984 157.786 26.9561 157.441 26.3877C157.101 25.8135 156.931 25.1689 156.931 24.4541C156.931 23.7334 157.101 23.0889 157.441 22.5205C157.786 21.9521 158.264 21.5098 158.873 21.1934C159.483 20.8711 160.168 20.71 160.93 20.71ZM160.93 22.3184C160.526 22.3184 160.16 22.4062 159.831 22.582C159.509 22.7578 159.254 23.0068 159.067 23.3291C158.885 23.6514 158.794 24.0264 158.794 24.4541C158.794 24.876 158.885 25.248 159.067 25.5703C159.254 25.8926 159.509 26.1416 159.831 26.3174C160.16 26.4873 160.526 26.5723 160.93 26.5723C161.346 26.5723 161.715 26.4873 162.037 26.3174C162.36 26.1416 162.612 25.8926 162.793 25.5703C162.975 25.248 163.066 24.876 163.066 24.4541C163.066 24.0264 162.975 23.6514 162.793 23.3291C162.612 23.0068 162.36 22.7578 162.037 22.582C161.715 22.4062 161.346 22.3184 160.93 22.3184ZM161.897 18.7412H159.954V15.9023H161.897V18.7412ZM184.929 31.5469H182.951V15.6738H184.929V31.5469ZM180.191 17.3613C180.191 19.0195 179.951 20.54 179.471 21.9229C178.996 23.2998 178.214 24.5684 177.124 25.7285C176.034 26.8828 174.59 27.8877 172.791 28.7432L171.754 27.1787C173.283 26.4521 174.525 25.626 175.481 24.7002C176.436 23.7744 177.136 22.7344 177.581 21.5801C178.026 20.4258 178.249 19.1309 178.249 17.6953V17.3613H180.191ZM179.128 18.9082H172.563V17.3613H179.128V18.9082Z" fill="#F2F2F2"/>
</svg>
