<svg width="52" height="32" viewBox="0 0 52 32" fill="none" xmlns="http://www.w3.org/2000/svg">
<path d="M33.2223 6.31243H34.4082C35.7218 6.31243 36.3786 5.74078 36.3786 4.59749C36.3786 3.4542 35.7218 2.88255 34.4082 2.88255H33.2223V6.31243ZM33.2223 11.9681C33.2223 12.9555 32.4219 13.756 31.4344 13.756C30.447 13.756 29.6465 12.9555 29.6465 11.9681V2.2805C29.6465 1.02101 30.6675 0 31.927 0H35.3387C36.8833 0 38.0631 0.401368 38.878 1.2041C39.7051 2.00684 40.1186 3.13797 40.1186 4.59749C40.1186 6.05701 39.7051 7.18814 38.878 7.99088C38.0631 8.79362 36.8833 9.19498 35.3387 9.19498H33.2223V11.9681Z" fill="black"/>
<path d="M44.6249 24.5564H45.8107C47.1243 24.5564 47.7811 23.9848 47.7811 22.8415C47.7811 21.6982 47.1243 21.1266 45.8107 21.1266H44.6249V24.5564ZM44.6249 30.2121C44.6249 31.1995 43.8244 32 42.8369 32C41.8495 32 41.049 31.1995 41.049 30.2121V20.5245C41.049 19.265 42.07 18.244 43.3295 18.244H46.7412C48.2858 18.244 49.4656 18.6454 50.2805 19.4481C51.1076 20.2509 51.5211 21.382 51.5211 22.8415C51.5211 24.301 51.1076 25.4322 50.2805 26.2349C49.4656 27.0376 48.2858 27.439 46.7412 27.439H44.6249V30.2121Z" fill="black"/>
<path d="M14.6161 6.14823H15.2911C15.9965 6.14823 16.5378 6.00228 16.9148 5.71038C17.2919 5.41847 17.4804 4.99886 17.4804 4.45154C17.4804 3.90422 17.2919 3.48461 16.9148 3.1927C16.5378 2.9008 15.9965 2.75485 15.2911 2.75485C14.9183 2.75485 14.6161 3.05707 14.6161 3.42987V6.14823ZM22.4792 13.756H18.0277L14.6161 8.46522V13.756H11.0402V1.52033C11.0402 0.680676 11.7209 0 12.5606 0H16.6047C17.3709 0 18.0399 0.115545 18.6115 0.346636C19.1832 0.565564 19.6514 0.869631 20.0163 1.25884C20.3933 1.64804 20.6731 2.09806 20.8555 2.60889C21.0501 3.11973 21.1474 3.66705 21.1474 4.25085C21.1474 5.29684 20.892 6.14823 20.3812 6.80502C19.8825 7.44964 19.1406 7.8875 18.1554 8.11859L22.4792 13.756Z" fill="black"/>
<path d="M26.0186 24.3922H26.6936C27.399 24.3922 27.9403 24.2463 28.3173 23.9544C28.6944 23.6625 28.8829 23.2429 28.8829 22.6956C28.8829 22.1482 28.6944 21.7286 28.3173 21.4367C27.9403 21.1448 27.399 20.9989 26.6936 20.9989C26.3208 20.9989 26.0186 21.3011 26.0186 21.6739V24.3922ZM33.8817 32H29.4302L26.0186 26.7092V32H22.4428V19.7643C22.4428 18.9247 23.1234 18.244 23.9631 18.244H28.0072C28.7734 18.244 29.4424 18.3596 30.014 18.5906C30.5857 18.8096 31.0539 19.1136 31.4188 19.5028C31.7958 19.8921 32.0756 20.3421 32.258 20.8529C32.4526 21.3637 32.5499 21.9111 32.5499 22.4949C32.5499 23.5409 32.2945 24.3922 31.7837 25.049C31.285 25.6937 30.5431 26.1315 29.5579 26.3626L33.8817 32Z" fill="black"/>
<path d="M6.51311 3.25352V11.9681C6.51311 12.9555 5.71264 13.756 4.7252 13.756C3.73776 13.756 2.93729 12.9555 2.93729 11.9681V3.25352H1.62676C0.728325 3.25352 0 2.52519 0 1.62676C0 0.728325 0.728324 0 1.62676 0H7.82364C8.72208 0 9.4504 0.728325 9.4504 1.62676C9.4504 2.52519 8.72207 3.25352 7.82364 3.25352H6.51311Z" fill="black"/>
<path d="M26.2258 4.561C27.2753 4.561 28.1262 5.41185 28.1262 6.46142V11.7826C28.1262 12.8322 27.2753 13.683 26.2258 13.683C25.1762 13.683 24.3254 12.8322 24.3254 11.7826V6.46142C24.3254 5.41185 25.1762 4.561 26.2258 4.561Z" fill="#F66A6A"/>
<path d="M28.1262 1.90042C28.1262 2.94999 27.2753 3.80084 26.2258 3.80084C25.1762 3.80084 24.3254 2.94999 24.3254 1.90042C24.3254 0.850846 25.1762 0 26.2258 0C27.2753 0 28.1262 0.850846 28.1262 1.90042Z" fill="#F66A6A"/>
<path d="M17.9156 21.4975V30.2121C17.9156 31.1995 17.1151 32 16.1277 32C15.1403 32 14.3398 31.1995 14.3398 30.2121V21.4975H13.0293C12.1308 21.4975 11.4025 20.7692 11.4025 19.8708C11.4025 18.9723 12.1308 18.244 13.0293 18.244H19.2262C20.1246 18.244 20.8529 18.9723 20.8529 19.8708C20.8529 20.7692 20.1246 21.4975 19.2262 21.4975H17.9156Z" fill="black"/>
<path d="M37.6283 22.805C38.6778 22.805 39.5287 23.6559 39.5287 24.7054V30.0266C39.5287 31.0762 38.6778 31.927 37.6283 31.927C36.5787 31.927 35.7279 31.0762 35.7279 30.0266V24.7054C35.7279 23.6559 36.5787 22.805 37.6283 22.805Z" fill="#F66A6A"/>
<path d="M39.5287 20.1444C39.5287 21.194 38.6778 22.0448 37.6283 22.0448C36.5787 22.0448 35.7279 21.194 35.7279 20.1444C35.7279 19.0949 36.5787 18.244 37.6283 18.244C38.6778 18.244 39.5287 19.0949 39.5287 20.1444Z" fill="#F66A6A"/>
</svg>
