<svg width="12" height="9" viewBox="0 0 12 9" fill="none" xmlns="http://www.w3.org/2000/svg">
<path d="M4.10373 6.8098L10.6807 0.232814C10.8359 0.0776046 11.017 0 11.224 0C11.4309 0 11.612 0.0776046 11.7672 0.232814C11.9224 0.388023 12 0.572334 12 0.785747C12 0.999159 11.9224 1.18347 11.7672 1.33868L4.64696 8.4783C4.49175 8.63351 4.31068 8.71112 4.10373 8.71112C3.89679 8.71112 3.71571 8.63351 3.5605 8.4783L0.223501 5.1413C0.0682921 4.9861 -0.00607903 4.80178 0.000388023 4.58837C0.00685507 4.37496 0.0876932 4.19065 0.242902 4.03544C0.398112 3.88023 0.582423 3.80263 0.795835 3.80263C1.00925 3.80263 1.19356 3.88023 1.34877 4.03544L4.10373 6.8098Z" fill="#299C00"/>
</svg>
