<svg width="24" height="24" viewBox="0 0 24 24" fill="none" xmlns="http://www.w3.org/2000/svg">
<path d="M4.76925 20.577C4.34742 20.577 3.98875 20.4293 3.69325 20.1338C3.39775 19.8381 3.25 19.4794 3.25 19.0578V8.59603C3.25 8.17436 3.39775 7.81578 3.69325 7.52028C3.98875 7.22478 4.34742 7.07703 4.76925 7.07703H7.25V4.59603C7.25 4.17436 7.39775 3.81578 7.69325 3.52028C7.98875 3.22478 8.34742 3.07703 8.76925 3.07703H15.2308C15.6526 3.07703 16.0113 3.22478 16.3068 3.52028C16.6023 3.81578 16.75 4.17436 16.75 4.59603V11.077H19.2308C19.6526 11.077 20.0113 11.2248 20.3068 11.5203C20.6023 11.8158 20.75 12.1744 20.75 12.596V19.0578C20.75 19.4794 20.6023 19.8381 20.3068 20.1338C20.0113 20.4293 19.6526 20.577 19.2308 20.577H13.25V16.577H10.75V20.577H4.76925ZM4.75 19.077H7.25V16.577H4.75V19.077ZM4.75 15.077H7.25V12.577H4.75V15.077ZM4.75 11.077H7.25V8.57703H4.75V11.077ZM8.75 15.077H11.25V12.577H8.75V15.077ZM8.75 11.077H11.25V8.57703H8.75V11.077ZM8.75 7.07703H11.25V4.57703H8.75V7.07703ZM12.75 15.077H15.25V12.577H12.75V15.077ZM12.75 11.077H15.25V8.57703H12.75V11.077ZM12.75 7.07703H15.25V4.57703H12.75V7.07703ZM16.75 19.077H19.25V16.577H16.75V19.077ZM16.75 15.077H19.25V12.577H16.75V15.077Z" fill="#333333"/>
</svg>
