<svg width="24" height="24" viewBox="0 0 24 24" fill="none" xmlns="http://www.w3.org/2000/svg">
<path d="M12 21.5C9.90767 21.5 8.13458 20.7731 6.68075 19.3193C5.22692 17.8654 4.5 16.0924 4.5 14C4.5 12.309 4.98783 10.6658 5.9635 9.07028C6.93917 7.47478 8.277 6.07187 9.977 4.86153C10.2987 4.62437 10.6362 4.6007 10.9895 4.79053C11.3427 4.9802 11.5192 5.2712 11.5192 5.66353V6.51153C11.5192 7.12303 11.7679 7.65737 12.2652 8.11453C12.7627 8.57153 13.3493 8.80003 14.025 8.80003C14.3212 8.80003 14.608 8.74237 14.8855 8.62703C15.1632 8.5117 15.418 8.34695 15.65 8.13278C15.7833 7.99812 15.9413 7.91962 16.124 7.89728C16.3067 7.87478 16.4768 7.92378 16.6345 8.04428C17.5307 8.74945 18.2323 9.62603 18.7395 10.674C19.2465 11.7222 19.5 12.8309 19.5 14C19.5 16.0924 18.7731 17.8654 17.3193 19.3193C15.8654 20.7731 14.0923 21.5 12 21.5ZM6 14C6 15.0077 6.24075 15.9455 6.72225 16.8135C7.20358 17.6815 7.86542 18.3815 8.70775 18.9135C8.63342 18.7725 8.58017 18.6318 8.548 18.4913C8.516 18.3509 8.5 18.2039 8.5 18.05C8.5 17.5872 8.58883 17.1513 8.7665 16.7423C8.944 16.3333 9.19875 15.9628 9.53075 15.6308L12 13.202L14.4788 15.6308C14.8109 15.9628 15.0642 16.3333 15.2385 16.7423C15.4128 17.1513 15.5 17.5872 15.5 18.05C15.5 18.2039 15.484 18.3509 15.452 18.4913C15.4198 18.6318 15.3666 18.7725 15.2923 18.9135C16.1346 18.3815 16.7964 17.6815 17.2778 16.8135C17.7592 15.9455 18 15.0077 18 14C18 13.1667 17.8458 12.3792 17.5375 11.6375C17.2292 10.8959 16.7833 10.2334 16.2 9.65003C15.8667 9.8667 15.5167 10.0292 15.15 10.1375C14.7833 10.2459 14.4083 10.3 14.025 10.3C12.9853 10.3 12.0863 9.95837 11.328 9.27503C10.5697 8.5917 10.1353 7.74362 10.025 6.73078C8.725 7.82445 7.72917 8.99687 7.0375 10.248C6.34583 11.4994 6 12.75 6 14ZM12 15.3L10.575 16.7C10.3917 16.8834 10.25 17.0917 10.15 17.325C10.05 17.5584 10 17.8 10 18.05C10 18.5834 10.1958 19.0417 10.5875 19.425C10.9792 19.8084 11.45 20 12 20C12.55 20 13.0208 19.8084 13.4125 19.425C13.8042 19.0417 14 18.5834 14 18.05C14 17.7834 13.95 17.5375 13.85 17.3125C13.75 17.0875 13.6083 16.8834 13.425 16.7L12 15.3Z" fill="#333333"/>
</svg>
