<svg width="24" height="24" viewBox="0 0 24 24" fill="none" xmlns="http://www.w3.org/2000/svg">
<path d="M4.18227 22.1999C4.017 22.1999 3.8786 22.144 3.76708 22.0322C3.65543 21.9206 3.59961 21.7822 3.59961 21.617V11.9028C3.59961 11.7376 3.6555 11.5992 3.76728 11.4876C3.87906 11.3758 4.01752 11.3199 4.18266 11.3199C4.34793 11.3199 4.48633 11.3758 4.59785 11.4876C4.7095 11.5992 4.76532 11.7376 4.76532 11.9028V18.7028H11.1768V14.0399C11.1768 13.7221 11.2916 13.4483 11.5212 13.2187C11.7509 12.989 12.0246 12.8742 12.3425 12.8742H17.1996C17.9476 12.8742 18.5879 13.1406 19.1205 13.6733C19.6532 14.2059 19.9196 14.8462 19.9196 15.5942V21.617C19.9196 21.7822 19.8637 21.9206 19.7519 22.0322C19.6402 22.144 19.5017 22.1999 19.3366 22.1999C19.1713 22.1999 19.0329 22.144 18.9214 22.0322C18.8097 21.9206 18.7539 21.7822 18.7539 21.617V19.8685H4.76532V21.617C4.76532 21.7822 4.70943 21.9206 4.59766 22.0322C4.48588 22.144 4.34742 22.1999 4.18227 22.1999ZM7.87292 17.5819C7.32063 17.5819 6.85143 17.3885 6.46532 17.0018C6.07921 16.6152 5.88616 16.1456 5.88616 15.5932C5.88616 15.0409 6.07954 14.5717 6.4663 14.1856C6.85292 13.7995 7.32245 13.6065 7.87487 13.6065C8.42716 13.6065 8.89636 13.7998 9.28247 14.1866C9.66858 14.5732 9.86163 15.0427 9.86163 15.5952C9.86163 16.1475 9.66825 16.6167 9.2815 17.0028C8.89487 17.3889 8.42534 17.5819 7.87292 17.5819ZM12.3425 18.7028H18.7539V15.5942C18.7539 15.1668 18.6017 14.8009 18.2973 14.4965C17.9929 14.1921 17.627 14.0399 17.1996 14.0399H12.3425V18.7028ZM7.8739 16.4162C8.10406 16.4162 8.2986 16.3368 8.45753 16.1778C8.61646 16.0189 8.69592 15.8244 8.69592 15.5942C8.69592 15.364 8.61646 15.1695 8.45753 15.0106C8.2986 14.8516 8.10406 14.7722 7.8739 14.7722C7.64373 14.7722 7.44919 14.8516 7.29026 15.0106C7.13134 15.1695 7.05187 15.364 7.05187 15.5942C7.05187 15.8244 7.13134 16.0189 7.29026 16.1778C7.44919 16.3368 7.64373 16.4162 7.8739 16.4162Z" fill="#333333"/>
<path d="M13.6718 6.29054L15.3381 4.85862L15.5214 4.87271C15.6221 4.8847 15.7006 4.92659 15.7569 4.99838C15.8131 5.07016 15.8412 5.14795 15.8412 5.23172C15.8412 5.27961 15.8323 5.32661 15.8144 5.37274C15.7965 5.41894 15.7638 5.45934 15.7161 5.49394L14.4895 6.56283L14.8579 8.16658C14.8625 8.17842 14.8649 8.19178 14.8649 8.20667V8.24677C14.8649 8.3478 14.8301 8.43192 14.7605 8.49913C14.6909 8.56641 14.6082 8.60005 14.5125 8.60005C14.4826 8.60005 14.4511 8.59654 14.4182 8.58951C14.3853 8.58248 14.3542 8.56897 14.3248 8.54896L14.1768 8.45732L13.6718 6.29054ZM12.6964 3.26725L12.2329 2.17979L12.2964 2.0248C12.3255 1.95286 12.3706 1.89742 12.4319 1.85847C12.493 1.81952 12.5566 1.80005 12.6226 1.80005C12.6886 1.80005 12.753 1.81857 12.816 1.85561C12.879 1.89257 12.9252 1.9466 12.9546 2.0177L13.5141 3.34388L12.6964 3.26725ZM9.66072 7.44398L11.1041 6.57337L12.5475 7.45543L12.1694 5.80586L13.441 4.70615L11.7685 4.55723L11.1041 2.99931L10.4397 4.54578L8.7672 4.6947L10.0387 5.80586L9.66072 7.44398ZM8.83685 7.92865L9.27478 6.05433L7.81996 4.79344C7.76764 4.75052 7.73122 4.70195 7.71067 4.64773C7.69013 4.59351 7.67986 4.53925 7.67986 4.48495C7.67986 4.38781 7.71319 4.29758 7.77986 4.21426C7.84653 4.13102 7.9389 4.08321 8.05697 4.07084L9.97745 3.90222L10.7199 2.13672C10.7544 2.05386 10.8079 1.99173 10.8804 1.95034C10.9528 1.90887 11.027 1.88814 11.1029 1.88814C11.1789 1.88814 11.2534 1.90887 11.3264 1.95034C11.3995 1.99173 11.4535 2.05386 11.4883 2.13672L12.2307 3.90222L14.1512 4.07084C14.2693 4.08321 14.3616 4.13098 14.4283 4.21415C14.495 4.29739 14.5283 4.38754 14.5283 4.48461C14.5283 4.54005 14.518 4.59465 14.4975 4.64842C14.477 4.70218 14.4405 4.75052 14.3882 4.79344L12.9334 6.05433L13.3728 7.92877C13.3795 7.94862 13.3828 7.97936 13.3828 8.02098C13.3828 8.1389 13.3415 8.23772 13.2588 8.31745C13.1762 8.39717 13.0798 8.43704 12.9697 8.43704C12.949 8.43704 12.8758 8.41558 12.7501 8.37266L11.1041 7.38143L9.45807 8.37266C9.42279 8.39267 9.38617 8.4084 9.34821 8.41986C9.31026 8.43131 9.27402 8.43704 9.2395 8.43704C9.11525 8.43704 9.00826 8.38683 8.91852 8.2864C8.82879 8.1859 8.80156 8.06665 8.83685 7.92865Z" fill="#333333"/>
</svg>
