<svg width="24" height="24" viewBox="0 0 24 24" fill="none" xmlns="http://www.w3.org/2000/svg">
<path d="M6.98375 8.19225C6.50875 8.19225 6.10425 8.02375 5.77025 7.68675C5.43625 7.34975 5.26925 6.94467 5.26925 6.4715C5.26925 5.99817 5.43625 5.59292 5.77025 5.25575C6.10425 4.91858 6.50875 4.75 6.98375 4.75C7.45892 4.75 7.86567 4.9185 8.204 5.2555C8.54233 5.5925 8.7115 5.99767 8.7115 6.471C8.7115 6.94417 8.54233 7.34933 8.204 7.6865C7.86567 8.02367 7.45892 8.19225 6.98375 8.19225ZM4.30775 21.5C3.81058 21.5 3.385 21.323 3.031 20.969C2.677 20.615 2.5 20.1894 2.5 19.6923V13.2115C2.5 12.9555 2.58667 12.7408 2.76 12.5675C2.93317 12.3943 3.14783 12.3077 3.404 12.3077H5.404V11.1345C5.404 10.6167 5.58083 10.1828 5.9345 9.83275C6.28817 9.48275 6.7235 9.30775 7.2405 9.30775C7.5225 9.30775 7.78592 9.36317 8.03075 9.474C8.27558 9.585 8.49542 9.74108 8.69025 9.94225L10.052 11.4538C10.1942 11.6256 10.3494 11.7811 10.5177 11.9202C10.6859 12.0592 10.8646 12.1884 11.0538 12.3077H20.596C20.8522 12.3077 21.0668 12.3943 21.24 12.5675C21.4133 12.7408 21.5 12.9555 21.5 13.2115V19.6923C21.5 20.1894 21.323 20.615 20.969 20.969C20.615 21.323 20.1894 21.5 19.6923 21.5H4.30775ZM19.0445 10.1155C18.8418 10.1155 18.6738 10.0447 18.5405 9.903C18.4072 9.76133 18.3456 9.58917 18.3558 9.3865C18.3789 8.99417 18.3148 8.61792 18.1635 8.25775C18.0122 7.89742 17.7987 7.57942 17.523 7.30375C17.109 6.88975 16.7978 6.41733 16.5895 5.8865C16.3812 5.35583 16.2782 4.80842 16.2807 4.24425C16.2807 4.04075 16.3473 3.86583 16.4805 3.7195C16.6135 3.57317 16.7814 3.5 16.9843 3.5C17.1871 3.5 17.3577 3.575 17.4962 3.725C17.6346 3.875 17.6987 4.05125 17.6885 4.25375C17.6653 4.62558 17.7211 4.99008 17.8558 5.34725C17.9904 5.70425 18.1936 6.009 18.4653 6.2615C18.8794 6.67567 19.1974 7.14975 19.4193 7.68375C19.6411 8.21775 19.7507 8.77508 19.748 9.35575C19.748 9.57092 19.6815 9.75133 19.5485 9.897C19.4153 10.0427 19.2473 10.1155 19.0445 10.1155ZM15.035 10.1155C14.8322 10.1155 14.6641 10.0447 14.5307 9.903C14.3974 9.76133 14.3359 9.58917 14.3462 9.3865C14.3692 8.98783 14.3051 8.61 14.1538 8.253C14.0026 7.89583 13.7859 7.57942 13.5038 7.30375C13.0898 6.88975 12.7802 6.41733 12.575 5.8865C12.3698 5.35583 12.2686 4.80842 12.2713 4.24425C12.2713 4.04075 12.3377 3.86583 12.4707 3.7195C12.6039 3.57317 12.7719 3.5 12.9747 3.5C13.1774 3.5 13.3454 3.57083 13.4788 3.7125C13.6121 3.85417 13.6737 4.02625 13.6635 4.22875C13.6403 4.61092 13.6977 4.97792 13.8355 5.32975C13.9733 5.68175 14.1769 5.99233 14.4462 6.2615C14.8667 6.67567 15.1878 7.14975 15.4095 7.68375C15.6313 8.21775 15.741 8.77508 15.7385 9.35575C15.7385 9.57092 15.6719 9.75133 15.5387 9.897C15.4058 10.0427 15.2378 10.1155 15.035 10.1155ZM16.6827 20H19.1155V13.8077H16.6827V20ZM12.75 20H15.1827V13.8077H12.75V20ZM8.81725 20H11.25V13.8077H8.81725V20ZM4.8845 20H7.31725V13.8077H4.8845V20Z" fill="#333333"/>
</svg>
