<svg width="16" height="16" viewBox="0 0 16 16" fill="none" xmlns="http://www.w3.org/2000/svg">
<g id="icon/outline/close">
<path id="Vector" d="M8.00001 8.70251L4.61801 12.0847C4.52567 12.1769 4.40962 12.2241 4.26984 12.2263C4.13017 12.2285 4.01201 12.1812 3.91534 12.0847C3.81879 11.988 3.77051 11.8709 3.77051 11.7333C3.77051 11.5958 3.81879 11.4787 3.91534 11.382L7.29751 8.00001L3.91534 4.61801C3.82312 4.52568 3.7759 4.40962 3.77367 4.26984C3.77156 4.13017 3.81879 4.01201 3.91534 3.91534C4.01201 3.81879 4.12912 3.77051 4.26667 3.77051C4.40423 3.77051 4.52134 3.81879 4.61801 3.91534L8.00001 7.29751L11.382 3.91534C11.4743 3.82312 11.5904 3.7759 11.7302 3.77367C11.8698 3.77156 11.988 3.81879 12.0847 3.91534C12.1812 4.01201 12.2295 4.12912 12.2295 4.26667C12.2295 4.40423 12.1812 4.52134 12.0847 4.61801L8.70251 8.00001L12.0847 11.382C12.1769 11.4743 12.2241 11.5904 12.2263 11.7302C12.2285 11.8698 12.1812 11.988 12.0847 12.0847C11.988 12.1812 11.8709 12.2295 11.7333 12.2295C11.5958 12.2295 11.4787 12.1812 11.382 12.0847L8.00001 8.70251Z" fill="white"/>
</g>
</svg>
