<svg width="24" height="24" viewBox="0 0 24 24" fill="none" xmlns="http://www.w3.org/2000/svg">
<g id="icon/outline/left_arrow">
<path id="Vector" d="M9.09807 12L16.6308 4.46725C16.8295 4.26858 16.9262 4.03208 16.9211 3.75775C16.9159 3.48342 16.814 3.24683 16.6153 3.048C16.4167 2.84933 16.1802 2.75 15.9058 2.75C15.6315 2.75 15.3949 2.84933 15.1961 3.048L7.54032 10.7193C7.35965 10.9001 7.22574 11.1027 7.13857 11.327C7.05124 11.5513 7.00757 11.7757 7.00757 12C7.00757 12.2243 7.05124 12.4487 7.13857 12.673C7.22574 12.8973 7.35965 13.0999 7.54032 13.2808L15.2116 20.952C15.4102 21.1507 15.6442 21.2474 15.9133 21.2423C16.1827 21.2371 16.4167 21.1352 16.6153 20.9365C16.814 20.7378 16.9133 20.5013 16.9133 20.227C16.9133 19.9527 16.814 19.7161 16.6153 19.5173L9.09807 12Z" fill="#333333"/>
</g>
</svg>
