<svg width="24" height="24" viewBox="0 0 24 24" fill="none" xmlns="http://www.w3.org/2000/svg">
<g id="right_icon">
<path id="Vector" d="M14.8308 12L7.29802 4.46725C7.09935 4.26858 7.0026 4.03208 7.00776 3.75775C7.01293 3.48342 7.11485 3.24683 7.31352 3.048C7.51218 2.84933 7.74868 2.75 8.02302 2.75C8.29735 2.75 8.53393 2.84933 8.73276 3.048L16.3885 10.7193C16.5692 10.9001 16.7031 11.1027 16.7903 11.327C16.8776 11.5513 16.9213 11.7757 16.9213 12C16.9213 12.2243 16.8776 12.4487 16.7903 12.673C16.7031 12.8973 16.5692 13.0999 16.3885 13.2808L8.71727 20.952C8.5186 21.1507 8.28468 21.2474 8.01551 21.2423C7.74618 21.2371 7.51218 21.1352 7.31352 20.9365C7.11485 20.7378 7.01551 20.5013 7.01551 20.227C7.01551 19.9527 7.11485 19.7161 7.31352 19.5173L14.8308 12Z" fill="black"/>
</g>
</svg>
