<svg width="1920" height="160" viewBox="0 0 1920 160" fill="none" xmlns="http://www.w3.org/2000/svg">
<rect width="1920" height="160" fill="#F2F2F2"/>
<path d="M386.107 33.0137H377.436V24.4395H386.107V33.0137ZM379.877 31.0508H383.646V26.4316H379.877V31.0508ZM391.4 35.6895H388.91V23.043H391.4V35.6895ZM391.889 40.4062H379.496V38.4043H391.889V40.4062ZM382.016 39.3125H379.496V34.5078H382.016V39.3125ZM399.98 27.8574C399.98 29.2572 399.781 30.5918 399.384 31.8613C398.993 33.1243 398.417 34.2474 397.655 35.2305C396.894 36.2135 395.976 36.9557 394.902 37.457L393.476 35.4941C394.433 35.0579 395.247 34.4362 395.917 33.6289C396.594 32.8216 397.102 31.9199 397.441 30.9238C397.786 29.9212 397.958 28.8991 397.958 27.8574V25.7871H399.98V27.8574ZM400.497 27.8574C400.497 28.847 400.667 29.8138 401.005 30.7578C401.344 31.7018 401.848 32.5547 402.519 33.3164C403.189 34.0716 404.003 34.6478 404.96 35.0449L403.612 36.998C402.512 36.5228 401.581 35.8229 400.82 34.8984C400.058 33.974 399.485 32.9095 399.101 31.7051C398.723 30.4941 398.534 29.2116 398.534 27.8574V25.7871H400.497V27.8574ZM404.228 26.7734H394.189V24.7422H404.228V26.7734ZM408.495 40.7969H405.966V23.0039H408.495V40.7969ZM416.459 24.2051C417.39 24.2051 418.23 24.3939 418.979 24.7715C419.728 25.1426 420.314 25.6602 420.737 26.3242C421.166 26.9818 421.381 27.7305 421.381 28.5703C421.381 29.4102 421.166 30.1621 420.737 30.8262C420.314 31.4837 419.728 32.0013 418.979 32.3789C418.237 32.75 417.397 32.9355 416.459 32.9355C415.535 32.9355 414.695 32.75 413.94 32.3789C413.185 32.0013 412.592 31.4837 412.162 30.8262C411.733 30.1621 411.518 29.4102 411.518 28.5703C411.518 27.7305 411.733 26.9818 412.162 26.3242C412.592 25.6602 413.185 25.1426 413.94 24.7715C414.695 24.3939 415.535 24.2051 416.459 24.2051ZM416.459 26.3535C415.984 26.3535 415.561 26.4414 415.19 26.6172C414.819 26.793 414.526 27.0501 414.311 27.3887C414.096 27.7207 413.989 28.1146 413.989 28.5703C413.989 29.0326 414.096 29.4297 414.311 29.7617C414.526 30.0872 414.819 30.3411 415.19 30.5234C415.561 30.6992 415.984 30.7871 416.459 30.7871C416.935 30.7871 417.361 30.6992 417.739 30.5234C418.123 30.3411 418.419 30.0872 418.627 29.7617C418.842 29.4297 418.95 29.0326 418.95 28.5703C418.95 28.1146 418.842 27.7207 418.627 27.3887C418.419 27.0501 418.123 26.793 417.739 26.6172C417.361 26.4414 416.935 26.3535 416.459 26.3535ZM425.629 40.8457H423.159V23.0039H425.629V40.8457ZM410.776 35.1816C412.208 35.1751 413.51 35.1589 414.682 35.1328C415.854 35.1068 417.097 35.0547 418.412 34.9766C419.734 34.8919 420.981 34.7715 422.153 34.6152L422.329 36.4023C421.124 36.6367 419.868 36.8125 418.559 36.9297C417.25 37.0469 416.02 37.1217 414.868 37.1543C413.722 37.1868 412.455 37.2031 411.069 37.2031L410.776 35.1816ZM446.235 40.8457H443.735V23.0039H446.235V40.8457ZM448.872 31.6562H445.688V29.6152H448.872V31.6562ZM434.419 34.4688C436.033 34.4753 437.462 34.4362 438.706 34.3516C439.949 34.2669 441.199 34.1172 442.456 33.9023L442.729 35.9922C441.453 36.207 440.184 36.3503 438.921 36.4219C437.658 36.4935 436.157 36.526 434.419 36.5195H432.915V34.4688H434.419ZM441.255 26.6855H435.405V35.4844H432.915V24.6641H441.255V26.6855ZM464.18 40.8457H461.65V23.0039H464.18V40.8457ZM454.521 24.2637C455.413 24.2637 456.214 24.5241 456.924 25.0449C457.64 25.5658 458.197 26.3047 458.594 27.2617C458.997 28.2188 459.199 29.332 459.199 30.6016C459.199 31.8776 458.997 32.9941 458.594 33.9512C458.197 34.9082 457.64 35.6471 456.924 36.168C456.214 36.6823 455.413 36.9395 454.521 36.9395C453.617 36.9395 452.806 36.6823 452.09 36.168C451.38 35.6471 450.824 34.9082 450.42 33.9512C450.016 32.9941 449.814 31.8776 449.814 30.6016C449.814 29.332 450.016 28.2188 450.42 27.2617C450.824 26.3047 451.38 25.5658 452.09 25.0449C452.806 24.5241 453.617 24.2637 454.521 24.2637ZM454.521 26.5195C454.066 26.513 453.662 26.6693 453.311 26.9883C452.965 27.3008 452.699 27.7663 452.51 28.3848C452.327 28.9967 452.236 29.7357 452.236 30.6016C452.236 31.4674 452.327 32.2064 452.51 32.8184C452.699 33.4303 452.965 33.8958 453.311 34.2148C453.662 34.5273 454.066 34.6836 454.521 34.6836C454.971 34.6836 455.368 34.5273 455.713 34.2148C456.058 33.8958 456.325 33.4303 456.514 32.8184C456.702 32.2064 456.797 31.4674 456.797 30.6016C456.797 29.7357 456.702 28.9967 456.514 28.3848C456.325 27.7663 456.058 27.3008 455.713 26.9883C455.374 26.6693 454.977 26.513 454.521 26.5195ZM471.284 24.2637C472.17 24.2637 472.961 24.5241 473.657 25.0449C474.354 25.5658 474.898 26.3047 475.288 27.2617C475.685 28.2188 475.884 29.332 475.884 30.6016C475.884 31.8776 475.685 32.9941 475.288 33.9512C474.898 34.9082 474.354 35.6471 473.657 36.168C472.961 36.6823 472.17 36.9395 471.284 36.9395C470.392 36.9395 469.595 36.6823 468.892 36.168C468.195 35.6536 467.648 34.918 467.251 33.9609C466.854 32.9974 466.655 31.8776 466.655 30.6016C466.655 29.332 466.854 28.2188 467.251 27.2617C467.648 26.3047 468.195 25.5658 468.892 25.0449C469.595 24.5241 470.392 24.2637 471.284 24.2637ZM471.284 26.5195C470.842 26.513 470.448 26.6693 470.103 26.9883C469.764 27.3073 469.504 27.7728 469.321 28.3848C469.146 28.9967 469.058 29.7357 469.058 30.6016C469.058 31.4674 469.146 32.2064 469.321 32.8184C469.504 33.4303 469.764 33.8958 470.103 34.2148C470.448 34.5273 470.842 34.6836 471.284 34.6836C471.734 34.6836 472.127 34.5273 472.466 34.2148C472.805 33.8958 473.065 33.4303 473.247 32.8184C473.43 32.2064 473.521 31.4674 473.521 30.6016C473.521 29.7292 473.426 28.987 473.238 28.375C473.055 27.763 472.798 27.3008 472.466 26.9883C472.134 26.6693 471.74 26.513 471.284 26.5195ZM481.382 40.8457H478.911V23.0039H481.382V40.8457ZM479.976 31.4414H475.142V29.4395H479.976V31.4414ZM498.37 40.8457H495.879V23.0039H498.37V40.8457ZM486.016 34.625C487.683 34.6315 489.187 34.5924 490.528 34.5078C491.869 34.4167 493.23 34.2604 494.61 34.0391L494.834 36.0508C493.467 36.2917 492.103 36.4577 490.743 36.5488C489.388 36.6335 487.813 36.6758 486.016 36.6758H484.424V34.625H486.016ZM492.852 31.3535H486.993V35.4062H484.424V29.4004H490.313V26.5195H484.405V24.5078H492.852V31.3535Z" fill="black"/>
<path d="M386.883 86.1074H385.857V73.9531H386.883V86.1074ZM386.131 79.7363H383.752V78.8477H386.131V79.7363ZM384.066 85.4785H383.082V74.2266H384.066V85.4785ZM377.723 82.1836C378.716 82.1836 379.541 82.1608 380.197 82.1152C380.854 82.0697 381.519 81.9785 382.193 81.8418L382.289 82.7441C381.596 82.8809 380.915 82.9743 380.245 83.0244C379.575 83.0745 378.734 83.0996 377.723 83.0996H376.943V82.1836H377.723ZM381.496 76.332H378.01V82.6074H376.943V75.4434H381.496V76.332ZM392.635 84.0293H391.555V80.5293H392.635V84.0293ZM396.395 84.0293H395.329V80.5293H396.395V84.0293ZM399.581 84.6172H388.452V83.7285H399.581V84.6172ZM398.514 75.9766H389.436V75.0879H398.514V75.9766ZM398.487 80.8301H389.464V79.9414H398.487V80.8301ZM392.43 80.1328H391.364V75.7988H392.43V80.1328ZM396.587 80.1328H395.534V75.7988H396.587V80.1328ZM405.07 83.6875C404.915 83.6875 404.769 83.6465 404.633 83.5645C404.496 83.4824 404.389 83.373 404.311 83.2363C404.234 83.0996 404.195 82.9538 404.195 82.7988C404.195 82.6439 404.234 82.498 404.311 82.3613C404.389 82.2246 404.496 82.1175 404.633 82.04C404.769 81.9626 404.915 81.9238 405.07 81.9238C405.225 81.9238 405.371 81.9626 405.508 82.04C405.644 82.1175 405.752 82.2246 405.829 82.3613C405.906 82.498 405.945 82.6439 405.945 82.7988C405.945 82.9538 405.906 83.0996 405.829 83.2363C405.752 83.373 405.644 83.4824 405.508 83.5645C405.371 83.6465 405.225 83.6875 405.07 83.6875ZM405.07 78.1914C404.915 78.1914 404.769 78.1504 404.633 78.0684C404.496 77.9863 404.389 77.877 404.311 77.7402C404.234 77.6035 404.195 77.4577 404.195 77.3027C404.195 77.1478 404.234 77.002 404.311 76.8652C404.389 76.7285 404.496 76.6214 404.633 76.5439C404.769 76.4665 404.915 76.4277 405.07 76.4277C405.225 76.4277 405.371 76.4665 405.508 76.5439C405.644 76.6214 405.752 76.7285 405.829 76.8652C405.906 77.002 405.945 77.1478 405.945 77.3027C405.945 77.4577 405.906 77.6035 405.829 77.7402C405.752 77.877 405.644 77.9863 405.508 78.0684C405.371 78.1504 405.225 78.1914 405.07 78.1914ZM410.478 80.6387C410.842 80.6387 411.129 80.5885 411.339 80.4883C411.549 80.388 411.699 80.2331 411.79 80.0234C411.881 79.8138 411.927 79.5312 411.927 79.1758V77.2617C411.927 76.651 412.009 76.1566 412.173 75.7783C412.337 75.4001 412.606 75.1221 412.98 74.9443C413.353 74.7666 413.855 74.6777 414.484 74.6777V75.6484C414.119 75.6484 413.827 75.7054 413.609 75.8193C413.39 75.9333 413.235 76.1064 413.144 76.3389C413.053 76.5713 413.007 76.8835 413.007 77.2754V79.5586C413.007 79.9232 412.941 80.2262 412.809 80.4678C412.677 80.7093 412.426 80.9007 412.057 81.042C411.688 81.1833 411.161 81.2539 410.478 81.2539V80.6387ZM414.484 87.7891C413.846 87.7891 413.342 87.6979 412.973 87.5156C412.604 87.3333 412.337 87.0531 412.173 86.6748C412.009 86.2965 411.927 85.8021 411.927 85.1914V83.291C411.927 82.9264 411.881 82.6393 411.79 82.4297C411.699 82.2201 411.549 82.0651 411.339 81.9648C411.129 81.8646 410.842 81.8145 410.478 81.8145V81.2129C411.161 81.2129 411.688 81.2812 412.057 81.418C412.426 81.5547 412.677 81.7438 412.809 81.9854C412.941 82.2269 413.007 82.5345 413.007 82.9082V85.1777C413.007 85.5605 413.053 85.8704 413.144 86.1074C413.235 86.3444 413.39 86.5199 413.609 86.6338C413.827 86.7477 414.119 86.8047 414.484 86.8047V87.7891ZM410.478 80.6387H411.64V81.8145H410.478V80.6387ZM416.832 85H415.656V77.5762H416.791V78.7383H416.887C417.078 78.3372 417.351 78.0273 417.707 77.8086C418.062 77.5898 418.514 77.4805 419.06 77.4805C419.571 77.4805 420.013 77.583 420.387 77.7881C420.76 77.9932 421.05 78.3053 421.255 78.7246C421.46 79.1439 421.562 79.6634 421.562 80.2832V85H420.387V80.3652C420.387 79.9824 420.32 79.6543 420.188 79.3809C420.056 79.1074 419.865 78.8978 419.614 78.752C419.363 78.6061 419.06 78.5332 418.705 78.5332C418.34 78.5332 418.017 78.6107 417.734 78.7656C417.452 78.9206 417.231 79.1507 417.071 79.4561C416.912 79.7614 416.832 80.1237 416.832 80.543V85ZM427.848 81.5547C427.766 81.5547 427.37 81.582 426.659 81.6367L425.879 81.6914C425.323 81.7279 424.893 81.8486 424.587 82.0537C424.282 82.2588 424.129 82.5573 424.129 82.9492C424.129 83.2044 424.195 83.4186 424.328 83.5918C424.46 83.765 424.644 83.8971 424.881 83.9883C425.118 84.0794 425.387 84.125 425.688 84.125C426.116 84.125 426.485 84.0407 426.795 83.8721C427.105 83.7035 427.342 83.4801 427.506 83.2021C427.67 82.9242 427.752 82.6257 427.752 82.3066V79.9961C427.752 79.6771 427.691 79.4059 427.568 79.1826C427.445 78.9593 427.258 78.7907 427.007 78.6768C426.757 78.5628 426.444 78.5059 426.071 78.5059C425.624 78.5059 425.257 78.597 424.97 78.7793C424.683 78.9616 424.494 79.2031 424.403 79.5039H423.172C423.227 79.1029 423.384 78.7497 423.644 78.4443C423.904 78.139 424.248 77.902 424.676 77.7334C425.105 77.5648 425.588 77.4805 426.125 77.4805C426.554 77.4805 426.973 77.5443 427.383 77.6719C427.793 77.7995 428.151 78.057 428.457 78.4443C428.762 78.8317 428.915 79.3854 428.915 80.1055V85H427.752V83.9883H427.698C427.607 84.1797 427.468 84.3643 427.281 84.542C427.094 84.7197 426.848 84.8701 426.542 84.9932C426.237 85.1162 425.884 85.1777 425.483 85.1777C425.009 85.1777 424.581 85.0866 424.198 84.9043C423.815 84.722 423.512 84.4577 423.289 84.1113C423.065 83.765 422.954 83.3594 422.954 82.8945C422.954 82.1198 423.218 81.5752 423.747 81.2607C424.275 80.9463 424.941 80.7617 425.743 80.707C425.834 80.6979 426.271 80.6706 427.055 80.625L427.834 80.5977L427.848 81.5547ZM430.661 77.5762H431.796V78.7383H431.892C432.056 78.3372 432.309 78.0273 432.651 77.8086C432.992 77.5898 433.405 77.4805 433.888 77.4805C434.207 77.4805 434.494 77.5283 434.749 77.624C435.004 77.7197 435.225 77.861 435.412 78.0479C435.599 78.2347 435.752 78.4648 435.87 78.7383H435.952C436.08 78.474 436.251 78.2484 436.465 78.0615C436.679 77.8747 436.932 77.7311 437.224 77.6309C437.515 77.5306 437.834 77.4805 438.181 77.4805C438.637 77.4805 439.033 77.5739 439.37 77.7607C439.707 77.9476 439.972 78.2301 440.163 78.6084C440.355 78.9867 440.45 79.4629 440.45 80.0371V85H439.275V80.0508C439.275 79.5312 439.133 79.1484 438.851 78.9023C438.568 78.6562 438.208 78.5332 437.771 78.5332C437.433 78.5332 437.142 78.6038 436.896 78.7451C436.65 78.8864 436.463 79.0801 436.335 79.3262C436.207 79.5723 436.144 79.8548 436.144 80.1738V85H434.954V79.9277C434.954 79.6543 434.893 79.4105 434.77 79.1963C434.647 78.9821 434.476 78.818 434.257 78.7041C434.038 78.5902 433.788 78.5332 433.505 78.5332C433.213 78.5332 432.94 78.6107 432.685 78.7656C432.429 78.9206 432.224 79.137 432.069 79.415C431.915 79.693 431.837 80.0098 431.837 80.3652V85H430.661V77.5762ZM445.314 85.1504C444.612 85.1504 443.999 84.9932 443.475 84.6787C442.951 84.3643 442.548 83.9199 442.265 83.3457C441.983 82.7715 441.842 82.1061 441.842 81.3496C441.842 80.5931 441.983 79.9209 442.265 79.333C442.548 78.7451 442.942 78.2894 443.448 77.9658C443.954 77.6423 444.539 77.4805 445.205 77.4805C445.77 77.4805 446.294 77.6035 446.777 77.8496C447.26 78.0957 447.652 78.4967 447.953 79.0527C448.254 79.6087 448.404 80.3197 448.404 81.1855V81.6777H442.662V80.6797H447.215C447.215 80.2604 447.133 79.889 446.969 79.5654C446.804 79.2419 446.57 78.9867 446.264 78.7998C445.959 78.613 445.606 78.5195 445.205 78.5195C444.767 78.5195 444.385 78.6266 444.056 78.8408C443.728 79.055 443.473 79.3421 443.291 79.7021C443.108 80.0622 443.017 80.4473 443.017 80.8574V81.5273C443.017 82.0742 443.113 82.5413 443.304 82.9287C443.496 83.3161 443.765 83.61 444.111 83.8105C444.457 84.0111 444.858 84.1113 445.314 84.1113C445.597 84.1113 445.852 84.0726 446.08 83.9951C446.308 83.9176 446.501 83.8174 446.661 83.6943C446.82 83.5713 446.946 83.4277 447.037 83.2637H448.295C448.176 83.6374 447.98 83.9655 447.707 84.248C447.433 84.5306 447.092 84.7516 446.681 84.9111C446.271 85.0706 445.816 85.1504 445.314 85.1504ZM452.366 80.4883C452.575 80.5885 452.862 80.6387 453.227 80.6387V81.2539C452.543 81.2539 452.017 81.1833 451.648 81.042C451.279 80.9007 451.028 80.7093 450.896 80.4678C450.764 80.2262 450.698 79.9232 450.698 79.5586V77.2754C450.698 76.8835 450.652 76.5713 450.561 76.3389C450.47 76.1064 450.315 75.9333 450.096 75.8193C449.877 75.7054 449.586 75.6484 449.221 75.6484V74.6777C449.85 74.6777 450.351 74.7666 450.725 74.9443C451.099 75.1221 451.368 75.4001 451.532 75.7783C451.696 76.1566 451.778 76.651 451.778 77.2617V79.1758C451.778 79.5312 451.823 79.8138 451.914 80.0234C452.006 80.2331 452.156 80.388 452.366 80.4883ZM450.732 87.5156C450.363 87.6979 449.859 87.7891 449.221 87.7891V86.8047C449.586 86.8047 449.877 86.7477 450.096 86.6338C450.315 86.5199 450.47 86.3444 450.561 86.1074C450.652 85.8704 450.698 85.5605 450.698 85.1777V82.9082C450.698 82.5345 450.764 82.2269 450.896 81.9854C451.028 81.7438 451.279 81.5547 451.648 81.418C452.017 81.2812 452.543 81.2129 453.227 81.2129V81.8145C452.862 81.8145 452.575 81.8646 452.366 81.9648C452.156 82.0651 452.006 82.2201 451.914 82.4297C451.823 82.6393 451.778 82.9264 451.778 83.291V85.1914C451.778 85.8021 451.696 86.2965 451.532 86.6748C451.368 87.0531 451.101 87.3333 450.732 87.5156ZM453.227 80.6387V81.8145H452.065V80.6387H453.227Z" fill="#5F5F5F"/>
<path d="M384.005 126.212C383.914 125.761 383.729 125.36 383.451 125.009C383.173 124.653 382.825 124.378 382.405 124.182C381.991 123.981 381.537 123.881 381.045 123.881C380.416 123.881 379.846 124.043 379.336 124.366C378.83 124.69 378.427 125.166 378.126 125.795C377.83 126.424 377.682 127.176 377.682 128.051C377.682 128.93 377.83 129.685 378.126 130.313C378.422 130.938 378.826 131.412 379.336 131.735C379.846 132.059 380.416 132.221 381.045 132.221C381.537 132.221 381.991 132.123 382.405 131.927C382.82 131.726 383.166 131.451 383.444 131.1C383.727 130.744 383.914 130.345 384.005 129.903H384.976C384.866 130.514 384.634 131.068 384.278 131.564C383.923 132.057 383.467 132.442 382.911 132.72C382.355 132.998 381.733 133.137 381.045 133.137C380.211 133.137 379.468 132.927 378.816 132.508C378.165 132.089 377.657 131.496 377.292 130.73C376.927 129.96 376.745 129.067 376.745 128.051C376.745 127.03 376.927 126.137 377.292 125.371C377.657 124.601 378.165 124.008 378.816 123.594C379.468 123.174 380.211 122.965 381.045 122.965C381.729 122.965 382.348 123.104 382.904 123.382C383.465 123.66 383.923 124.045 384.278 124.537C384.634 125.025 384.866 125.583 384.976 126.212H384.005ZM389.436 133.15C388.798 133.15 388.226 132.989 387.72 132.665C387.219 132.341 386.829 131.89 386.551 131.312C386.273 130.728 386.134 130.063 386.134 129.315C386.134 128.563 386.273 127.898 386.551 127.319C386.829 126.736 387.219 126.283 387.72 125.959C388.226 125.635 388.798 125.474 389.436 125.474C390.074 125.474 390.642 125.635 391.138 125.959C391.64 126.283 392.027 126.736 392.3 127.319C392.578 127.898 392.717 128.563 392.717 129.315C392.717 130.063 392.578 130.728 392.3 131.312C392.027 131.89 391.64 132.341 391.138 132.665C390.642 132.989 390.074 133.15 389.436 133.15ZM389.436 132.316C389.928 132.316 390.352 132.182 390.708 131.913C391.063 131.644 391.332 131.282 391.514 130.826C391.697 130.37 391.788 129.867 391.788 129.315C391.788 128.764 391.697 128.26 391.514 127.805C391.332 127.349 391.063 126.987 390.708 126.718C390.352 126.444 389.928 126.308 389.436 126.308C388.944 126.308 388.52 126.444 388.165 126.718C387.809 126.987 387.538 127.349 387.351 127.805C387.164 128.26 387.071 128.764 387.071 129.315C387.071 129.867 387.162 130.37 387.344 130.826C387.531 131.282 387.802 131.644 388.158 131.913C388.518 132.182 388.944 132.316 389.436 132.316ZM394.211 125.576H395.114V126.95H395.223C395.364 126.668 395.519 126.424 395.688 126.219C395.856 126.014 396.089 125.838 396.385 125.692C396.686 125.547 397.048 125.474 397.472 125.474C398.078 125.474 398.614 125.633 399.078 125.952C399.548 126.267 399.91 126.713 400.165 127.292C400.421 127.871 400.548 128.543 400.548 129.309C400.548 130.061 400.418 130.73 400.158 131.318C399.903 131.902 399.543 132.353 399.078 132.672C398.614 132.991 398.08 133.15 397.479 133.15C397.064 133.15 396.704 133.075 396.399 132.925C396.098 132.774 395.861 132.597 395.688 132.392C395.515 132.182 395.36 131.938 395.223 131.66H395.141V135.789H394.211V125.576ZM395.12 129.288C395.12 129.876 395.209 130.398 395.387 130.854C395.565 131.309 395.822 131.667 396.159 131.927C396.497 132.182 396.898 132.31 397.363 132.31C397.832 132.31 398.238 132.177 398.579 131.913C398.921 131.649 399.179 131.289 399.352 130.833C399.53 130.377 399.618 129.862 399.618 129.288C399.618 128.718 399.53 128.21 399.352 127.764C399.179 127.312 398.923 126.959 398.586 126.704C398.249 126.444 397.841 126.314 397.363 126.314C396.893 126.314 396.49 126.44 396.153 126.69C395.82 126.941 395.565 127.29 395.387 127.736C395.209 128.183 395.12 128.7 395.12 129.288ZM402.35 135.789C402.167 135.789 401.999 135.782 401.844 135.769V134.928L402.008 134.935C402.067 134.944 402.16 134.948 402.288 134.948C402.489 134.948 402.662 134.923 402.808 134.873C402.958 134.827 403.104 134.72 403.245 134.552C403.391 134.383 403.523 134.13 403.642 133.793L403.908 133.075L401.174 125.576H402.185L404.352 131.79H404.414L406.581 125.576H407.593L404.455 134.148C404.25 134.695 403.974 135.105 403.628 135.379C403.281 135.652 402.855 135.789 402.35 135.789ZM408.875 125.576H409.777V126.725H409.845C409.996 126.337 410.253 126.03 410.618 125.802C410.982 125.574 411.392 125.46 411.848 125.46C412.026 125.46 412.188 125.467 412.334 125.48V126.417C412.293 126.408 412.217 126.396 412.108 126.383C411.999 126.369 411.889 126.362 411.78 126.362C411.411 126.362 411.076 126.444 410.775 126.608C410.474 126.768 410.237 126.991 410.064 127.278C409.891 127.561 409.804 127.88 409.804 128.235V133H408.875V125.576ZM413.424 125.576H414.354V133H413.424V125.576ZM413.882 124.312C413.764 124.312 413.652 124.284 413.547 124.229C413.442 124.17 413.36 124.09 413.301 123.99C413.242 123.885 413.212 123.776 413.212 123.662C413.212 123.544 413.242 123.437 413.301 123.341C413.36 123.241 413.442 123.163 413.547 123.108C413.652 123.049 413.764 123.02 413.882 123.02C414.014 123.02 414.133 123.049 414.237 123.108C414.342 123.163 414.424 123.241 414.484 123.341C414.543 123.437 414.572 123.544 414.572 123.662C414.572 123.776 414.543 123.885 414.484 123.99C414.424 124.09 414.342 124.17 414.237 124.229C414.133 124.284 414.014 124.312 413.882 124.312ZM419.095 135.939C418.548 135.939 418.056 135.862 417.618 135.707C417.185 135.552 416.834 135.324 416.565 135.023C416.301 134.727 416.139 134.365 416.08 133.937H417.057C417.149 134.324 417.374 134.616 417.734 134.812C418.094 135.012 418.548 135.112 419.095 135.112C419.787 135.112 420.32 134.948 420.694 134.62C421.068 134.297 421.255 133.804 421.255 133.144V131.496H421.18C421.052 131.765 420.899 132 420.722 132.2C420.544 132.401 420.302 132.572 419.997 132.713C419.696 132.854 419.336 132.925 418.917 132.925C418.324 132.925 417.796 132.774 417.331 132.474C416.866 132.173 416.501 131.742 416.237 131.182C415.973 130.621 415.841 129.967 415.841 129.22C415.841 128.477 415.971 127.823 416.23 127.258C416.49 126.688 416.852 126.248 417.317 125.938C417.782 125.629 418.32 125.474 418.931 125.474C419.354 125.474 419.714 125.547 420.011 125.692C420.311 125.838 420.542 126.007 420.701 126.198C420.865 126.39 421.031 126.64 421.2 126.95H421.275V125.576H422.191V133.191C422.191 133.798 422.059 134.306 421.795 134.716C421.535 135.131 421.173 135.438 420.708 135.639C420.243 135.839 419.705 135.939 419.095 135.939ZM419.033 132.077C419.498 132.077 419.899 131.963 420.236 131.735C420.573 131.507 420.831 131.184 421.009 130.765C421.186 130.341 421.275 129.835 421.275 129.247C421.275 128.673 421.186 128.165 421.009 127.723C420.835 127.281 420.58 126.937 420.243 126.69C419.91 126.44 419.507 126.314 419.033 126.314C418.564 126.314 418.16 126.444 417.823 126.704C417.486 126.959 417.228 127.308 417.051 127.75C416.873 128.192 416.784 128.691 416.784 129.247C416.784 129.808 416.873 130.302 417.051 130.73C417.228 131.154 417.486 131.485 417.823 131.722C418.16 131.959 418.564 132.077 419.033 132.077ZM424.984 133H424.054V123.102H424.984V126.745H425.066C425.248 126.344 425.522 126.034 425.886 125.815C426.255 125.592 426.713 125.48 427.26 125.48C427.775 125.48 428.222 125.585 428.6 125.795C428.978 126 429.27 126.308 429.475 126.718C429.685 127.128 429.79 127.625 429.79 128.208V133H428.86V128.263C428.86 127.866 428.785 127.522 428.634 127.23C428.484 126.934 428.27 126.709 427.992 126.554C427.714 126.399 427.386 126.321 427.007 126.321C426.62 126.321 426.274 126.406 425.968 126.574C425.663 126.738 425.421 126.978 425.244 127.292C425.07 127.602 424.984 127.969 424.984 128.393V133ZM434.647 126.369H431.044V125.576H434.647V126.369ZM433.088 123.799V131.024C433.088 131.321 433.136 131.555 433.232 131.729C433.332 131.902 433.462 132.027 433.621 132.104C433.785 132.177 433.972 132.214 434.182 132.214C434.382 132.214 434.587 132.207 434.797 132.193V133.062C434.61 133.093 434.375 133.109 434.093 133.109C433.76 133.109 433.446 133.036 433.15 132.891C432.853 132.745 432.612 132.531 432.425 132.248C432.243 131.965 432.151 131.631 432.151 131.243V123.799H433.088ZM441.483 128.051C441.483 127.531 441.613 127.053 441.872 126.615C442.132 126.173 442.481 125.825 442.918 125.569C443.356 125.314 443.834 125.187 444.354 125.187C444.787 125.187 445.188 125.275 445.557 125.453C445.926 125.631 446.234 125.877 446.48 126.191C446.731 126.506 446.895 126.861 446.972 127.258H446.022C445.958 127.025 445.846 126.82 445.687 126.643C445.527 126.465 445.331 126.328 445.099 126.232C444.871 126.132 444.623 126.082 444.354 126.082C444.003 126.082 443.675 126.171 443.37 126.349C443.069 126.522 442.829 126.759 442.652 127.06C442.479 127.36 442.392 127.691 442.392 128.051C442.392 128.402 442.479 128.73 442.652 129.035C442.829 129.336 443.069 129.575 443.37 129.753C443.675 129.931 444.003 130.02 444.354 130.02C444.75 130.02 445.092 129.91 445.379 129.691C445.671 129.473 445.862 129.188 445.954 128.837H446.897C446.824 129.229 446.669 129.584 446.432 129.903C446.195 130.218 445.897 130.466 445.537 130.648C445.176 130.826 444.782 130.915 444.354 130.915C443.834 130.915 443.356 130.787 442.918 130.532C442.481 130.272 442.132 129.924 441.872 129.486C441.613 129.049 441.483 128.57 441.483 128.051ZM444.279 133.15C443.358 133.15 442.506 132.92 441.722 132.46C440.938 132 440.318 131.38 439.863 130.601C439.407 129.821 439.179 128.971 439.179 128.051C439.184 127.121 439.414 126.267 439.87 125.487C440.33 124.708 440.95 124.09 441.729 123.635C442.508 123.179 443.358 122.951 444.279 122.951C445.208 122.951 446.063 123.179 446.842 123.635C447.621 124.09 448.239 124.708 448.695 125.487C449.155 126.267 449.385 127.121 449.385 128.051C449.39 128.971 449.164 129.821 448.708 130.601C448.253 131.38 447.633 132 446.849 132.46C446.065 132.92 445.208 133.15 444.279 133.15ZM444.279 132.248C445.044 132.248 445.748 132.061 446.391 131.688C447.038 131.309 447.549 130.799 447.922 130.156C448.301 129.509 448.485 128.807 448.476 128.051C448.476 127.285 448.287 126.581 447.909 125.938C447.535 125.291 447.027 124.783 446.384 124.414C445.746 124.04 445.044 123.854 444.279 123.854C443.522 123.854 442.823 124.043 442.18 124.421C441.542 124.795 441.034 125.303 440.656 125.945C440.282 126.588 440.091 127.29 440.081 128.051C440.081 128.807 440.268 129.507 440.642 130.149C441.02 130.787 441.531 131.298 442.173 131.681C442.82 132.059 443.522 132.248 444.279 132.248ZM454.205 132.282L457.548 128.673C458.017 128.162 458.377 127.75 458.628 127.436C458.878 127.117 459.061 126.816 459.174 126.533C459.293 126.251 459.352 125.959 459.352 125.658C459.352 125.303 459.261 124.986 459.079 124.708C458.901 124.425 458.655 124.207 458.341 124.052C458.026 123.897 457.671 123.819 457.274 123.819C456.873 123.819 456.515 123.904 456.201 124.072C455.891 124.241 455.649 124.478 455.476 124.783C455.303 125.084 455.216 125.424 455.216 125.802H454.294C454.294 125.255 454.421 124.767 454.676 124.339C454.936 123.906 455.296 123.569 455.757 123.327C456.221 123.086 456.736 122.965 457.301 122.965C457.871 122.965 458.379 123.083 458.826 123.32C459.277 123.553 459.63 123.876 459.885 124.291C460.141 124.701 460.268 125.157 460.268 125.658C460.268 126.032 460.2 126.39 460.063 126.731C459.931 127.069 459.71 127.442 459.4 127.853C459.095 128.258 458.648 128.775 458.06 129.404L455.579 132.057V132.125H460.555V133H454.212L454.205 132.282ZM465.426 133.137C464.724 133.137 464.125 132.936 463.628 132.535C463.131 132.134 462.749 131.553 462.48 130.792C462.215 130.031 462.083 129.117 462.083 128.051C462.083 126.989 462.215 126.077 462.48 125.316C462.749 124.555 463.134 123.974 463.635 123.573C464.136 123.168 464.733 122.965 465.426 122.965C466.119 122.965 466.716 123.168 467.217 123.573C467.718 123.974 468.101 124.555 468.366 125.316C468.63 126.077 468.762 126.989 468.762 128.051C468.762 129.117 468.632 130.031 468.372 130.792C468.113 131.553 467.73 132.134 467.224 132.535C466.723 132.936 466.123 133.137 465.426 133.137ZM465.426 132.262C465.923 132.262 466.349 132.098 466.704 131.77C467.064 131.437 467.338 130.956 467.525 130.327C467.716 129.694 467.812 128.935 467.812 128.051C467.812 127.167 467.716 126.408 467.525 125.774C467.338 125.136 467.064 124.651 466.704 124.318C466.349 123.986 465.923 123.819 465.426 123.819C464.929 123.819 464.501 123.986 464.141 124.318C463.781 124.651 463.503 125.136 463.307 125.774C463.116 126.408 463.02 127.167 463.02 128.051C463.02 128.935 463.116 129.694 463.307 130.327C463.498 130.956 463.774 131.437 464.134 131.77C464.499 132.098 464.929 132.262 465.426 132.262ZM470.345 132.282L473.687 128.673C474.157 128.162 474.517 127.75 474.768 127.436C475.018 127.117 475.2 126.816 475.314 126.533C475.433 126.251 475.492 125.959 475.492 125.658C475.492 125.303 475.401 124.986 475.219 124.708C475.041 124.425 474.795 124.207 474.48 124.052C474.166 123.897 473.811 123.819 473.414 123.819C473.013 123.819 472.655 123.904 472.341 124.072C472.031 124.241 471.789 124.478 471.616 124.783C471.443 125.084 471.356 125.424 471.356 125.802H470.434C470.434 125.255 470.561 124.767 470.816 124.339C471.076 123.906 471.436 123.569 471.896 123.327C472.361 123.086 472.876 122.965 473.441 122.965C474.011 122.965 474.519 123.083 474.966 123.32C475.417 123.553 475.77 123.876 476.025 124.291C476.281 124.701 476.408 125.157 476.408 125.658C476.408 126.032 476.34 126.39 476.203 126.731C476.071 127.069 475.85 127.442 475.54 127.853C475.235 128.258 474.788 128.775 474.2 129.404L471.719 132.057V132.125H476.695V133H470.352L470.345 132.282ZM477.991 130.102L482.509 123.102H483.097V124.4H482.66L479.071 129.958V130.033H485.039V130.895H477.991V130.102ZM482.755 130.648V130.279V123.102H483.692V133H482.755V130.648ZM486.902 133.075C486.774 133.075 486.653 133.041 486.539 132.973C486.425 132.904 486.336 132.815 486.273 132.706C486.209 132.592 486.177 132.469 486.177 132.337C486.177 132.209 486.209 132.089 486.273 131.975C486.336 131.861 486.425 131.772 486.539 131.708C486.653 131.644 486.776 131.612 486.908 131.612C487.036 131.612 487.157 131.644 487.271 131.708C487.385 131.772 487.474 131.861 487.537 131.975C487.601 132.089 487.633 132.209 487.633 132.337C487.633 132.469 487.601 132.592 487.537 132.706C487.474 132.815 487.385 132.904 487.271 132.973C487.157 133.041 487.034 133.075 486.902 133.075ZM492.193 128.762C492.562 128.762 492.849 128.714 493.054 128.618C493.264 128.522 493.412 128.372 493.499 128.167C493.59 127.957 493.635 127.67 493.635 127.306V125.118C493.635 124.549 493.713 124.086 493.868 123.73C494.023 123.37 494.271 123.106 494.613 122.938C494.955 122.764 495.406 122.678 495.966 122.678V123.457C495.611 123.457 495.324 123.516 495.105 123.635C494.891 123.753 494.736 123.931 494.64 124.168C494.544 124.405 494.497 124.724 494.497 125.125V127.579C494.497 127.962 494.433 128.276 494.305 128.522C494.182 128.769 493.952 128.96 493.615 129.097C493.282 129.229 492.808 129.295 492.193 129.295V128.762ZM495.966 135.789C495.397 135.789 494.941 135.702 494.599 135.529C494.262 135.356 494.016 135.09 493.861 134.729C493.71 134.369 493.635 133.905 493.635 133.335V131.154C493.635 130.79 493.59 130.505 493.499 130.3C493.412 130.09 493.264 129.938 493.054 129.842C492.849 129.746 492.562 129.698 492.193 129.698V129.172C492.808 129.172 493.282 129.238 493.615 129.37C493.952 129.502 494.182 129.691 494.305 129.938C494.433 130.179 494.497 130.493 494.497 130.881V133.328C494.497 133.72 494.544 134.037 494.64 134.278C494.736 134.52 494.891 134.7 495.105 134.818C495.324 134.937 495.611 134.996 495.966 134.996V135.789ZM492.193 128.762H493.321V129.698H492.193V128.762ZM498.048 133H497.118V125.576H498.021V126.745H498.096C498.287 126.344 498.565 126.034 498.93 125.815C499.299 125.592 499.752 125.48 500.29 125.48C500.796 125.48 501.236 125.585 501.61 125.795C501.988 126 502.279 126.308 502.485 126.718C502.694 127.128 502.799 127.625 502.799 128.208V133H501.869V128.263C501.869 127.866 501.794 127.522 501.644 127.23C501.498 126.939 501.286 126.715 501.008 126.561C500.735 126.401 500.409 126.321 500.03 126.321C499.648 126.321 499.306 126.406 499.005 126.574C498.704 126.738 498.47 126.978 498.301 127.292C498.132 127.602 498.048 127.969 498.048 128.393V133ZM509.187 129.363C509.119 129.368 508.704 129.4 507.943 129.459L507.164 129.514C506.517 129.559 506.031 129.705 505.708 129.951C505.384 130.193 505.222 130.53 505.222 130.963C505.222 131.245 505.293 131.489 505.434 131.694C505.58 131.899 505.781 132.057 506.036 132.166C506.291 132.275 506.578 132.33 506.897 132.33C507.335 132.33 507.718 132.234 508.046 132.043C508.378 131.847 508.636 131.585 508.818 131.257C509 130.929 509.092 130.566 509.092 130.17V127.9C509.092 127.568 509.023 127.281 508.887 127.039C508.75 126.798 508.545 126.615 508.271 126.492C508.002 126.365 507.674 126.301 507.287 126.301C506.813 126.301 506.414 126.401 506.091 126.602C505.772 126.798 505.567 127.066 505.475 127.408H504.505C504.559 127.021 504.712 126.681 504.963 126.39C505.218 126.098 505.548 125.872 505.954 125.713C506.364 125.553 506.822 125.474 507.328 125.474C507.775 125.474 508.196 125.547 508.593 125.692C508.989 125.838 509.324 126.098 509.597 126.472C509.875 126.845 510.014 127.349 510.014 127.982V133H509.092V131.852H509.037C508.928 132.079 508.77 132.294 508.565 132.494C508.365 132.69 508.11 132.852 507.8 132.979C507.49 133.107 507.139 133.171 506.747 133.171C506.291 133.171 505.876 133.082 505.503 132.904C505.134 132.727 504.84 132.467 504.621 132.125C504.402 131.783 504.293 131.382 504.293 130.922C504.293 130.197 504.537 129.666 505.024 129.329C505.516 128.987 506.184 128.787 507.027 128.728C507.232 128.709 507.686 128.677 508.387 128.632L509.18 128.598L509.187 129.363ZM511.891 125.576H512.793V126.725H512.869C513.028 126.328 513.279 126.023 513.621 125.809C513.967 125.59 514.382 125.48 514.865 125.48C515.197 125.48 515.494 125.533 515.753 125.638C516.013 125.738 516.236 125.888 516.423 126.089C516.61 126.285 516.758 126.526 516.868 126.813H516.929C517.048 126.535 517.209 126.299 517.414 126.103C517.624 125.902 517.875 125.749 518.166 125.645C518.463 125.535 518.786 125.48 519.137 125.48C519.602 125.48 520.001 125.578 520.333 125.774C520.671 125.966 520.93 126.251 521.113 126.629C521.295 127.007 521.386 127.474 521.386 128.03V133H520.456V128.037C520.456 127.472 520.311 127.046 520.019 126.759C519.727 126.467 519.335 126.321 518.843 126.321C518.479 126.321 518.166 126.399 517.907 126.554C517.647 126.709 517.449 126.923 517.312 127.196C517.175 127.465 517.107 127.775 517.107 128.126V133H516.164V127.948C516.164 127.625 516.1 127.34 515.972 127.094C515.849 126.843 515.669 126.652 515.432 126.52C515.195 126.387 514.915 126.321 514.591 126.321C514.263 126.321 513.965 126.403 513.696 126.567C513.427 126.731 513.213 126.962 513.053 127.258C512.898 127.549 512.821 127.884 512.821 128.263V133H511.891V125.576ZM526.271 133.15C525.587 133.15 524.988 132.991 524.473 132.672C523.958 132.353 523.561 131.904 523.283 131.325C523.005 130.746 522.866 130.083 522.866 129.336C522.866 128.593 523.005 127.928 523.283 127.34C523.561 126.752 523.949 126.294 524.445 125.966C524.942 125.638 525.51 125.474 526.148 125.474C526.713 125.474 527.234 125.608 527.713 125.877C528.191 126.141 528.574 126.549 528.861 127.101C529.153 127.652 529.299 128.329 529.299 129.131V129.568H523.502V128.762H528.362C528.362 128.297 528.269 127.88 528.082 127.511C527.895 127.137 527.633 126.843 527.296 126.629C526.959 126.415 526.576 126.308 526.148 126.308C525.692 126.308 525.286 126.428 524.931 126.67C524.575 126.907 524.297 127.23 524.097 127.641C523.901 128.046 523.803 128.486 523.803 128.96V129.452C523.803 130.031 523.903 130.537 524.104 130.97C524.309 131.403 524.596 131.735 524.965 131.968C525.339 132.2 525.774 132.316 526.271 132.316C526.594 132.316 526.881 132.269 527.132 132.173C527.387 132.073 527.599 131.95 527.768 131.804C527.941 131.658 528.073 131.496 528.164 131.318H529.162C529.048 131.665 528.859 131.977 528.595 132.255C528.33 132.528 528 132.747 527.604 132.911C527.207 133.071 526.763 133.15 526.271 133.15ZM532.973 128.618C533.183 128.714 533.472 128.762 533.842 128.762V129.295C533.226 129.295 532.75 129.229 532.413 129.097C532.08 128.96 531.85 128.769 531.722 128.522C531.599 128.276 531.538 127.962 531.538 127.579V125.125C531.538 124.724 531.49 124.405 531.394 124.168C531.299 123.931 531.141 123.753 530.923 123.635C530.708 123.516 530.424 123.457 530.068 123.457V122.678C530.629 122.678 531.08 122.764 531.422 122.938C531.763 123.106 532.012 123.37 532.167 123.73C532.322 124.086 532.399 124.549 532.399 125.118V127.306C532.399 127.67 532.442 127.957 532.529 128.167C532.62 128.372 532.768 128.522 532.973 128.618ZM531.428 135.529C531.091 135.702 530.638 135.789 530.068 135.789V134.996C530.424 134.996 530.708 134.937 530.923 134.818C531.141 134.7 531.299 134.52 531.394 134.278C531.49 134.037 531.538 133.72 531.538 133.328V130.881C531.538 130.493 531.599 130.179 531.722 129.938C531.85 129.691 532.08 129.502 532.413 129.37C532.75 129.238 533.226 129.172 533.842 129.172V129.698C533.472 129.698 533.183 129.746 532.973 129.842C532.768 129.938 532.62 130.09 532.529 130.3C532.442 130.505 532.399 130.79 532.399 131.154V133.335C532.399 133.905 532.322 134.369 532.167 134.729C532.016 135.09 531.77 135.356 531.428 135.529ZM533.842 128.762V129.698H532.714V128.762H533.842ZM545.456 126.212C545.365 125.761 545.18 125.36 544.902 125.009C544.624 124.653 544.276 124.378 543.856 124.182C543.442 123.981 542.988 123.881 542.496 123.881C541.867 123.881 541.298 124.043 540.787 124.366C540.281 124.69 539.878 125.166 539.577 125.795C539.281 126.424 539.133 127.176 539.133 128.051C539.133 128.93 539.281 129.685 539.577 130.313C539.873 130.938 540.277 131.412 540.787 131.735C541.298 132.059 541.867 132.221 542.496 132.221C542.988 132.221 543.442 132.123 543.856 131.927C544.271 131.726 544.618 131.451 544.896 131.1C545.178 130.744 545.365 130.345 545.456 129.903H546.427C546.317 130.514 546.085 131.068 545.729 131.564C545.374 132.057 544.918 132.442 544.362 132.72C543.806 132.998 543.184 133.137 542.496 133.137C541.662 133.137 540.919 132.927 540.268 132.508C539.616 132.089 539.108 131.496 538.743 130.73C538.379 129.96 538.196 129.067 538.196 128.051C538.196 127.03 538.379 126.137 538.743 125.371C539.108 124.601 539.616 124.008 540.268 123.594C540.919 123.174 541.662 122.965 542.496 122.965C543.18 122.965 543.799 123.104 544.355 123.382C544.916 123.66 545.374 124.045 545.729 124.537C546.085 125.025 546.317 125.583 546.427 126.212H545.456ZM550.887 133.15C550.249 133.15 549.677 132.989 549.172 132.665C548.67 132.341 548.281 131.89 548.003 131.312C547.725 130.728 547.586 130.063 547.586 129.315C547.586 128.563 547.725 127.898 548.003 127.319C548.281 126.736 548.67 126.283 549.172 125.959C549.677 125.635 550.249 125.474 550.887 125.474C551.525 125.474 552.093 125.635 552.589 125.959C553.091 126.283 553.478 126.736 553.752 127.319C554.03 127.898 554.169 128.563 554.169 129.315C554.169 130.063 554.03 130.728 553.752 131.312C553.478 131.89 553.091 132.341 552.589 132.665C552.093 132.989 551.525 133.15 550.887 133.15ZM550.887 132.316C551.38 132.316 551.803 132.182 552.159 131.913C552.514 131.644 552.783 131.282 552.965 130.826C553.148 130.37 553.239 129.867 553.239 129.315C553.239 128.764 553.148 128.26 552.965 127.805C552.783 127.349 552.514 126.987 552.159 126.718C551.803 126.444 551.38 126.308 550.887 126.308C550.395 126.308 549.971 126.444 549.616 126.718C549.26 126.987 548.989 127.349 548.802 127.805C548.616 128.26 548.522 128.764 548.522 129.315C548.522 129.867 548.613 130.37 548.796 130.826C548.982 131.282 549.254 131.644 549.609 131.913C549.969 132.182 550.395 132.316 550.887 132.316ZM556.373 133.075C556.246 133.075 556.125 133.041 556.011 132.973C555.897 132.904 555.808 132.815 555.744 132.706C555.681 132.592 555.649 132.469 555.649 132.337C555.649 132.209 555.681 132.089 555.744 131.975C555.808 131.861 555.897 131.772 556.011 131.708C556.125 131.644 556.248 131.612 556.38 131.612C556.508 131.612 556.629 131.644 556.742 131.708C556.856 131.772 556.945 131.861 557.009 131.975C557.073 132.089 557.105 132.209 557.105 132.337C557.105 132.469 557.073 132.592 557.009 132.706C556.945 132.815 556.856 132.904 556.742 132.973C556.629 133.041 556.505 133.075 556.373 133.075ZM559.241 135.714H558.448L559.207 132.173H560.246L559.241 135.714ZM565.708 123.102H566.679V132.125H571.375V133H565.708V123.102ZM575.487 126.369H571.885V125.576H575.487V126.369ZM573.929 123.799V131.024C573.929 131.321 573.976 131.555 574.072 131.729C574.172 131.902 574.302 132.027 574.462 132.104C574.626 132.177 574.813 132.214 575.022 132.214C575.223 132.214 575.428 132.207 575.638 132.193V133.062C575.451 133.093 575.216 133.109 574.933 133.109C574.601 133.109 574.286 133.036 573.99 132.891C573.694 132.745 573.452 132.531 573.265 132.248C573.083 131.965 572.992 131.631 572.992 131.243V123.799H573.929ZM579.64 133.15C579.039 133.15 578.505 132.991 578.041 132.672C577.576 132.353 577.213 131.902 576.954 131.318C576.694 130.735 576.564 130.065 576.564 129.309C576.564 128.548 576.694 127.878 576.954 127.299C577.213 126.715 577.576 126.267 578.041 125.952C578.51 125.633 579.048 125.474 579.654 125.474C580.078 125.474 580.438 125.549 580.734 125.699C581.035 125.845 581.269 126.021 581.438 126.226C581.607 126.426 581.762 126.668 581.903 126.95H581.971V123.102H582.915V133H581.999V131.66H581.903C581.752 131.947 581.593 132.193 581.424 132.398C581.26 132.599 581.028 132.774 580.727 132.925C580.426 133.075 580.064 133.15 579.64 133.15ZM579.756 132.31C580.221 132.31 580.622 132.182 580.959 131.927C581.301 131.667 581.559 131.309 581.732 130.854C581.91 130.398 581.999 129.876 581.999 129.288C581.999 128.7 581.912 128.183 581.739 127.736C581.566 127.29 581.31 126.941 580.973 126.69C580.636 126.44 580.23 126.314 579.756 126.314C579.287 126.314 578.884 126.444 578.546 126.704C578.209 126.959 577.952 127.312 577.774 127.764C577.596 128.21 577.507 128.718 577.507 129.288C577.507 129.862 577.596 130.377 577.774 130.833C577.952 131.289 578.209 131.649 578.546 131.913C578.884 132.177 579.287 132.31 579.756 132.31ZM585.666 133.075C585.539 133.075 585.418 133.041 585.304 132.973C585.19 132.904 585.101 132.815 585.037 132.706C584.973 132.592 584.942 132.469 584.942 132.337C584.942 132.209 584.973 132.089 585.037 131.975C585.101 131.861 585.19 131.772 585.304 131.708C585.418 131.644 585.541 131.612 585.673 131.612C585.801 131.612 585.921 131.644 586.035 131.708C586.149 131.772 586.238 131.861 586.302 131.975C586.366 132.089 586.398 132.209 586.398 132.337C586.398 132.469 586.366 132.592 586.302 132.706C586.238 132.815 586.149 132.904 586.035 132.973C585.921 133.041 585.798 133.075 585.666 133.075Z" fill="#919191"/>
</svg>
