<svg width="23" height="32" viewBox="0 0 23 32" fill="none" xmlns="http://www.w3.org/2000/svg">
<g id="Group 12013">
<path id="Vector" d="M11.8992 31.2963C11.7396 31.5244 11.4042 31.5245 11.2445 31.2965C8.89759 27.9446 4.87946 22.3195 3.07975 19.6319C1.19031 16.8144 0.25 14.2979 0.25 11.872C0.25 8.4105 1.36962 5.60812 3.60887 3.46487C5.84837 1.32162 8.50275 0.25 11.572 0.25C14.6412 0.25 17.2956 1.32162 19.5351 3.46487C21.7744 5.60812 22.894 7.6635 22.894 11.125C22.894 14.2979 21.9503 16.8144 20.0643 19.6319C18.2646 22.3195 14.2435 27.9444 11.8992 31.2963Z" fill="black"/>
<circle id="Ellipse 2" cx="11.5703" cy="11.5" r="6" fill="white"/>
</g>
</svg>
