<svg width="24" height="24" viewBox="0 0 24 24" fill="none" xmlns="http://www.w3.org/2000/svg">
<g id="icon/filled/mypage">
<path id="Vector" d="M12 11.6924C11.0347 11.6924 10.21 11.3504 9.526 10.6664C8.842 9.98255 8.5 9.15788 8.5 8.19238C8.5 7.22705 8.842 6.40238 9.526 5.71838C10.21 5.03438 11.0347 4.69238 12 4.69238C12.9653 4.69238 13.79 5.03438 14.474 5.71838C15.158 6.40238 15.5 7.22705 15.5 8.19238C15.5 9.15788 15.158 9.98255 14.474 10.6664C13.79 11.3504 12.9653 11.6924 12 11.6924ZM4.5 17.7886V17.0846C4.5 16.595 4.633 16.1415 4.899 15.7241C5.165 15.3068 5.5205 14.986 5.9655 14.7616C6.95383 14.2771 7.95092 13.9137 8.95675 13.6714C9.96258 13.429 10.977 13.3079 12 13.3079C13.023 13.3079 14.0374 13.429 15.0433 13.6714C16.0491 13.9137 17.0462 14.2771 18.0345 14.7616C18.4795 14.986 18.835 15.3068 19.101 15.7241C19.367 16.1415 19.5 16.595 19.5 17.0846V17.7886C19.5 18.2103 19.3523 18.569 19.0568 18.8646C18.7613 19.1601 18.4026 19.3079 17.9808 19.3079H6.01925C5.59742 19.3079 5.23875 19.1601 4.94325 18.8646C4.64775 18.569 4.5 18.2103 4.5 17.7886Z" fill="#D4D3D3"/>
</g>
</svg>
