<svg width="24" height="24" viewBox="0 0 24 24" fill="none" xmlns="http://www.w3.org/2000/svg">
<path d="M11.5198 14.174L8.36852 11.023C8.32518 10.9795 8.29102 10.9309 8.26602 10.8773C8.24102 10.8238 8.22852 10.7663 8.22852 10.705C8.22852 10.5825 8.26993 10.476 8.35277 10.3855C8.4356 10.2952 8.54477 10.25 8.68027 10.25H15.3188C15.4543 10.25 15.5634 10.2957 15.6463 10.387C15.7291 10.4782 15.7705 10.5846 15.7705 10.7063C15.7705 10.7368 15.7238 10.8423 15.6303 11.023L12.4793 14.174C12.4069 14.2465 12.3321 14.2994 12.2548 14.3327C12.1774 14.3661 12.0923 14.3828 11.9995 14.3828C11.9067 14.3828 11.8216 14.3661 11.7443 14.3327C11.6669 14.2994 11.5921 14.2465 11.5198 14.174Z" fill="#333333"/>
</svg>
