<svg width="40" height="40" viewBox="0 0 40 40" fill="none" xmlns="http://www.w3.org/2000/svg">
<path d="M18.75 21.2498H10.4167C10.0625 21.2498 9.76568 21.13 9.52624 20.8903C9.28652 20.6505 9.16666 20.3536 9.16666 19.9994C9.16666 19.645 9.28652 19.3482 9.52624 19.109C9.76568 18.8696 10.0625 18.7498 10.4167 18.7498H18.75V10.4165C18.75 10.0623 18.8699 9.76553 19.1096 9.52609C19.3493 9.28637 19.6462 9.1665 20.0004 9.1665C20.3549 9.1665 20.6517 9.28637 20.8908 9.52609C21.1303 9.76553 21.25 10.0623 21.25 10.4165V18.7498H29.5833C29.9375 18.7498 30.2343 18.8697 30.4737 19.1094C30.7135 19.3491 30.8333 19.6461 30.8333 20.0003C30.8333 20.3547 30.7135 20.6515 30.4737 20.8907C30.2343 21.1301 29.9375 21.2498 29.5833 21.2498H21.25V29.5832C21.25 29.9373 21.1301 30.2341 20.8904 30.4736C20.6507 30.7133 20.3537 30.8332 19.9996 30.8332C19.6451 30.8332 19.3483 30.7133 19.1092 30.4736C18.8697 30.2341 18.75 29.9373 18.75 29.5832V21.2498Z" fill="#777777"/>
</svg>
