<svg width="24" height="24" viewBox="0 0 24 24" fill="none" xmlns="http://www.w3.org/2000/svg">
<path d="M7.0385 16.5389C5.78283 16.5389 4.7125 16.0964 3.8275 15.2114C2.9425 14.3266 2.5 13.2564 2.5 12.0009C2.5 10.7454 2.9425 9.67508 3.8275 8.78991C4.7125 7.90458 5.78283 7.46191 7.0385 7.46191H10.0578C10.2702 7.46191 10.4483 7.53383 10.592 7.67766C10.7358 7.8215 10.8077 7.99975 10.8077 8.21241C10.8077 8.42491 10.7358 8.603 10.592 8.74666C10.4483 8.89016 10.2702 8.96191 10.0578 8.96191H7.03725C6.19825 8.96191 5.48233 9.25841 4.8895 9.85141C4.2965 10.4444 4 11.1607 4 12.0004C4 12.8401 4.2965 13.5564 4.8895 14.1494C5.48233 14.7424 6.19825 15.0389 7.03725 15.0389H10.0578C10.2702 15.0389 10.4483 15.1108 10.592 15.2547C10.7358 15.3985 10.8077 15.5767 10.8077 15.7892C10.8077 16.0018 10.7358 16.1799 10.592 16.3234C10.4483 16.4671 10.2702 16.5389 10.0578 16.5389H7.0385ZM9 12.7504C8.7875 12.7504 8.60942 12.6785 8.46575 12.5347C8.32192 12.3908 8.25 12.2127 8.25 12.0002C8.25 11.7875 8.32192 11.6094 8.46575 11.4659C8.60942 11.3222 8.7875 11.2504 9 11.2504H15C15.2125 11.2504 15.3906 11.3223 15.5343 11.4662C15.6781 11.61 15.75 11.7882 15.75 12.0007C15.75 12.2133 15.6781 12.3914 15.5343 12.5349C15.3906 12.6786 15.2125 12.7504 15 12.7504H9ZM13.9423 16.5389C13.7298 16.5389 13.5517 16.467 13.408 16.3232C13.2642 16.1793 13.1923 16.0011 13.1923 15.7884C13.1923 15.5759 13.2642 15.3978 13.408 15.2542C13.5517 15.1107 13.7298 15.0389 13.9423 15.0389H16.9628C17.8018 15.0389 18.5177 14.7424 19.1105 14.1494C19.7035 13.5564 20 12.8401 20 12.0004C20 11.1607 19.7035 10.4444 19.1105 9.85141C18.5177 9.25841 17.8018 8.96191 16.9628 8.96191H13.9423C13.7298 8.96191 13.5517 8.89 13.408 8.74616C13.2642 8.60233 13.1923 8.42416 13.1923 8.21166C13.1923 7.999 13.2642 7.82091 13.408 7.67741C13.5517 7.53375 13.7298 7.46191 13.9423 7.46191H16.9615C18.2172 7.46191 19.2875 7.90441 20.1725 8.78941C21.0575 9.67425 21.5 10.7444 21.5 11.9999C21.5 13.2554 21.0575 14.3257 20.1725 15.2109C19.2875 16.0962 18.2172 16.5389 16.9615 16.5389H13.9423Z" fill="#333333"/>
</svg>
