<svg width="68" height="40" viewBox="0 0 68 40" fill="none" xmlns="http://www.w3.org/2000/svg">
<rect width="40" height="40" rx="20" fill="#E4E4E4"/>
<path d="M20 19.487C18.3958 19.487 17.0226 18.9159 15.8804 17.7736C14.7379 16.6311 14.1667 15.2578 14.1667 13.6536C14.1667 12.0495 14.7379 10.6763 15.8804 9.53406C17.0226 8.39156 18.3958 7.82031 20 7.82031C21.6042 7.82031 22.9774 8.39156 24.1196 9.53406C25.2621 10.6763 25.8333 12.0495 25.8333 13.6536C25.8333 15.2578 25.2621 16.6311 24.1196 17.7736C22.9774 18.9159 21.6042 19.487 20 19.487ZM7.5 29.6474V28.4741C7.5 27.658 7.72167 26.9021 8.165 26.2066C8.60833 25.511 9.20083 24.9763 9.9425 24.6024C11.5897 23.7949 13.2515 23.1892 14.9279 22.7853C16.6043 22.3814 18.295 22.1795 20 22.1795C21.705 22.1795 23.3957 22.3814 25.0721 22.7853C26.7485 23.1892 28.4103 23.7949 30.0575 24.6024C30.7992 24.9763 31.3917 25.511 31.835 26.2066C32.2783 26.9021 32.5 27.658 32.5 28.4741V29.6474C32.5 30.3502 32.2538 30.948 31.7613 31.4407C31.2688 31.9332 30.671 32.1795 29.9679 32.1795H10.0321C9.32903 32.1795 8.73125 31.9332 8.23875 31.4407C7.74625 30.948 7.5 30.3502 7.5 29.6474ZM10 29.6795H30V28.4741C30 28.1366 29.9022 27.8241 29.7067 27.5366C29.5111 27.2493 29.2457 27.0149 28.9104 26.8332C27.4743 26.126 26.0101 25.5902 24.5179 25.2257C23.0254 24.8616 21.5194 24.6795 20 24.6795C18.4806 24.6795 16.9746 24.8616 15.4821 25.2257C13.9899 25.5902 12.5257 26.126 11.0896 26.8332C10.7543 27.0149 10.4889 27.2493 10.2933 27.5366C10.0978 27.8241 10 28.1366 10 28.4741V29.6795ZM20 16.987C20.9167 16.987 21.7014 16.6606 22.3542 16.0078C23.0069 15.355 23.3333 14.5703 23.3333 13.6536C23.3333 12.737 23.0069 11.9523 22.3542 11.2995C21.7014 10.6467 20.9167 10.3203 20 10.3203C19.0833 10.3203 18.2986 10.6467 17.6458 11.2995C16.9931 11.9523 16.6667 12.737 16.6667 13.6536C16.6667 14.5703 16.9931 15.355 17.6458 16.0078C18.2986 16.6606 19.0833 16.987 20 16.987Z" fill="#777777"/>
<path d="M55.5203 22.174L52.369 19.023C52.3257 18.9795 52.2915 18.9309 52.2665 18.8773C52.2415 18.8238 52.229 18.7663 52.229 18.705C52.229 18.5825 52.2704 18.476 52.3533 18.3855C52.4361 18.2952 52.5453 18.25 52.6808 18.25H59.3193C59.4548 18.25 59.5639 18.2957 59.6468 18.387C59.7296 18.4782 59.771 18.5846 59.771 18.7063C59.771 18.7368 59.7243 18.8423 59.6308 19.023L56.4798 22.174C56.4074 22.2465 56.3326 22.2994 56.2553 22.3327C56.1779 22.3661 56.0928 22.3828 56 22.3828C55.9072 22.3828 55.8221 22.3661 55.7448 22.3327C55.6674 22.2994 55.5926 22.2465 55.5203 22.174Z" fill="black"/>
</svg>
