<?xml version="1.0" encoding="UTF-8" standalone="no"?>
<!DOCTYPE svg PUBLIC "-//W3C//DTD SVG 1.1//EN"
 "http://www.w3.org/Graphics/SVG/1.1/DTD/svg11.dtd">
<!-- Generated by graphviz version 2.47.0 (20210316.0004)
 -->
<!-- Title: dependencies Pages: 1 -->
<svg width="802pt" height="284pt"
 viewBox="0.00 0.00 802.00 284.00" xmlns="http://www.w3.org/2000/svg" xmlns:xlink="http://www.w3.org/1999/xlink">
<g id="graph0" class="graph" transform="scale(1 1) rotate(0) translate(4 280)">
<title>dependencies</title>
<polygon fill="white" stroke="transparent" points="-4,4 -4,-280 798,-280 798,4 -4,4"/>
<text text-anchor="start" x="376.01" y="-42.4" font-family="Times-12" font-weight="bold" font-size="14.00">Legend</text>
<polygon fill="#ffffb3" stroke="transparent" points="163,-10 163,-30 183,-30 183,-10 163,-10"/>
<text text-anchor="start" x="186.63" y="-15.4" font-family="Times-12" font-size="14.00"> &#160;Declarations</text>
<polygon fill="#8dd3c7" stroke="transparent" points="276,-10 276,-30 296,-30 296,-10 276,-10"/>
<text text-anchor="start" x="299.73" y="-15.4" font-family="Times-12" font-size="14.00"> &#160;Module</text>
<polygon fill="#80b1d3" stroke="transparent" points="362,-10 362,-30 382,-30 382,-10 362,-10"/>
<text text-anchor="start" x="385.78" y="-15.4" font-family="Times-12" font-size="14.00"> &#160;Bootstrap</text>
<polygon fill="#fdb462" stroke="transparent" points="459,-10 459,-30 479,-30 479,-10 459,-10"/>
<text text-anchor="start" x="482.67" y="-15.4" font-family="Times-12" font-size="14.00"> &#160;Providers</text>
<polygon fill="#fb8072" stroke="transparent" points="555,-10 555,-30 575,-30 575,-10 555,-10"/>
<text text-anchor="start" x="578.73" y="-15.4" font-family="Times-12" font-size="14.00"> &#160;Exports</text>
<g id="clust1" class="cluster">
<title>cluster_BoardCommentModule</title>
<polygon fill="none" stroke="black" stroke-dasharray="1,5" points="8,-70 8,-268 786,-268 786,-70 8,-70"/>
</g>
<g id="clust3" class="cluster">
<title>cluster_BoardCommentModule_imports</title>
<polygon fill="none" stroke="black" points="664,-78 664,-130 778,-130 778,-78 664,-78"/>
</g>
<g id="clust6" class="cluster">
<title>cluster_BoardCommentModule_providers</title>
<polygon fill="none" stroke="black" points="16,-78 16,-130 656,-130 656,-78 16,-78"/>
</g>
<g id="clust4" class="cluster">
<title>cluster_BoardCommentModule_exports</title>
<polygon fill="none" stroke="black" points="322,-208 322,-260 508,-260 508,-208 322,-208"/>
</g>
<!-- BcryptModule -->
<g id="node1" class="node">
<title>BcryptModule</title>
<polygon fill="#8dd3c7" stroke="black" points="769.65,-122 766.65,-126 745.65,-126 742.65,-122 672.35,-122 672.35,-86 769.65,-86 769.65,-122"/>
<text text-anchor="middle" x="721" y="-99.8" font-family="Times,serif" font-size="14.00">BcryptModule</text>
</g>
<!-- BoardCommentModule -->
<g id="node2" class="node">
<title>BoardCommentModule</title>
<polygon fill="#8dd3c7" stroke="black" points="489.48,-187 486.48,-191 465.48,-191 462.48,-187 340.52,-187 340.52,-151 489.48,-151 489.48,-187"/>
<text text-anchor="middle" x="415" y="-164.8" font-family="Times,serif" font-size="14.00">BoardCommentModule</text>
</g>
<!-- BcryptModule&#45;&gt;BoardCommentModule -->
<g id="edge1" class="edge">
<title>BcryptModule&#45;&gt;BoardCommentModule</title>
<path fill="none" stroke="black" d="M721,-122.11C721,-141.34 721,-169 721,-169 721,-169 499.86,-169 499.86,-169"/>
<polygon fill="black" stroke="black" points="499.86,-165.5 489.86,-169 499.86,-172.5 499.86,-165.5"/>
</g>
<!-- BoardCommentRepository  -->
<g id="node3" class="node">
<title>BoardCommentRepository </title>
<polygon fill="#fb8072" stroke="black" points="500.37,-252 329.63,-252 329.63,-216 500.37,-216 500.37,-252"/>
<text text-anchor="middle" x="415" y="-229.8" font-family="Times,serif" font-size="14.00">BoardCommentRepository </text>
</g>
<!-- BoardCommentModule&#45;&gt;BoardCommentRepository  -->
<g id="edge2" class="edge">
<title>BoardCommentModule&#45;&gt;BoardCommentRepository </title>
<path fill="none" stroke="black" stroke-dasharray="5,2" d="M415,-187.11C415,-187.11 415,-205.99 415,-205.99"/>
<polygon fill="black" stroke="black" points="411.5,-205.99 415,-215.99 418.5,-205.99 411.5,-205.99"/>
</g>
<!-- BoardCommentRepository -->
<g id="node4" class="node">
<title>BoardCommentRepository</title>
<ellipse fill="#fdb462" stroke="black" cx="533" cy="-104" rx="115.21" ry="18"/>
<text text-anchor="middle" x="533" y="-99.8" font-family="Times,serif" font-size="14.00">BoardCommentRepository</text>
</g>
<!-- BoardCommentRepository&#45;&gt;BoardCommentModule -->
<g id="edge3" class="edge">
<title>BoardCommentRepository&#45;&gt;BoardCommentModule</title>
<path fill="none" stroke="black" d="M453.69,-117.15C453.69,-117.15 453.69,-140.69 453.69,-140.69"/>
<polygon fill="black" stroke="black" points="450.19,-140.69 453.69,-150.69 457.19,-140.69 450.19,-140.69"/>
</g>
<!-- BoardCommentService -->
<g id="node5" class="node">
<title>BoardCommentService</title>
<ellipse fill="#fdb462" stroke="black" cx="298" cy="-104" rx="101.87" ry="18"/>
<text text-anchor="middle" x="298" y="-99.8" font-family="Times,serif" font-size="14.00">BoardCommentService</text>
</g>
<!-- BoardCommentService&#45;&gt;BoardCommentModule -->
<g id="edge4" class="edge">
<title>BoardCommentService&#45;&gt;BoardCommentModule</title>
<path fill="none" stroke="black" d="M370.1,-116.84C370.1,-116.84 370.1,-140.52 370.1,-140.52"/>
<polygon fill="black" stroke="black" points="366.6,-140.52 370.1,-150.52 373.6,-140.52 366.6,-140.52"/>
</g>
<!-- BoardRepository -->
<g id="node6" class="node">
<title>BoardRepository</title>
<ellipse fill="#fdb462" stroke="black" cx="101" cy="-104" rx="77.03" ry="18"/>
<text text-anchor="middle" x="101" y="-99.8" font-family="Times,serif" font-size="14.00">BoardRepository</text>
</g>
<!-- BoardRepository&#45;&gt;BoardCommentModule -->
<g id="edge5" class="edge">
<title>BoardRepository&#45;&gt;BoardCommentModule</title>
<path fill="none" stroke="black" d="M101,-122.11C101,-141.34 101,-169 101,-169 101,-169 330.19,-169 330.19,-169"/>
<polygon fill="black" stroke="black" points="330.19,-172.5 340.19,-169 330.19,-165.5 330.19,-172.5"/>
</g>
</g>
</svg>
