<svg width="24" height="24" viewBox="0 0 24 24" fill="none" xmlns="http://www.w3.org/2000/svg">
<path d="M12 17.5C11.3347 17.5 10.8423 17.6667 10.523 18C10.2038 18.3333 9.58783 18.5 8.675 18.5C7.78917 18.5 7.16992 18.3333 6.81725 18C6.46475 17.6667 5.97567 17.5 5.35 17.5C4.86417 17.5 4.47317 17.6205 4.177 17.8615C3.88083 18.1025 3.49167 18.2832 3.0095 18.4037C2.807 18.4576 2.62983 18.4137 2.478 18.272C2.326 18.1303 2.25 17.9531 2.25 17.7402C2.25 17.5211 2.326 17.3314 2.478 17.1712C2.62983 17.0109 2.80192 16.8833 2.99425 16.7885C3.31608 16.632 3.6305 16.4615 3.9375 16.277C4.2445 16.0923 4.707 16 5.325 16C6.2275 16 6.85667 16.1667 7.2125 16.5C7.56833 16.8333 8.0475 17 8.65 17C9.3025 17 9.799 16.8333 10.1395 16.5C10.4798 16.1667 11.1 16 12 16C12.9 16 13.5202 16.1667 13.8605 16.5C14.201 16.8333 14.6975 17 15.35 17C15.9525 17 16.4317 16.8333 16.7875 16.5C17.1433 16.1667 17.7725 16 18.675 16C19.3122 16 19.7778 16.0907 20.072 16.272C20.3663 16.4535 20.6776 16.6257 21.0058 16.7885C21.1981 16.8833 21.3702 17.0109 21.522 17.1712C21.674 17.3314 21.75 17.5211 21.75 17.7402C21.75 17.9531 21.674 18.1303 21.522 18.272C21.3702 18.4137 21.193 18.4576 20.9905 18.4037C20.5083 18.2832 20.116 18.1025 19.8135 17.8615C19.5108 17.6205 19.123 17.5 18.65 17.5C18.0243 17.5 17.5352 17.6667 17.1827 18C16.8301 18.3333 16.2108 18.5 15.325 18.5C14.4122 18.5 13.7962 18.3333 13.477 18C13.1577 17.6667 12.6653 17.5 12 17.5ZM6.13475 14.5C5.76675 14.5 5.41383 14.433 5.076 14.299C4.73817 14.165 4.44042 13.966 4.18275 13.702L3.50775 13.0172C3.36925 12.8787 3.29908 12.7072 3.29725 12.5027C3.29525 12.2984 3.36858 12.1218 3.51725 11.973C3.65575 11.8347 3.82567 11.7629 4.027 11.7577C4.22817 11.7526 4.40317 11.8192 4.552 11.9577L5.2365 12.6327C5.35583 12.7519 5.49242 12.8429 5.64625 12.9057C5.80008 12.9686 5.96292 13 6.13475 13H7.5V9.25949L6.773 9.80374C6.5975 9.92557 6.41417 9.97207 6.223 9.94324C6.032 9.9144 5.87242 9.81215 5.74425 9.63649C5.61608 9.46082 5.56383 9.27749 5.5875 9.08649C5.61133 8.89549 5.711 8.7359 5.8865 8.60774L10.9308 4.89424C11.0949 4.77374 11.2648 4.68499 11.4405 4.62799C11.616 4.57082 11.8025 4.54224 12 4.54224C12.1975 4.54224 12.384 4.57082 12.5595 4.62799C12.7352 4.68499 12.9051 4.77374 13.0693 4.89424L18.1038 8.59799C18.2794 8.72632 18.3817 8.88757 18.4105 9.08174C18.4393 9.2759 18.3897 9.46082 18.2615 9.63649C18.1333 9.81215 17.9686 9.91599 17.7673 9.94799C17.5659 9.98015 17.3775 9.93207 17.202 9.80374L16.5 9.28449V13H17.8652C18.0371 13 18.1999 12.9686 18.3538 12.9057C18.5076 12.8429 18.6442 12.7519 18.7635 12.6327L19.448 11.9577C19.5865 11.8192 19.758 11.75 19.9625 11.75C20.167 11.75 20.3436 11.8243 20.4923 11.973C20.6308 12.1115 20.7 12.2856 20.7 12.4952C20.7 12.7047 20.6308 12.8787 20.4923 13.0172L19.8173 13.6922C19.5531 13.9564 19.2537 14.1571 18.9193 14.2942C18.5846 14.4314 18.2332 14.5 17.8652 14.5H6.13475ZM9 13H11.25V11.75C11.25 11.5372 11.3218 11.359 11.4655 11.2155C11.609 11.0718 11.7872 11 12 11C12.2128 11 12.391 11.0718 12.5345 11.2155C12.6782 11.359 12.75 11.5372 12.75 11.75V13H15V8.17499L12.1827 6.09999C12.1314 6.06149 12.0705 6.04224 12 6.04224C11.9295 6.04224 11.8686 6.06149 11.8173 6.09999L9 8.16549V13Z" fill="#333333"/>
</svg>
