<svg width="105" height="40" viewBox="0 0 105 40" fill="none" xmlns="http://www.w3.org/2000/svg">
<rect x="0.5" y="0.5" width="104" height="39" rx="7.5" fill="white"/>
<rect x="0.5" y="0.5" width="104" height="39" rx="7.5" stroke="black"/>
<path d="M17 27H18.2615L28.498 16.7635L27.2365 15.502L17 25.7385V27ZM16.404 28.5C16.1478 28.5 15.9332 28.4133 15.76 28.24C15.5867 28.0668 15.5 27.8522 15.5 27.596V25.8635C15.5 25.6197 15.5468 25.3873 15.6405 25.1663C15.734 24.9453 15.8628 24.7527 16.027 24.5885L28.6905 11.9307C28.8417 11.7934 29.0086 11.6873 29.1913 11.6125C29.3741 11.5375 29.5658 11.5 29.7663 11.5C29.9668 11.5 30.1609 11.5356 30.3488 11.6068C30.5368 11.6779 30.7032 11.7911 30.848 11.9462L32.0693 13.1827C32.2244 13.3276 32.335 13.4942 32.401 13.6827C32.467 13.8712 32.5 14.0597 32.5 14.2482C32.5 14.4494 32.4657 14.6413 32.397 14.824C32.3283 15.0068 32.2191 15.1738 32.0693 15.325L19.4115 27.973C19.2473 28.1372 19.0548 28.266 18.8338 28.3595C18.6128 28.4532 18.3803 28.5 18.1365 28.5H16.404ZM27.8562 16.1438L27.2365 15.502L28.498 16.7635L27.8562 16.1438Z" fill="black"/>
<path d="M50.8838 14.8896C50.8838 15.6644 50.6696 16.3822 50.2412 17.043C49.8128 17.6992 49.2113 18.2484 48.4365 18.6904C47.6618 19.1279 46.7822 19.4242 45.7979 19.5791L45.1963 18.3486C46.0439 18.2438 46.7982 18.016 47.459 17.665C48.1243 17.3096 48.6393 16.8903 49.0039 16.4072C49.3685 15.9196 49.5508 15.4137 49.5508 14.8896V14.2539H50.8838V14.8896ZM51.1436 14.8896C51.1436 15.4092 51.3281 15.915 51.6973 16.4072C52.0664 16.8949 52.5837 17.3141 53.249 17.665C53.9144 18.016 54.6709 18.2438 55.5186 18.3486L54.917 19.5791C53.9281 19.4242 53.0462 19.1257 52.2715 18.6836C51.5013 18.2415 50.8997 17.6924 50.4668 17.0361C50.0339 16.3753 49.8174 15.6598 49.8174 14.8896V14.2539H51.1436V14.8896ZM51.0615 26.2031H49.5645V21.6094H51.0615V26.2031ZM55.9697 21.9033H44.7178V20.6523H55.9697V21.9033ZM66.0527 18.1777H63.5371V16.9404H66.0527V18.1777ZM67.1602 21.2061H65.6426V13.8574H67.1602V21.2061ZM62.9834 21.5137C63.8584 21.5137 64.6104 21.6071 65.2393 21.7939C65.8727 21.9762 66.3581 22.2451 66.6953 22.6006C67.0326 22.9515 67.2012 23.373 67.2012 23.8652C67.2012 24.3574 67.0326 24.779 66.6953 25.1299C66.3581 25.4808 65.8727 25.7474 65.2393 25.9297C64.6104 26.1165 63.8584 26.2145 62.9834 26.2236C62.1175 26.2145 61.3678 26.1165 60.7344 25.9297C60.1055 25.7474 59.6201 25.4808 59.2783 25.1299C58.9411 24.779 58.7725 24.3574 58.7725 23.8652C58.7725 23.373 58.9411 22.9515 59.2783 22.6006C59.6201 22.2451 60.1055 21.9762 60.7344 21.7939C61.3678 21.6071 62.1175 21.5137 62.9834 21.5137ZM62.9834 22.6758C62.4137 22.6758 61.9261 22.7214 61.5205 22.8125C61.1149 22.8991 60.8073 23.0312 60.5977 23.209C60.388 23.3867 60.2832 23.6055 60.2832 23.8652C60.2832 24.1113 60.388 24.3232 60.5977 24.501C60.8073 24.6787 61.1149 24.8154 61.5205 24.9111C61.9261 25.0023 62.4137 25.0479 62.9834 25.0479C63.5622 25.0479 64.0521 25.0023 64.4531 24.9111C64.8587 24.8154 65.1641 24.6787 65.3691 24.501C65.5788 24.3232 65.6836 24.1113 65.6836 23.8652C65.6836 23.6055 65.5788 23.3867 65.3691 23.209C65.1641 23.0312 64.8587 22.8991 64.4531 22.8125C64.0521 22.7214 63.5622 22.6758 62.9834 22.6758ZM61.0488 15.9834C61.0488 16.7627 60.9121 17.4987 60.6387 18.1914C60.3698 18.8796 59.9733 19.4834 59.4492 20.0029C58.9297 20.5225 58.3031 20.9121 57.5693 21.1719L56.7764 19.9619C57.4235 19.7386 57.9749 19.4219 58.4307 19.0117C58.8864 18.597 59.2282 18.1276 59.4561 17.6035C59.6885 17.0794 59.8047 16.5394 59.8047 15.9834V15.1016H61.0488V15.9834ZM61.3496 15.9697C61.3496 16.4847 61.459 16.9814 61.6777 17.46C61.901 17.9385 62.2314 18.3691 62.6689 18.752C63.111 19.1302 63.6396 19.4264 64.2549 19.6406L63.4961 20.8438C62.776 20.5977 62.1631 20.2308 61.6572 19.7432C61.1514 19.251 60.7663 18.6813 60.502 18.0342C60.2422 17.3825 60.1123 16.6943 60.1123 15.9697V15.1016H61.3496V15.9697ZM63.9131 15.8945H57.2275V14.6572H63.9131V15.8945ZM78.5898 26.2031H77.0859V13.8574H78.5898V26.2031ZM80.4971 20.0371H78.248V18.7861H80.4971V20.0371ZM76.1289 16.9746H68.8486V15.751H76.1289V16.9746ZM72.5264 17.7744C73.1234 17.7744 73.6566 17.8997 74.126 18.1504C74.5999 18.3965 74.9714 18.7406 75.2402 19.1826C75.5091 19.6247 75.6436 20.126 75.6436 20.6865C75.6436 21.2425 75.5091 21.7438 75.2402 22.1904C74.9714 22.6325 74.5999 22.9766 74.126 23.2227C73.6566 23.4688 73.1234 23.5918 72.5264 23.5918C71.9339 23.5918 71.4007 23.4688 70.9268 23.2227C70.4528 22.9766 70.0814 22.6325 69.8125 22.1904C69.5482 21.7438 69.416 21.2425 69.416 20.6865C69.416 20.126 69.5482 19.6247 69.8125 19.1826C70.0814 18.7406 70.4528 18.3965 70.9268 18.1504C71.4007 17.8997 71.9339 17.7744 72.5264 17.7744ZM72.5264 19.0254C72.2119 19.0254 71.9271 19.0938 71.6719 19.2305C71.4212 19.3672 71.223 19.5609 71.0771 19.8115C70.9359 20.0622 70.8652 20.3538 70.8652 20.6865C70.8652 21.0146 70.9359 21.304 71.0771 21.5547C71.223 21.8053 71.4212 21.999 71.6719 22.1357C71.9271 22.2679 72.2119 22.334 72.5264 22.334C72.8499 22.334 73.137 22.2679 73.3877 22.1357C73.6383 21.999 73.8343 21.8053 73.9756 21.5547C74.1169 21.304 74.1875 21.0146 74.1875 20.6865C74.1875 20.3538 74.1169 20.0622 73.9756 19.8115C73.8343 19.5609 73.6383 19.3672 73.3877 19.2305C73.137 19.0938 72.8499 19.0254 72.5264 19.0254ZM73.2783 16.2432H71.7676V14.0352H73.2783V16.2432ZM91.332 26.2031H89.7939V13.8574H91.332V26.2031ZM87.6475 15.1699C87.6475 16.4596 87.4606 17.6423 87.0869 18.7178C86.7178 19.7887 86.1094 20.7754 85.2617 21.6777C84.4141 22.5755 83.2907 23.3571 81.8916 24.0225L81.085 22.8057C82.2744 22.2406 83.2406 21.598 83.9834 20.8779C84.7262 20.1579 85.2708 19.349 85.6172 18.4512C85.9635 17.5534 86.1367 16.5462 86.1367 15.4297V15.1699H87.6475ZM86.8203 16.373H81.7139V15.1699H86.8203V16.373Z" fill="black"/>
</svg>
