<svg width="24" height="24" viewBox="0 0 24 24" fill="none" xmlns="http://www.w3.org/2000/svg">
<path d="M4.30775 21.5C3.80258 21.5 3.375 21.325 3.025 20.975C2.675 20.625 2.5 20.1974 2.5 19.6923V4.30775C2.5 3.80258 2.675 3.375 3.025 3.025C3.375 2.675 3.80258 2.5 4.30775 2.5H19.6923C20.1974 2.5 20.625 2.675 20.975 3.025C21.325 3.375 21.5 3.80258 21.5 4.30775V19.6923C21.5 20.1974 21.325 20.625 20.975 20.975C20.625 21.325 20.1974 21.5 19.6923 21.5H4.30775ZM4.30775 20H19.6923C19.7693 20 19.8398 19.9679 19.9038 19.9038C19.9679 19.8398 20 19.7693 20 19.6923V4.30775C20 4.23075 19.9679 4.16025 19.9038 4.09625C19.8398 4.03208 19.7693 4 19.6923 4H4.30775C4.23075 4 4.16025 4.03208 4.09625 4.09625C4.03208 4.16025 4 4.23075 4 4.30775V19.6923C4 19.7693 4.03208 19.8398 4.09625 19.9038C4.16025 19.9679 4.23075 20 4.30775 20ZM7 17.6923H17C17.55 17.6923 17.9696 17.5237 18.2587 17.1865C18.5478 16.8493 18.6923 16.4538 18.6923 16V12.3077C18.6923 11.8834 18.5766 11.4949 18.3453 11.1423C18.1138 10.7898 17.8127 10.5257 17.4423 10.35V9.19225C17.4423 8.44875 17.1794 7.81417 16.6538 7.2885C16.1281 6.76283 15.4935 6.5 14.75 6.5H9.25C8.5065 6.5 7.87192 6.76283 7.34625 7.2885C6.82058 7.81417 6.55775 8.44875 6.55775 9.19225V10.35C6.18725 10.5257 5.88625 10.7898 5.65475 11.1423C5.42342 11.4949 5.30775 11.8834 5.30775 12.3077V16C5.30775 16.55 5.47633 16.9696 5.8135 17.2587C6.15067 17.5477 6.54617 17.6923 7 17.6923ZM7 16.5C6.85 16.5 6.72917 16.4542 6.6375 16.3625C6.54583 16.2708 6.5 16.15 6.5 16V12.3077C6.5 12.0244 6.59583 11.7869 6.7875 11.5953C6.97917 11.4036 7.21667 11.3077 7.5 11.3077C7.78333 11.3077 8.02083 11.4036 8.2125 11.5953C8.40417 11.7869 8.5 12.0244 8.5 12.3077V14.3077H15.5V12.3077C15.5 12.0244 15.5958 11.7869 15.7875 11.5953C15.9792 11.4036 16.2167 11.3077 16.5 11.3077C16.7833 11.3077 17.0208 11.4036 17.2125 11.5953C17.4042 11.7869 17.5 12.0244 17.5 12.3077V16C17.5 16.15 17.4542 16.2708 17.3625 16.3625C17.2708 16.4542 17.15 16.5 17 16.5H7ZM9.69225 13.1155V12.3077C9.69225 11.7346 9.50283 11.2452 9.124 10.8395C8.74517 10.4337 8.28717 10.209 7.75 10.1655V9.19225C7.75 8.75892 7.89167 8.40058 8.175 8.11725C8.45833 7.83392 8.81667 7.69225 9.25 7.69225H14.75C15.1833 7.69225 15.5417 7.83392 15.825 8.11725C16.1083 8.40058 16.25 8.75892 16.25 9.19225V10.1655C15.7128 10.209 15.2548 10.4337 14.876 10.8395C14.4972 11.2452 14.3077 11.7346 14.3077 12.3077V13.1155H9.69225Z" fill="#333333"/>
</svg>
