<svg width="18" height="12" viewBox="0 0 18 12" fill="none" xmlns="http://www.w3.org/2000/svg">
<path d="M1.25 11.6347C1.0375 11.6347 0.859417 11.5628 0.71575 11.419C0.571917 11.2753 0.5 11.0971 0.5 10.8845C0.5 10.672 0.571917 10.4939 0.71575 10.3502C0.859417 10.2067 1.0375 10.135 1.25 10.135H16.75C16.9625 10.135 17.1406 10.2068 17.2843 10.3505C17.4281 10.4943 17.5 10.6726 17.5 10.8852C17.5 11.0977 17.4281 11.2758 17.2843 11.4195C17.1406 11.563 16.9625 11.6347 16.75 11.6347H1.25ZM1.25 6.75022C1.0375 6.75022 0.859417 6.67831 0.71575 6.53447C0.571917 6.39064 0.5 6.21247 0.5 5.99997C0.5 5.78731 0.571917 5.60922 0.71575 5.46572C0.859417 5.32206 1.0375 5.25022 1.25 5.25022H16.75C16.9625 5.25022 17.1406 5.32214 17.2843 5.46597C17.4281 5.60981 17.5 5.78797 17.5 6.00047C17.5 6.21314 17.4281 6.39122 17.2843 6.53472C17.1406 6.67839 16.9625 6.75022 16.75 6.75022H1.25ZM1.25 1.86547C1.0375 1.86547 0.859417 1.79364 0.71575 1.64997C0.571917 1.50614 0.5 1.32789 0.5 1.11522C0.5 0.902722 0.571917 0.724639 0.71575 0.580972C0.859417 0.437472 1.0375 0.365723 1.25 0.365723H16.75C16.9625 0.365723 17.1406 0.437639 17.2843 0.581473C17.4281 0.725139 17.5 0.903306 17.5 1.11597C17.5 1.32847 17.4281 1.50656 17.2843 1.65022C17.1406 1.79372 16.9625 1.86547 16.75 1.86547H1.25Z" fill="black"/>
</svg>
