<svg width="20" height="10" viewBox="0 0 20 10" fill="none" xmlns="http://www.w3.org/2000/svg">
<path d="M5.0385 9.53843C3.78283 9.53843 2.7125 9.09593 1.8275 8.21093C0.9425 7.32609 0.5 6.25593 0.5 5.00042C0.5 3.74493 0.9425 2.67459 1.8275 1.78943C2.7125 0.904092 3.78283 0.461426 5.0385 0.461426H8.05775C8.27025 0.461426 8.44833 0.533343 8.592 0.677176C8.73583 0.821009 8.80775 0.999258 8.80775 1.21192C8.80775 1.42442 8.73583 1.60251 8.592 1.74617C8.44833 1.88967 8.27025 1.96143 8.05775 1.96143H5.03725C4.19825 1.96143 3.48233 2.25792 2.8895 2.85092C2.2965 3.44392 2 4.16026 2 4.99993C2 5.83959 2.2965 6.55592 2.8895 7.14893C3.48233 7.74193 4.19825 8.03843 5.03725 8.03843H8.05775C8.27025 8.03843 8.44833 8.11034 8.592 8.25418C8.73583 8.39801 8.80775 8.57617 8.80775 8.78868C8.80775 9.00134 8.73583 9.17943 8.592 9.32293C8.44833 9.46659 8.27025 9.53843 8.05775 9.53843H5.0385ZM7 5.74993C6.7875 5.74993 6.60942 5.67801 6.46575 5.53418C6.32192 5.39034 6.25 5.21217 6.25 4.99968C6.25 4.78701 6.32192 4.60893 6.46575 4.46543C6.60942 4.32176 6.7875 4.24993 7 4.24993H13C13.2125 4.24993 13.3906 4.32184 13.5343 4.46568C13.6781 4.60951 13.75 4.78768 13.75 5.00018C13.75 5.21284 13.6781 5.39093 13.5343 5.53443C13.3906 5.67809 13.2125 5.74993 13 5.74993H7ZM11.9423 9.53843C11.7298 9.53843 11.5517 9.46651 11.408 9.32268C11.2642 9.17884 11.1923 9.00059 11.1923 8.78792C11.1923 8.57543 11.2642 8.39734 11.408 8.25367C11.5517 8.11018 11.7298 8.03843 11.9423 8.03843H14.9628C15.8018 8.03843 16.5177 7.74193 17.1105 7.14893C17.7035 6.55592 18 5.83959 18 4.99993C18 4.16026 17.7035 3.44392 17.1105 2.85092C16.5177 2.25792 15.8018 1.96143 14.9628 1.96143H11.9423C11.7298 1.96143 11.5517 1.88951 11.408 1.74568C11.2642 1.60184 11.1923 1.42368 11.1923 1.21118C11.1923 0.998509 11.2642 0.820426 11.408 0.676926C11.5517 0.533259 11.7298 0.461426 11.9423 0.461426H14.9615C16.2172 0.461426 17.2875 0.903925 18.1725 1.78893C19.0575 2.67376 19.5 3.74393 19.5 4.99943C19.5 6.25493 19.0575 7.32526 18.1725 8.21043C17.2875 9.09576 16.2172 9.53843 14.9615 9.53843H11.9423Z" fill="#333333"/>
</svg>
