<svg width="20" height="20" viewBox="0 0 20 20" fill="none" xmlns="http://www.w3.org/2000/svg">
<path d="M10 10.8779L5.77251 15.1056C5.65709 15.2209 5.51202 15.2799 5.3373 15.2827C5.16272 15.2853 5.01501 15.2263 4.89418 15.1056C4.77348 14.9848 4.71313 14.8384 4.71313 14.6664C4.71313 14.4945 4.77348 14.3481 4.89418 14.2273L9.12188 9.99977L4.89418 5.77227C4.7789 5.65685 4.71987 5.51178 4.71709 5.33706C4.71445 5.16247 4.77348 5.01477 4.89418 4.89393C5.01501 4.77324 5.1614 4.71289 5.33334 4.71289C5.50529 4.71289 5.65168 4.77324 5.77251 4.89393L10 9.12164L14.2275 4.89393C14.3429 4.77865 14.488 4.71963 14.6627 4.71685C14.8373 4.71421 14.985 4.77324 15.1058 4.89393C15.2265 5.01477 15.2869 5.16115 15.2869 5.3331C15.2869 5.50504 15.2265 5.65143 15.1058 5.77227L10.8781 9.99977L15.1058 14.2273C15.2211 14.3427 15.2801 14.4878 15.2829 14.6625C15.2856 14.8371 15.2265 14.9848 15.1058 15.1056C14.985 15.2263 14.8386 15.2866 14.6667 15.2866C14.4947 15.2866 14.3483 15.2263 14.2275 15.1056L10 10.8779Z" fill="#333333"/>
</svg>
