<svg width="40" height="40" viewBox="0 0 40 40" fill="none" xmlns="http://www.w3.org/2000/svg">
<g id="icon/outline/add">
<path id="Vector" d="M18.7501 21.2498H10.4167C10.0626 21.2498 9.76578 21.13 9.52633 20.8903C9.28661 20.6505 9.16675 20.3536 9.16675 19.9994C9.16675 19.645 9.28661 19.3482 9.52633 19.109C9.76578 18.8696 10.0626 18.7498 10.4167 18.7498H18.7501V10.4165C18.7501 10.0623 18.8699 9.76553 19.1097 9.52609C19.3494 9.28637 19.6463 9.1665 20.0005 9.1665C20.3549 9.1665 20.6517 9.28637 20.8909 9.52609C21.1304 9.76553 21.2501 10.0623 21.2501 10.4165V18.7498H29.5834C29.9376 18.7498 30.2344 18.8697 30.4738 19.1094C30.7136 19.3491 30.8334 19.6461 30.8334 20.0003C30.8334 20.3547 30.7136 20.6515 30.4738 20.8907C30.2344 21.1301 29.9376 21.2498 29.5834 21.2498H21.2501V29.5832C21.2501 29.9373 21.1302 30.2341 20.8905 30.4736C20.6508 30.7133 20.3538 30.8332 19.9997 30.8332C19.6452 30.8332 19.3484 30.7133 19.1092 30.4736C18.8698 30.2341 18.7501 29.9373 18.7501 29.5832V21.2498Z" fill="#777777"/>
</g>
</svg>
