<svg width="24" height="24" viewBox="0 0 24 24" fill="none" xmlns="http://www.w3.org/2000/svg">
<path d="M4.25 17.6347C4.0375 17.6347 3.85942 17.5628 3.71575 17.419C3.57192 17.2753 3.5 17.0971 3.5 16.8845C3.5 16.672 3.57192 16.4939 3.71575 16.3502C3.85942 16.2067 4.0375 16.135 4.25 16.135H19.75C19.9625 16.135 20.1406 16.2068 20.2843 16.3505C20.4281 16.4943 20.5 16.6726 20.5 16.8852C20.5 17.0977 20.4281 17.2758 20.2843 17.4195C20.1406 17.563 19.9625 17.6347 19.75 17.6347H4.25ZM4.25 12.7502C4.0375 12.7502 3.85942 12.6783 3.71575 12.5345C3.57192 12.3906 3.5 12.2125 3.5 12C3.5 11.7873 3.57192 11.6092 3.71575 11.4657C3.85942 11.3221 4.0375 11.2502 4.25 11.2502H19.75C19.9625 11.2502 20.1406 11.3221 20.2843 11.466C20.4281 11.6098 20.5 11.788 20.5 12.0005C20.5 12.2131 20.4281 12.3912 20.2843 12.5347C20.1406 12.6784 19.9625 12.7502 19.75 12.7502H4.25ZM4.25 7.86547C4.0375 7.86547 3.85942 7.79364 3.71575 7.64997C3.57192 7.50614 3.5 7.32789 3.5 7.11522C3.5 6.90272 3.57192 6.72464 3.71575 6.58097C3.85942 6.43747 4.0375 6.36572 4.25 6.36572H19.75C19.9625 6.36572 20.1406 6.43764 20.2843 6.58147C20.4281 6.72514 20.5 6.90331 20.5 7.11597C20.5 7.32847 20.4281 7.50656 20.2843 7.65022C20.1406 7.79372 19.9625 7.86547 19.75 7.86547H4.25Z" fill="black"/>
</svg>
