<svg width="24" height="24" viewBox="0 0 24 24" fill="none" xmlns="http://www.w3.org/2000/svg">
<path d="M12 2.96729C12.191 2.96729 12.3811 2.99587 12.5703 3.05303C12.7593 3.11003 12.9359 3.19879 13.1 3.31929L21.927 9.97303C22.0924 10.1014 22.1869 10.2635 22.2105 10.4595C22.2342 10.6557 22.1819 10.8416 22.0538 11.0173C21.9256 11.193 21.7634 11.2926 21.5673 11.3163C21.3711 11.3401 21.1852 11.286 21.0095 11.1538L12 4.37503L6.00002 8.90778V17.6923C6.00002 17.7821 6.02885 17.8559 6.08652 17.9135C6.14419 17.9712 6.21794 18 6.30777 18H9.08652C9.29935 18 9.4776 18.0719 9.62127 18.2155C9.76477 18.359 9.83652 18.5372 9.83652 18.75C9.83652 18.9629 9.76477 19.141 9.62127 19.2845C9.4776 19.4282 9.29935 19.5 9.08652 19.5H6.30777C5.8091 19.5 5.3831 19.3235 5.02977 18.9703C4.6766 18.617 4.50002 18.1909 4.50002 17.6923V10.0385L3.00002 11.1693C2.83469 11.2911 2.65135 11.3401 2.45002 11.3163C2.24869 11.2926 2.08394 11.193 1.95577 11.0173C1.8276 10.852 1.77794 10.6712 1.80677 10.475C1.8356 10.2789 1.93269 10.1167 2.09802 9.98853L10.9 3.31929C11.0642 3.19879 11.2392 3.11003 11.425 3.05303C11.6109 2.99587 11.8025 2.96729 12 2.96729ZM17.5 22.0673C16.7744 22.57 16.0212 22.7965 15.2405 22.747C14.4597 22.6977 13.7789 22.3827 13.198 21.802C12.6174 21.2212 12.3024 20.5388 12.253 19.7548C12.2035 18.9708 12.4301 18.2192 12.9328 17.5C12.4301 16.7744 12.2035 16.0212 12.253 15.2405C12.3024 14.4597 12.6174 13.7789 13.198 13.198C13.7789 12.6174 14.4613 12.3024 15.2453 12.253C16.0293 12.2035 16.7809 12.4301 17.5 12.9328C18.2257 12.4301 18.9789 12.2035 19.7595 12.253C20.5404 12.3024 21.2212 12.6174 21.802 13.198C22.3827 13.7789 22.6977 14.4613 22.747 15.2453C22.7965 16.0293 22.5699 16.7809 22.0673 17.5C22.5699 18.2257 22.7965 18.9789 22.747 19.7595C22.6977 20.5404 22.3827 21.2212 21.802 21.802C21.2212 22.3827 20.5388 22.6977 19.7548 22.747C18.9708 22.7965 18.2192 22.57 17.5 22.0673ZM17.5 20.2328L18.5058 20.927C18.8571 21.1757 19.2398 21.2818 19.6538 21.2453C20.0679 21.2088 20.4276 21.0379 20.7328 20.7328C21.0379 20.4276 21.2104 20.0679 21.25 19.6538C21.2899 19.2398 21.1854 18.8571 20.9365 18.5058L20.2328 17.5L20.927 16.4943C21.1757 16.1429 21.2818 15.7603 21.2453 15.3463C21.2088 14.9321 21.0379 14.5725 20.7328 14.2673C20.4276 13.9621 20.0679 13.7897 19.6538 13.75C19.2398 13.7102 18.8571 13.8147 18.5058 14.0635L17.5 14.7673L16.4943 14.073C16.1429 13.8244 15.7603 13.7183 15.3463 13.7548C14.9321 13.7913 14.5724 13.9621 14.2673 14.2673C13.9621 14.5725 13.7897 14.9321 13.75 15.3463C13.7102 15.7603 13.8147 16.1429 14.0635 16.4943L14.7673 17.5L14.073 18.5058C13.8244 18.8571 13.7183 19.2398 13.7548 19.6538C13.7913 20.0679 13.9621 20.4276 14.2673 20.7328C14.5724 21.0379 14.9321 21.2104 15.3463 21.25C15.7603 21.2899 16.1429 21.1854 16.4943 20.9365L17.5 20.2328ZM17.5 18.5193C17.7859 18.5193 18.0272 18.4209 18.224 18.224C18.4209 18.0272 18.5193 17.7859 18.5193 17.5C18.5193 17.2142 18.4209 16.9729 18.224 16.776C18.0272 16.5792 17.7859 16.4808 17.5 16.4808C17.2142 16.4808 16.9729 16.5792 16.776 16.776C16.5792 16.9729 16.4808 17.2142 16.4808 17.5C16.4808 17.7859 16.5792 18.0272 16.776 18.224C16.9729 18.4209 17.2142 18.5193 17.5 18.5193Z" fill="#333333"/>
</svg>
