<svg xmlns="http://www.w3.org/2000/svg" width="120" height="75" viewBox="0 0 120 75" fill="none">
  <path d="M77.3796 14.7025H80.1416C83.2011 14.7025 84.7309 13.3711 84.7309 10.7082C84.7309 8.04533 83.2011 6.71388 80.1416 6.71388H77.3796V14.7025ZM77.3796 27.8754C77.3796 30.1752 75.5152 32.0397 73.2153 32.0397C70.9154 32.0397 69.051 30.1752 69.051 27.8754V5.31161C69.051 2.37809 71.4291 0 74.3626 0H82.3088C85.9065 0 88.6544 0.934843 90.5524 2.80453C92.4788 4.67422 93.4419 7.30878 93.4419 10.7082C93.4419 14.1076 92.4788 16.7422 90.5524 18.6119C88.6544 20.4816 85.9065 21.4164 82.3088 21.4164H77.3796V27.8754Z" fill="black"/>
  <path d="M103.938 57.1955H106.7C109.759 57.1955 111.289 55.864 111.289 53.2011C111.289 50.5382 109.759 49.2068 106.7 49.2068H103.938V57.1955ZM103.938 70.3683C103.938 72.6682 102.073 74.5326 99.7734 74.5326C97.4735 74.5326 95.6091 72.6682 95.6091 70.3683V47.8045C95.6091 44.871 97.9872 42.4929 100.921 42.4929H108.867C112.465 42.4929 115.212 43.4278 117.11 45.2974C119.037 47.1671 120 49.8017 120 53.2011C120 56.6006 119.037 59.2351 117.11 61.1048C115.212 62.9745 112.465 63.9093 108.867 63.9093H103.938V70.3683Z" fill="black"/>
  <path d="M34.0429 14.3201H35.6152C37.2582 14.3201 38.5188 13.9802 39.397 13.3003C40.2752 12.6204 40.7143 11.6431 40.7143 10.3683C40.7143 9.09348 40.2752 8.11615 39.397 7.43626C38.5188 6.75637 37.2582 6.41643 35.6152 6.41643C34.7468 6.41643 34.0429 7.12034 34.0429 7.98867V14.3201ZM52.3574 32.0397H41.9891L34.0429 19.7167V32.0397H25.7143V3.54107C25.7143 1.58539 27.2997 0 29.2554 0H38.6746C40.4593 0 42.0174 0.269122 43.3489 0.807365C44.6803 1.31728 45.771 2.0255 46.6208 2.93201C47.499 3.83852 48.1506 4.88668 48.5755 6.07649C49.0287 7.26629 49.2554 8.54108 49.2554 9.90085C49.2554 12.3371 48.6605 14.3201 47.4707 15.8499C46.3092 17.3513 44.5812 18.3711 42.2865 18.9093L52.3574 32.0397Z" fill="black"/>
  <path d="M60.601 56.813H62.1732C63.8163 56.813 65.0769 56.4731 65.9551 55.7932C66.8333 55.1133 67.2724 54.136 67.2724 52.8612C67.2724 51.5864 66.8333 50.6091 65.9551 49.9292C65.0769 49.2493 63.8163 48.9093 62.1732 48.9093C61.3049 48.9093 60.601 49.6133 60.601 50.4816V56.813ZM78.9154 74.5326H68.5472L60.601 62.2096V74.5326H52.2724V46.034C52.2724 44.0783 53.8578 42.4929 55.8134 42.4929H65.2327C67.0174 42.4929 68.5755 42.762 69.9069 43.3003C71.2384 43.8102 72.329 44.5184 73.1789 45.4249C74.0571 46.3314 74.7086 47.3796 75.1336 48.5694C75.5868 49.7592 75.8135 51.034 75.8135 52.3938C75.8135 54.83 75.2186 56.813 74.0287 58.3428C72.8673 59.8442 71.1392 60.864 68.8446 61.4023L78.9154 74.5326Z" fill="black"/>
  <path d="M15.17 7.5779V27.8754C15.17 30.1752 13.3055 32.0397 11.0057 32.0397C8.70578 32.0397 6.84136 30.1752 6.84136 27.8754V7.5779H3.78895C1.69637 7.5779 0 5.88153 0 3.78895C0 1.69637 1.69637 0 3.78895 0H18.2224C20.315 0 22.0113 1.69637 22.0113 3.78895C22.0113 5.88153 20.315 7.5779 18.2224 7.5779H15.17Z" fill="black"/>
  <path d="M61.0836 10.6232C63.5282 10.6232 65.5099 12.605 65.5099 15.0496V27.4433C65.5099 29.8879 63.5282 31.8697 61.0836 31.8697C58.639 31.8697 56.6572 29.8879 56.6572 27.4433V15.0496C56.6572 12.605 58.639 10.6232 61.0836 10.6232Z" fill="#F66A6A"/>
  <path d="M65.5099 4.42635C65.5099 6.87095 63.5282 8.85269 61.0836 8.85269C58.639 8.85269 56.6572 6.87095 56.6572 4.42635C56.6572 1.98174 58.639 0 61.0836 0C63.5282 0 65.5099 1.98174 65.5099 4.42635Z" fill="#F66A6A"/>
  <path d="M41.728 50.0708V70.3683C41.728 72.6682 39.8636 74.5326 37.5637 74.5326C35.2639 74.5326 33.3994 72.6682 33.3994 70.3683V50.0708H30.347C28.2544 50.0708 26.5581 48.3744 26.5581 46.2819C26.5581 44.1893 28.2544 42.4929 30.347 42.4929H44.7805C46.873 42.4929 48.5694 44.1893 48.5694 46.2819C48.5694 48.3744 46.873 50.0708 44.7805 50.0708H41.728Z" fill="black"/>
  <path d="M87.6416 53.1161C90.0862 53.1161 92.068 55.0979 92.068 57.5425V69.9363C92.068 72.3809 90.0862 74.3626 87.6416 74.3626C85.197 74.3626 83.2153 72.3809 83.2153 69.9363V57.5425C83.2153 55.0979 85.197 53.1161 87.6416 53.1161Z" fill="#F66A6A"/>
  <path d="M92.068 46.9193C92.068 49.3639 90.0862 51.3456 87.6416 51.3456C85.197 51.3456 83.2153 49.3639 83.2153 46.9193C83.2153 44.4747 85.197 42.4929 87.6416 42.4929C90.0862 42.4929 92.068 44.4747 92.068 46.9193Z" fill="#F66A6A"/>
</svg>