<svg xmlns="http://www.w3.org/2000/svg" width="20" height="20" viewBox="0 0 20 20" fill="none">
  <path d="M12.3553 9.99996L6.07798 3.72267C5.91242 3.55711 5.8318 3.36003 5.8361 3.13142C5.84041 2.90281 5.92534 2.70565 6.09089 2.53996C6.25645 2.3744 6.45353 2.29163 6.68214 2.29163C6.91075 2.29163 7.10791 2.3744 7.2736 2.53996L13.6534 8.93267C13.8039 9.08336 13.9155 9.25218 13.9882 9.43913C14.061 9.62607 14.0974 9.81301 14.0974 9.99996C14.0974 10.1869 14.061 10.3738 13.9882 10.5608C13.9155 10.7477 13.8039 10.9166 13.6534 11.0673L7.26068 17.46C7.09513 17.6255 6.9002 17.7061 6.67589 17.7018C6.45145 17.6975 6.25645 17.6126 6.09089 17.447C5.92534 17.2815 5.84256 17.0844 5.84256 16.8558C5.84256 16.6272 5.92534 16.43 6.09089 16.2643L12.3553 9.99996Z" fill="#333333"/>
</svg>