<?xml version="1.0" encoding="UTF-8" standalone="no"?>
<!DOCTYPE svg PUBLIC "-//W3C//DTD SVG 1.1//EN"
 "http://www.w3.org/Graphics/SVG/1.1/DTD/svg11.dtd">
<!-- Generated by graphviz version 2.47.0 (20210316.0004)
 -->
<!-- Title: dependencies Pages: 1 -->
<svg width="1379pt" height="284pt"
 viewBox="0.00 0.00 1379.00 284.00" xmlns="http://www.w3.org/2000/svg" xmlns:xlink="http://www.w3.org/1999/xlink">
<g id="graph0" class="graph" transform="scale(1 1) rotate(0) translate(4 280)">
<title>dependencies</title>
<polygon fill="white" stroke="transparent" points="-4,4 -4,-280 1375,-280 1375,4 -4,4"/>
<text text-anchor="start" x="664.51" y="-42.4" font-family="Times-12" font-weight="bold" font-size="14.00">Legend</text>
<polygon fill="#ffffb3" stroke="transparent" points="451.5,-10 451.5,-30 471.5,-30 471.5,-10 451.5,-10"/>
<text text-anchor="start" x="475.13" y="-15.4" font-family="Times-12" font-size="14.00"> &#160;Declarations</text>
<polygon fill="#8dd3c7" stroke="transparent" points="564.5,-10 564.5,-30 584.5,-30 584.5,-10 564.5,-10"/>
<text text-anchor="start" x="588.23" y="-15.4" font-family="Times-12" font-size="14.00"> &#160;Module</text>
<polygon fill="#80b1d3" stroke="transparent" points="650.5,-10 650.5,-30 670.5,-30 670.5,-10 650.5,-10"/>
<text text-anchor="start" x="674.28" y="-15.4" font-family="Times-12" font-size="14.00"> &#160;Bootstrap</text>
<polygon fill="#fdb462" stroke="transparent" points="747.5,-10 747.5,-30 767.5,-30 767.5,-10 747.5,-10"/>
<text text-anchor="start" x="771.17" y="-15.4" font-family="Times-12" font-size="14.00"> &#160;Providers</text>
<polygon fill="#fb8072" stroke="transparent" points="843.5,-10 843.5,-30 863.5,-30 863.5,-10 843.5,-10"/>
<text text-anchor="start" x="867.23" y="-15.4" font-family="Times-12" font-size="14.00"> &#160;Exports</text>
<g id="clust1" class="cluster">
<title>cluster_BoardModule</title>
<polygon fill="none" stroke="black" stroke-dasharray="1,5" points="8,-70 8,-268 1363,-268 1363,-70 8,-70"/>
</g>
<g id="clust3" class="cluster">
<title>cluster_BoardModule_imports</title>
<polygon fill="none" stroke="black" points="1079,-78 1079,-130 1355,-130 1355,-78 1079,-78"/>
</g>
<g id="clust4" class="cluster">
<title>cluster_BoardModule_exports</title>
<polygon fill="none" stroke="black" points="582,-208 582,-260 827,-260 827,-208 582,-208"/>
</g>
<g id="clust6" class="cluster">
<title>cluster_BoardModule_providers</title>
<polygon fill="none" stroke="black" points="16,-78 16,-130 1071,-130 1071,-78 16,-78"/>
</g>
<!-- BcryptModule -->
<g id="node1" class="node">
<title>BcryptModule</title>
<polygon fill="#8dd3c7" stroke="black" points="1346.65,-122 1343.65,-126 1322.65,-126 1319.65,-122 1249.35,-122 1249.35,-86 1346.65,-86 1346.65,-122"/>
<text text-anchor="middle" x="1298" y="-99.8" font-family="Times,serif" font-size="14.00">BcryptModule</text>
</g>
<!-- BoardModule -->
<g id="node3" class="node">
<title>BoardModule</title>
<polygon fill="#8dd3c7" stroke="black" points="745.76,-187 742.76,-191 721.76,-191 718.76,-187 652.24,-187 652.24,-151 745.76,-151 745.76,-187"/>
<text text-anchor="middle" x="699" y="-164.8" font-family="Times,serif" font-size="14.00">BoardModule</text>
</g>
<!-- BcryptModule&#45;&gt;BoardModule -->
<g id="edge1" class="edge">
<title>BcryptModule&#45;&gt;BoardModule</title>
<path fill="none" stroke="black" d="M1298,-122.29C1298,-144.21 1298,-178 1298,-178 1298,-178 756,-178 756,-178"/>
<polygon fill="black" stroke="black" points="756,-174.5 746,-178 756,-181.5 756,-174.5"/>
</g>
<!-- BoardReactionModule -->
<g id="node2" class="node">
<title>BoardReactionModule</title>
<polygon fill="#8dd3c7" stroke="black" points="1230.52,-122 1227.52,-126 1206.52,-126 1203.52,-122 1087.48,-122 1087.48,-86 1230.52,-86 1230.52,-122"/>
<text text-anchor="middle" x="1159" y="-99.8" font-family="Times,serif" font-size="14.00">BoardReactionModule</text>
</g>
<!-- BoardReactionModule&#45;&gt;BoardModule -->
<g id="edge2" class="edge">
<title>BoardReactionModule&#45;&gt;BoardModule</title>
<path fill="none" stroke="black" d="M1159,-122.11C1159,-141.34 1159,-169 1159,-169 1159,-169 756.07,-169 756.07,-169"/>
<polygon fill="black" stroke="black" points="756.07,-165.5 746.07,-169 756.07,-172.5 756.07,-165.5"/>
</g>
<!-- BoardRepository  -->
<g id="node4" class="node">
<title>BoardRepository </title>
<polygon fill="#fb8072" stroke="black" points="818.65,-252 703.35,-252 703.35,-216 818.65,-216 818.65,-252"/>
<text text-anchor="middle" x="761" y="-229.8" font-family="Times,serif" font-size="14.00">BoardRepository </text>
</g>
<!-- BoardModule&#45;&gt;BoardRepository  -->
<g id="edge3" class="edge">
<title>BoardModule&#45;&gt;BoardRepository </title>
<path fill="none" stroke="black" stroke-dasharray="5,2" d="M724.65,-187.11C724.65,-187.11 724.65,-205.99 724.65,-205.99"/>
<polygon fill="black" stroke="black" points="721.15,-205.99 724.65,-215.99 728.15,-205.99 721.15,-205.99"/>
</g>
<!-- BoardService  -->
<g id="node5" class="node">
<title>BoardService </title>
<polygon fill="#fb8072" stroke="black" points="685.69,-252 590.31,-252 590.31,-216 685.69,-216 685.69,-252"/>
<text text-anchor="middle" x="638" y="-229.8" font-family="Times,serif" font-size="14.00">BoardService </text>
</g>
<!-- BoardModule&#45;&gt;BoardService  -->
<g id="edge4" class="edge">
<title>BoardModule&#45;&gt;BoardService </title>
<path fill="none" stroke="black" stroke-dasharray="5,2" d="M668.98,-187.11C668.98,-187.11 668.98,-205.99 668.98,-205.99"/>
<polygon fill="black" stroke="black" points="665.48,-205.99 668.98,-215.99 672.48,-205.99 665.48,-205.99"/>
</g>
<!-- BoardCommentRepository -->
<g id="node6" class="node">
<title>BoardCommentRepository</title>
<ellipse fill="#fdb462" stroke="black" cx="948" cy="-104" rx="115.21" ry="18"/>
<text text-anchor="middle" x="948" y="-99.8" font-family="Times,serif" font-size="14.00">BoardCommentRepository</text>
</g>
<!-- BoardCommentRepository&#45;&gt;BoardModule -->
<g id="edge5" class="edge">
<title>BoardCommentRepository&#45;&gt;BoardModule</title>
<path fill="none" stroke="black" d="M948,-122.03C948,-138.4 948,-160 948,-160 948,-160 755.83,-160 755.83,-160"/>
<polygon fill="black" stroke="black" points="755.84,-156.5 745.83,-160 755.83,-163.5 755.84,-156.5"/>
</g>
<!-- BoardIdCounterRepository -->
<g id="node7" class="node">
<title>BoardIdCounterRepository</title>
<ellipse fill="#fdb462" stroke="black" cx="699" cy="-104" rx="116.34" ry="18"/>
<text text-anchor="middle" x="699" y="-99.8" font-family="Times,serif" font-size="14.00">BoardIdCounterRepository</text>
</g>
<!-- BoardIdCounterRepository&#45;&gt;BoardModule -->
<g id="edge6" class="edge">
<title>BoardIdCounterRepository&#45;&gt;BoardModule</title>
<path fill="none" stroke="black" d="M699,-122.11C699,-122.11 699,-140.99 699,-140.99"/>
<polygon fill="black" stroke="black" points="695.5,-140.99 699,-150.99 702.5,-140.99 695.5,-140.99"/>
</g>
<!-- BoardReactionRepository -->
<g id="node8" class="node">
<title>BoardReactionRepository</title>
<ellipse fill="#fdb462" stroke="black" cx="453" cy="-104" rx="111.18" ry="18"/>
<text text-anchor="middle" x="453" y="-99.8" font-family="Times,serif" font-size="14.00">BoardReactionRepository</text>
</g>
<!-- BoardReactionRepository&#45;&gt;BoardModule -->
<g id="edge7" class="edge">
<title>BoardReactionRepository&#45;&gt;BoardModule</title>
<path fill="none" stroke="black" d="M453,-122.03C453,-138.4 453,-160 453,-160 453,-160 642.15,-160 642.15,-160"/>
<polygon fill="black" stroke="black" points="642.15,-163.5 652.15,-160 642.15,-156.5 642.15,-163.5"/>
</g>
<!-- BoardRepository -->
<g id="node9" class="node">
<title>BoardRepository</title>
<ellipse fill="#fdb462" stroke="black" cx="247" cy="-104" rx="77.03" ry="18"/>
<text text-anchor="middle" x="247" y="-99.8" font-family="Times,serif" font-size="14.00">BoardRepository</text>
</g>
<!-- BoardRepository&#45;&gt;BoardModule -->
<g id="edge8" class="edge">
<title>BoardRepository&#45;&gt;BoardModule</title>
<path fill="none" stroke="black" d="M247,-122.11C247,-141.34 247,-169 247,-169 247,-169 641.91,-169 641.91,-169"/>
<polygon fill="black" stroke="black" points="641.91,-172.5 651.91,-169 641.91,-165.5 641.91,-172.5"/>
</g>
<!-- BoardService -->
<g id="node10" class="node">
<title>BoardService</title>
<ellipse fill="#fdb462" stroke="black" cx="88" cy="-104" rx="63.68" ry="18"/>
<text text-anchor="middle" x="88" y="-99.8" font-family="Times,serif" font-size="14.00">BoardService</text>
</g>
<!-- BoardService&#45;&gt;BoardModule -->
<g id="edge9" class="edge">
<title>BoardService&#45;&gt;BoardModule</title>
<path fill="none" stroke="black" d="M88,-122.29C88,-144.21 88,-178 88,-178 88,-178 642.07,-178 642.07,-178"/>
<polygon fill="black" stroke="black" points="642.07,-181.5 652.07,-178 642.07,-174.5 642.07,-181.5"/>
</g>
</g>
</svg>
