<svg width="24" height="24" viewBox="0 0 24 24" fill="none" xmlns="http://www.w3.org/2000/svg">
<path d="M11.9992 19.5135C13.9555 17.7622 15.4526 16.0823 16.4904 14.474C17.5283 12.8657 18.0472 11.457 18.0472 10.248C18.0472 8.425 17.468 6.92633 16.3097 5.752C15.1513 4.57767 13.7145 3.9905 11.9992 3.9905C10.2838 3.9905 8.847 4.57767 7.68867 5.752C6.53034 6.92633 5.95117 8.425 5.95117 10.248C5.95117 11.457 6.47009 12.8657 7.50792 14.474C8.54576 16.0823 10.0428 17.7622 11.9992 19.5135ZM11.9992 20.9403C11.8043 20.9403 11.6095 20.9067 11.4147 20.8395C11.2197 20.7722 11.0433 20.668 10.8857 20.527C9.98834 19.7 9.14859 18.8483 8.36642 17.972C7.58442 17.0958 6.90467 16.2199 6.32717 15.3443C5.74951 14.4686 5.29242 13.6007 4.95592 12.7405C4.61942 11.8802 4.45117 11.0493 4.45117 10.248C4.45117 7.94033 5.19759 6.07208 6.69042 4.64325C8.18342 3.21442 9.953 2.5 11.9992 2.5C14.0453 2.5 15.8149 3.21442 17.3079 4.64325C18.8008 6.07208 19.5472 7.94033 19.5472 10.248C19.5472 11.0493 19.3789 11.8785 19.0424 12.7355C18.7059 13.5927 18.2505 14.4607 17.6762 15.3395C17.1017 16.2183 16.4234 17.0943 15.6414 17.9672C14.8594 18.8404 14.0197 19.6904 13.1222 20.5173C12.9668 20.6583 12.7903 20.764 12.5924 20.8345C12.3948 20.905 12.197 20.9403 11.9992 20.9403ZM12.0009 11.8652C12.4984 11.8652 12.9238 11.6881 13.2769 11.3338C13.6303 10.9794 13.8069 10.5535 13.8069 10.056C13.8069 9.5585 13.6298 9.13308 13.2754 8.77975C12.9211 8.42658 12.4951 8.25 11.9974 8.25C11.4999 8.25 11.0746 8.42717 10.7214 8.7815C10.3681 9.13583 10.1914 9.56183 10.1914 10.0595C10.1914 10.557 10.3686 10.9823 10.7229 11.3355C11.0773 11.6887 11.5033 11.8652 12.0009 11.8652Z" fill="#333333"/>
</svg>
