<svg width="24" height="24" viewBox="0 0 24 24" fill="none" xmlns="http://www.w3.org/2000/svg">
<g id="chevron_right_24dp_5F6368_FILL1_wght400_GRAD0_opsz24 1">
<path id="Vector" d="M12.6 11.9969L8.69999 8.09688C8.51665 7.91354 8.42499 7.68021 8.42499 7.39688C8.42499 7.11354 8.51665 6.88021 8.69999 6.69688C8.88332 6.51354 9.11665 6.42188 9.39999 6.42188C9.68332 6.42188 9.91665 6.51354 10.1 6.69688L14.7 11.2969C14.8 11.3969 14.8708 11.5052 14.9125 11.6219C14.9542 11.7385 14.975 11.8635 14.975 11.9969C14.975 12.1302 14.9542 12.2552 14.9125 12.3719C14.8708 12.4885 14.8 12.5969 14.7 12.6969L10.1 17.2969C9.91665 17.4802 9.68332 17.5719 9.39999 17.5719C9.11665 17.5719 8.88332 17.4802 8.69999 17.2969C8.51665 17.1135 8.42499 16.8802 8.42499 16.5969C8.42499 16.3135 8.51665 16.0802 8.69999 15.8969L12.6 11.9969Z" fill="#333333"/>
</g>
</svg>