<svg width="24" height="24" viewBox="0 0 24 24" fill="none" xmlns="http://www.w3.org/2000/svg">
<g id="chevron_right_24dp_5F6368_FILL1_wght400_GRAD0_opsz24 2">
<path id="Vector" d="M10.8 11.9969L14.7 8.09688C14.8833 7.91354 14.975 7.68021 14.975 7.39688C14.975 7.11354 14.8833 6.88021 14.7 6.69688C14.5166 6.51354 14.2833 6.42188 14 6.42188C13.7166 6.42188 13.4833 6.51354 13.3 6.69688L8.69998 11.2969C8.59998 11.3969 8.52914 11.5052 8.48748 11.6219C8.44581 11.7385 8.42498 11.8635 8.42498 11.9969C8.42498 12.1302 8.44581 12.2552 8.48748 12.3719C8.52914 12.4885 8.59998 12.5969 8.69998 12.6969L13.3 17.2969C13.4833 17.4802 13.7166 17.5719 14 17.5719C14.2833 17.5719 14.5166 17.4802 14.7 17.2969C14.8833 17.1135 14.975 16.8802 14.975 16.5969C14.975 16.3135 14.8833 16.0802 14.7 15.8969L10.8 11.9969Z" fill="#C7C7C7"/>
</g>
</svg>
