<svg width="24" height="24" viewBox="0 0 24 24" fill="none" xmlns="http://www.w3.org/2000/svg">
<path d="M10.1684 18.7125C10.0362 18.6556 9.93086 18.5651 9.85231 18.4412C9.77392 18.3174 9.74288 18.174 9.75921 18.0108L10.2316 13.2901L9.23661 13.1905C8.74042 13.1409 8.3342 12.9228 8.01796 12.5362C7.70157 12.1494 7.5682 11.7079 7.61785 11.2117L8.35319 3.86395C8.40285 3.36776 8.62106 2.96147 9.00782 2.64508C9.3944 2.32884 9.83578 2.19554 10.332 2.2452L15.1482 2.72718C15.6407 2.77647 16.0219 3.00306 16.2919 3.40695C16.562 3.81086 16.6113 4.23295 16.4398 4.67322L14.6704 9.10556L16.0289 9.24151C16.5685 9.29551 16.9437 9.57367 17.1544 10.076C17.365 10.5783 17.2927 11.0404 16.9372 11.4623L10.9551 18.5189C10.8482 18.646 10.7234 18.7243 10.5808 18.7538C10.438 18.7834 10.3005 18.7696 10.1684 18.7125Z" fill="#333333"/>
</svg>
