<svg width="24" height="24" viewBox="0 0 24 24" fill="none" xmlns="http://www.w3.org/2000/svg">
<path d="M8.68027 13.7501C8.54477 13.7501 8.4356 13.7044 8.35277 13.6131C8.26993 13.5219 8.22852 13.4155 8.22852 13.2938C8.22852 13.2633 8.27527 13.1577 8.36877 12.9771L11.5198 9.82606C11.5921 9.75356 11.6669 9.70064 11.7443 9.66731C11.8216 9.63398 11.9067 9.61731 11.9995 9.61731C12.0923 9.61731 12.1774 9.63398 12.2548 9.66731C12.3321 9.70064 12.4069 9.75356 12.4793 9.82606L15.6305 12.9771C15.6738 13.0206 15.708 13.0691 15.733 13.1228C15.758 13.1763 15.7705 13.2337 15.7705 13.2951C15.7705 13.4176 15.7291 13.5241 15.6463 13.6146C15.5634 13.7049 15.4543 13.7501 15.3188 13.7501H8.68027Z" fill="#333333"/>
</svg>
