<svg width="20" height="18" viewBox="0 0 20 18" fill="none" xmlns="http://www.w3.org/2000/svg">
<path d="M2 5.5C2 6.01917 2.09708 6.52783 2.29125 7.026C2.48558 7.524 2.827 8.091 3.3155 8.727C3.80383 9.36283 4.46025 10.1177 5.28475 10.9915C6.10908 11.8652 7.15458 12.9404 8.42125 14.2172C8.48792 14.2839 8.55875 14.3047 8.63375 14.2797C8.70875 14.2547 8.75458 14.2006 8.77125 14.1172L9.304 8.75H8.7845C8.06417 8.75 7.48925 8.467 7.05975 7.901C6.63025 7.335 6.51292 6.70775 6.70775 6.01925L7.773 2.29025C7.4615 2.13142 7.1345 2.00167 6.792 1.901C6.44967 1.80033 6.10233 1.75 5.75 1.75C4.71433 1.75 3.83042 2.11608 3.09825 2.84825C2.36608 3.58042 2 4.46433 2 5.5ZM17.9807 5.5C17.9807 4.46433 17.6147 3.58042 16.8825 2.84825C16.1503 2.11608 15.2664 1.75 14.2308 1.75C14.0089 1.75 13.7903 1.7705 13.575 1.8115C13.3597 1.8525 13.1443 1.90958 12.9288 1.98275L12.1845 4.25H12.5885C13.2358 4.37317 13.7258 4.72283 14.0585 5.299C14.3913 5.87533 14.4571 6.48717 14.2557 7.1345L12.523 12.827C12.4897 12.9167 12.5188 12.9891 12.6105 13.0442C12.7022 13.0994 12.7897 13.0853 12.873 13.002C13.9435 11.9083 14.8134 10.9929 15.4827 10.2557C16.1519 9.51858 16.6711 8.87883 17.0403 8.3365C17.4096 7.79417 17.6587 7.30892 17.7875 6.88075C17.9163 6.45258 17.9807 5.99233 17.9807 5.5ZM10.0253 17.0422C9.80508 17.0422 9.58875 17.0006 9.37625 16.9172C9.16392 16.8339 8.97567 16.7153 8.8115 16.5615C7.14867 15.0257 5.78108 13.7231 4.70875 12.6537C3.63625 11.5846 2.78717 10.6439 2.1615 9.83175C1.53583 9.01958 1.1025 8.27825 0.8615 7.60775C0.6205 6.93725 0.5 6.23583 0.5 5.5035C0.5 4.03883 1.00908 2.79708 2.02725 1.77825C3.04542 0.759417 4.28633 0.25 5.75 0.25C6.76667 0.25 7.66283 0.4385 8.4385 0.8155C9.21417 1.19233 9.49492 1.74867 9.28075 2.4845L8.27875 6.00375C8.19542 6.32442 8.24017 6.61225 8.413 6.86725C8.58583 7.12242 8.8225 7.25 9.123 7.25H10.9423L10.3405 13.41C10.3238 13.5418 10.378 13.6161 10.503 13.6327C10.628 13.6494 10.7072 13.5994 10.7405 13.4827L12.7155 7.0115C12.809 6.691 12.7686 6.40058 12.5943 6.14025C12.4199 5.88008 12.1821 5.75 11.8807 5.75H10.077L11.477 1.58075C11.6475 1.04875 12.0036 0.693917 12.5452 0.516251C13.0869 0.338751 13.6487 0.25 14.2308 0.25C15.6936 0.25 16.9375 0.759084 17.9625 1.77725C18.9875 2.79542 19.5 4.03633 19.5 5.5C19.5 6.2095 19.3634 6.91092 19.0903 7.60425C18.8172 8.29758 18.3612 9.06633 17.722 9.9105C17.083 10.7548 16.2349 11.71 15.1777 12.776C14.1207 13.842 12.8032 15.1038 11.225 16.5615C11.0615 16.7218 10.8757 16.842 10.6678 16.922C10.4598 17.0022 10.2456 17.0422 10.0253 17.0422Z" fill="#5F5F5F"/>
</svg>
