<?xml version="1.0" encoding="UTF-8" standalone="no"?>
<!DOCTYPE svg PUBLIC "-//W3C//DTD SVG 1.1//EN"
 "http://www.w3.org/Graphics/SVG/1.1/DTD/svg11.dtd">
<!-- Generated by graphviz version 2.47.0 (20210316.0004)
 -->
<!-- Title: dependencies Pages: 1 -->
<svg width="504pt" height="211pt"
 viewBox="0.00 0.00 504.00 211.00" xmlns="http://www.w3.org/2000/svg" xmlns:xlink="http://www.w3.org/1999/xlink">
<g id="graph0" class="graph" transform="scale(1 1) rotate(0) translate(4 207)">
<title>dependencies</title>
<polygon fill="white" stroke="transparent" points="-4,4 -4,-207 500,-207 500,4 -4,4"/>
<text text-anchor="start" x="227.01" y="-42.4" font-family="Times-12" font-weight="bold" font-size="14.00">Legend</text>
<polygon fill="#ffffb3" stroke="transparent" points="14,-10 14,-30 34,-30 34,-10 14,-10"/>
<text text-anchor="start" x="37.63" y="-15.4" font-family="Times-12" font-size="14.00"> &#160;Declarations</text>
<polygon fill="#8dd3c7" stroke="transparent" points="127,-10 127,-30 147,-30 147,-10 127,-10"/>
<text text-anchor="start" x="150.73" y="-15.4" font-family="Times-12" font-size="14.00"> &#160;Module</text>
<polygon fill="#80b1d3" stroke="transparent" points="213,-10 213,-30 233,-30 233,-10 213,-10"/>
<text text-anchor="start" x="236.78" y="-15.4" font-family="Times-12" font-size="14.00"> &#160;Bootstrap</text>
<polygon fill="#fdb462" stroke="transparent" points="310,-10 310,-30 330,-30 330,-10 310,-10"/>
<text text-anchor="start" x="333.67" y="-15.4" font-family="Times-12" font-size="14.00"> &#160;Providers</text>
<polygon fill="#fb8072" stroke="transparent" points="406,-10 406,-30 426,-30 426,-10 406,-10"/>
<text text-anchor="start" x="429.73" y="-15.4" font-family="Times-12" font-size="14.00"> &#160;Exports</text>
<g id="clust1" class="cluster">
<title>cluster_BoardReactionModule</title>
<polygon fill="none" stroke="black" stroke-dasharray="1,5" points="14,-70 14,-195 482,-195 482,-70 14,-70"/>
</g>
<g id="clust6" class="cluster">
<title>cluster_BoardReactionModule_providers</title>
<polygon fill="none" stroke="black" points="22,-78 22,-130 474,-130 474,-78 22,-78"/>
</g>
<!-- BoardReactionRepository -->
<g id="node1" class="node">
<title>BoardReactionRepository</title>
<ellipse fill="#fdb462" stroke="black" cx="355" cy="-104" rx="111.18" ry="18"/>
<text text-anchor="middle" x="355" y="-99.8" font-family="Times,serif" font-size="14.00">BoardReactionRepository</text>
</g>
<!-- BoardReactionModule -->
<g id="node3" class="node">
<title>BoardReactionModule</title>
<polygon fill="#8dd3c7" stroke="black" points="312.52,-187 309.52,-191 288.52,-191 285.52,-187 169.48,-187 169.48,-151 312.52,-151 312.52,-187"/>
<text text-anchor="middle" x="241" y="-164.8" font-family="Times,serif" font-size="14.00">BoardReactionModule</text>
</g>
<!-- BoardReactionRepository&#45;&gt;BoardReactionModule -->
<g id="edge1" class="edge">
<title>BoardReactionRepository&#45;&gt;BoardReactionModule</title>
<path fill="none" stroke="black" d="M278.21,-117.15C278.21,-117.15 278.21,-140.69 278.21,-140.69"/>
<polygon fill="black" stroke="black" points="274.71,-140.69 278.21,-150.69 281.71,-140.69 274.71,-140.69"/>
</g>
<!-- BoardReactionService -->
<g id="node2" class="node">
<title>BoardReactionService</title>
<ellipse fill="#fdb462" stroke="black" cx="128" cy="-104" rx="97.83" ry="18"/>
<text text-anchor="middle" x="128" y="-99.8" font-family="Times,serif" font-size="14.00">BoardReactionService</text>
</g>
<!-- BoardReactionService&#45;&gt;BoardReactionModule -->
<g id="edge2" class="edge">
<title>BoardReactionService&#45;&gt;BoardReactionModule</title>
<path fill="none" stroke="black" d="M197.58,-116.84C197.58,-116.84 197.58,-140.52 197.58,-140.52"/>
<polygon fill="black" stroke="black" points="194.08,-140.52 197.58,-150.52 201.08,-140.52 194.08,-140.52"/>
</g>
</g>
</svg>
