<svg width="22" height="22" viewBox="0 0 22 22" fill="none" xmlns="http://www.w3.org/2000/svg">
<path d="M9.75002 12.25H1.41669C1.06252 12.25 0.765715 12.1301 0.526271 11.8904C0.286548 11.6507 0.166687 11.3537 0.166687 10.9995C0.166687 10.6451 0.286548 10.3483 0.526271 10.1091C0.765715 9.86968 1.06252 9.74996 1.41669 9.74996H9.75002V1.41663C9.75002 1.06246 9.86988 0.765654 10.1096 0.52621C10.3493 0.286487 10.6463 0.166626 11.0004 0.166626C11.3549 0.166626 11.6517 0.286487 11.8909 0.52621C12.1303 0.765654 12.25 1.06246 12.25 1.41663V9.74996H20.5834C20.9375 9.74996 21.2343 9.86982 21.4738 10.1095C21.7135 10.3493 21.8334 10.6462 21.8334 11.0004C21.8334 11.3548 21.7135 11.6516 21.4738 11.8908C21.2343 12.1302 20.9375 12.25 20.5834 12.25H12.25V20.5833C12.25 20.9375 12.1302 21.2343 11.8904 21.4737C11.6507 21.7134 11.3538 21.8333 10.9996 21.8333C10.6452 21.8333 10.3484 21.7134 10.1092 21.4737C9.86974 21.2343 9.75002 20.9375 9.75002 20.5833V12.25Z" fill="#777777"/>
</svg>
