<svg width="24" height="24" viewBox="0 0 24 24" fill="none" xmlns="http://www.w3.org/2000/svg">
<g id="star_24dp_E8EAED_FILL1_wght300_GRAD0_opsz24">
<path id="Vector" d="M12 16.688L8.10976 19.034C7.96476 19.1187 7.81951 19.1543 7.67401 19.1407C7.52851 19.1273 7.39684 19.0782 7.27901 18.9938C7.16101 18.9091 7.06993 18.7985 7.00576 18.662C6.94176 18.5255 6.93151 18.3745 6.97501 18.209L8.00776 13.7917L4.57326 10.8187C4.44493 10.7073 4.36318 10.5781 4.32801 10.4313C4.29268 10.2844 4.30193 10.1418 4.35576 10.0033C4.40959 9.86492 4.48718 9.75183 4.58851 9.664C4.68984 9.57617 4.82834 9.51875 5.00401 9.49175L9.53651 9.09575L11.2963 4.9245C11.3603 4.76933 11.4573 4.65458 11.5875 4.58025C11.7177 4.50592 11.8552 4.46875 12 4.46875C12.1448 4.46875 12.2823 4.50592 12.4125 4.58025C12.5427 4.65458 12.6398 4.76933 12.7038 4.9245L14.4635 9.09575L18.996 9.49175C19.1717 9.51875 19.3102 9.57617 19.4115 9.664C19.5128 9.75183 19.5904 9.86492 19.6443 10.0033C19.6981 10.1418 19.7073 10.2844 19.672 10.4313C19.6368 10.5781 19.5551 10.7073 19.4268 10.8187L15.9923 13.7917L17.025 18.209C17.0685 18.3745 17.0583 18.5255 16.9943 18.662C16.9301 18.7985 16.839 18.9091 16.721 18.9938C16.6032 19.0782 16.4715 19.1273 16.326 19.1407C16.1805 19.1543 16.0353 19.1187 15.8903 19.034L12 16.688Z" fill="#FADA67"/>
</g>
</svg>
