<svg width="16" height="16" viewBox="0 0 16 16" fill="none" xmlns="http://www.w3.org/2000/svg">
<rect width="16" height="16" fill="#F5F5F5"/>
<g id="4~13 &#236;&#157;&#188;&#236;&#176;&#168; &#234;&#179;&#188;&#236;&#160;&#156;">
<path d="M-2592 -54696C-2592 -55137.8 -2233.83 -55496 -1792 -55496H14208C14649.8 -55496 15008 -55137.8 15008 -54696V45570C15008 46011.8 14649.8 46370 14208 46370H-1792C-2233.83 46370 -2592 46011.8 -2592 45570V-54696Z" fill="#E0E0E0"/>
<path d="M-1792 -55495H14208V-55497H-1792V-55495ZM15007 -54696V45570H15009V-54696H15007ZM14208 46369H-1792V46371H14208V46369ZM-2591 45570V-54696H-2593V45570H-2591ZM-1792 46369C-2233.28 46369 -2591 46011.3 -2591 45570H-2593C-2593 46012.4 -2234.38 46371 -1792 46371V46369ZM15007 45570C15007 46011.3 14649.3 46369 14208 46369V46371C14650.4 46371 15009 46012.4 15009 45570H15007ZM14208 -55495C14649.3 -55495 15007 -55137.3 15007 -54696H15009C15009 -55138.4 14650.4 -55497 14208 -55497V-55495ZM-1792 -55497C-2234.38 -55497 -2593 -55138.4 -2593 -54696H-2591C-2591 -55137.3 -2233.28 -55495 -1792 -55495V-55497Z" fill="black" fill-opacity="0.1"/>
<g id="Section 5">
<path d="M-592 -16251C-592 -16252.1 -591.105 -16253 -590 -16253H8886C8887.1 -16253 8888 -16252.1 8888 -16251V805C8888 806.104 8887.1 807 8886 807H-590C-591.104 807 -592 806.105 -592 805V-16251Z" fill="white"/>
<path d="M-590 -16252H8886V-16254H-590V-16252ZM8887 -16251V805H8889V-16251H8887ZM8886 806H-590V808H8886V806ZM-591 805V-16251H-593V805H-591ZM-590 806C-590.552 806 -591 805.553 -591 805H-593C-593 806.656 -591.656 808 -590 808V806ZM8887 805C8887 805.553 8886.55 806 8886 806V808C8887.66 808 8889 806.656 8889 805H8887ZM8886 -16252C8886.55 -16252 8887 -16251.6 8887 -16251H8889C8889 -16252.7 8887.66 -16254 8886 -16254V-16252ZM-590 -16254C-591.657 -16254 -593 -16252.7 -593 -16251H-591C-591 -16251.6 -590.552 -16252 -590 -16252V-16254Z" fill="black" fill-opacity="0.1"/>
<g id="&#235;&#170;&#168;&#235;&#176;&#148;&#236;&#157;&#188;">
<path d="M-492 -4081C-492 -4082.1 -491.105 -4083 -490 -4083H3306C3307.1 -4083 3308 -4082.1 3308 -4081V705C3308 706.104 3307.1 707 3306 707H-490C-491.105 707 -492 706.104 -492 705V-4081Z" fill="#FFE2D6"/>
<path d="M-490 -4082H3306V-4084H-490V-4082ZM3307 -4081V705H3309V-4081H3307ZM3306 706H-490V708H3306V706ZM-491 705V-4081H-493V705H-491ZM-490 706C-490.552 706 -491 705.552 -491 705H-493C-493 706.657 -491.657 708 -490 708V706ZM3307 705C3307 705.552 3306.55 706 3306 706V708C3307.66 708 3309 706.657 3309 705H3307ZM3306 -4082C3306.55 -4082 3307 -4081.55 3307 -4081H3309C3309 -4082.66 3307.66 -4084 3306 -4084V-4082ZM-490 -4084C-491.657 -4084 -493 -4082.66 -493 -4081H-491C-491 -4081.55 -490.552 -4082 -490 -4082V-4084Z" fill="black" fill-opacity="0.1"/>
<g id="&#236;&#157;&#188;&#234;&#184;&#176;&#236;&#131;&#129;&#236;&#132;&#184;">
<path d="M-375 -833C-375 -834.105 -374.105 -835 -373 -835H1703C1704.1 -835 1705 -834.105 1705 -833V605C1705 606.105 1704.1 607 1703 607H-373C-374.105 607 -375 606.105 -375 605V-833Z" fill="#F2F2F2"/>
<path d="M-373 -834H1703V-836H-373V-834ZM1704 -833V605H1706V-833H1704ZM1703 606H-373V608H1703V606ZM-374 605V-833H-376V605H-374ZM-373 606C-373.552 606 -374 605.552 -374 605H-376C-376 606.657 -374.657 608 -373 608V606ZM1704 605C1704 605.552 1703.55 606 1703 606V608C1704.66 608 1706 606.657 1706 605H1704ZM1703 -834C1703.55 -834 1704 -833.552 1704 -833H1706C1706 -834.657 1704.66 -836 1703 -836V-834ZM-373 -836C-374.657 -836 -376 -834.657 -376 -833H-374C-374 -833.552 -373.552 -834 -373 -834V-836Z" fill="black" fill-opacity="0.1"/>
<g id="&#235;&#170;&#168;&#235;&#176;&#148;&#236;&#157;&#188;_&#236;&#157;&#188;&#234;&#184;&#176; &#236;&#131;&#129;&#236;&#132;&#184;_&#237;&#154;&#140;&#234;&#179;&#160; &#236;&#158;&#136;&#236;&#157;&#140;" clip-path="url(#clip0_3_2)">
<rect width="360" height="842" transform="translate(-275 -541)" fill="white"/>
<g id="Frame 75">
<g id="Frame 74">
<g id="Frame 79">
<mask id="path-9-inside-1_3_2" fill="white">
<path d="M-255 -449H65V92H-255V-449Z"/>
</mask>
<path d="M65 91H-255V93H65V91Z" fill="black" mask="url(#path-9-inside-1_3_2)"/>
<g id="Frame 77">
<g id="Frame 70">
<g id="Frame 78">
<g id="content_copy_24dp_5F6368_FILL0_wght400_GRAD0_opsz24 1">
<path id="Vector" d="M6 11.9987C5.63333 11.9987 5.31944 11.8681 5.05833 11.607C4.79722 11.3459 4.66667 11.032 4.66667 10.6654V2.66536C4.66667 2.2987 4.79722 1.98481 5.05833 1.7237C5.31944 1.46259 5.63333 1.33203 6 1.33203H12C12.3667 1.33203 12.6806 1.46259 12.9417 1.7237C13.2028 1.98481 13.3333 2.2987 13.3333 2.66536V10.6654C13.3333 11.032 13.2028 11.3459 12.9417 11.607C12.6806 11.8681 12.3667 11.9987 12 11.9987H6ZM6 10.6654H12V2.66536H6V10.6654ZM3.33333 14.6654C2.96667 14.6654 2.65278 14.5348 2.39167 14.2737C2.13056 14.0126 2 13.6987 2 13.332V4.66536C2 4.47648 2.06389 4.31814 2.19167 4.19036C2.31944 4.06259 2.47778 3.9987 2.66667 3.9987C2.85556 3.9987 3.01389 4.06259 3.14167 4.19036C3.26944 4.31814 3.33333 4.47648 3.33333 4.66536V13.332H10C10.1889 13.332 10.3472 13.3959 10.475 13.5237C10.6028 13.6515 10.6667 13.8098 10.6667 13.9987C10.6667 14.1876 10.6028 14.3459 10.475 14.4737C10.3472 14.6015 10.1889 14.6654 10 14.6654H3.33333Z" fill="#5F6368"/>
</g>
</g>
</g>
</g>
</g>
</g>
</g>
</g>
</g>
</g>
</g>
</g>
<defs>
<clipPath id="clip0_3_2">
<rect width="360" height="842" fill="white" transform="translate(-275 -541)"/>
</clipPath>
</defs>
</svg>
