<svg width="14" height="14" viewBox="0 0 14 14" fill="none" xmlns="http://www.w3.org/2000/svg">
<path d="M7.00001 8.05425L1.92701 13.1275C1.78851 13.2658 1.61443 13.3367 1.40476 13.34C1.19526 13.3432 1.01801 13.2723 0.873012 13.1275C0.728178 12.9825 0.655762 12.8068 0.655762 12.6005C0.655762 12.3942 0.728178 12.2185 0.873012 12.0735L5.94626 7.0005L0.873012 1.9275C0.734678 1.789 0.663845 1.61492 0.660512 1.40525C0.657345 1.19575 0.728178 1.0185 0.873012 0.8735C1.01801 0.728667 1.19368 0.65625 1.40001 0.65625C1.60635 0.65625 1.78201 0.728667 1.92701 0.8735L7.00001 5.94675L12.073 0.8735C12.2115 0.735167 12.3856 0.664333 12.5953 0.661C12.8048 0.657833 12.982 0.728667 13.127 0.8735C13.2718 1.0185 13.3443 1.19417 13.3443 1.4005C13.3443 1.60683 13.2718 1.7825 13.127 1.9275L8.05376 7.0005L13.127 12.0735C13.2653 12.212 13.3362 12.3861 13.3395 12.5957C13.3427 12.8052 13.2718 12.9825 13.127 13.1275C12.982 13.2723 12.8063 13.3448 12.6 13.3448C12.3937 13.3448 12.218 13.2723 12.073 13.1275L7.00001 8.05425Z" fill="#333333"/>
</svg>
