<svg width="16" height="16" viewBox="0 0 16 16" fill="none" xmlns="http://www.w3.org/2000/svg">
<path d="M7.99989 12.688L4.10964 15.034C3.96464 15.1187 3.81939 15.1543 3.67389 15.1407C3.52839 15.1273 3.39672 15.0782 3.27889 14.9938C3.16089 14.9091 3.0698 14.7985 3.00564 14.662C2.94164 14.5255 2.93139 14.3745 2.97489 14.209L4.00764 9.79175L0.573137 6.81875C0.444803 6.70725 0.363053 6.57808 0.327887 6.43125C0.292553 6.28442 0.301803 6.14175 0.355637 6.00325C0.40947 5.86492 0.487053 5.75183 0.588387 5.664C0.68972 5.57617 0.82822 5.51875 1.00389 5.49175L5.53639 5.09575L7.29614 0.9245C7.36014 0.769333 7.45722 0.654582 7.58739 0.580249C7.71755 0.505916 7.85505 0.46875 7.99989 0.46875C8.14472 0.46875 8.28222 0.505916 8.41239 0.580249C8.54255 0.654582 8.63964 0.769333 8.70364 0.9245L10.4634 5.09575L14.9959 5.49175C15.1716 5.51875 15.3101 5.57617 15.4114 5.664C15.5127 5.75183 15.5903 5.86492 15.6441 6.00325C15.698 6.14175 15.7072 6.28442 15.6719 6.43125C15.6367 6.57808 15.555 6.70725 15.4266 6.81875L11.9921 9.79175L13.0249 14.209C13.0684 14.3745 13.0581 14.5255 12.9941 14.662C12.93 14.7985 12.8389 14.9091 12.7209 14.9938C12.6031 15.0782 12.4714 15.1273 12.3259 15.1407C12.1804 15.1543 12.0351 15.1187 11.8901 15.034L7.99989 12.688Z" fill="#C7C7C7"/>
</svg>
