<svg width="20" height="17" viewBox="0 0 20 17" fill="none" xmlns="http://www.w3.org/2000/svg">
<path d="M9.9905 16.7094C9.77633 16.7094 9.56125 16.671 9.34525 16.5942C9.12925 16.5172 8.93917 16.3967 8.775 16.2327L7.3385 14.9269C5.5655 13.3102 3.9825 11.7221 2.5895 10.1624C1.1965 8.60274 0.5 6.9319 0.5 5.1499C0.5 3.73074 0.9785 2.54257 1.9355 1.5854C2.89267 0.628402 4.08083 0.149902 5.5 0.149902C6.30633 0.149902 7.10283 0.335819 7.8895 0.707652C8.676 1.07949 9.3795 1.68332 10 2.51915C10.6205 1.68332 11.324 1.07949 12.1105 0.707652C12.8972 0.335819 13.6937 0.149902 14.5 0.149902C15.9192 0.149902 17.1073 0.628402 18.0645 1.5854C19.0215 2.54257 19.5 3.73074 19.5 5.1499C19.5 6.95124 18.7917 8.64065 17.375 10.2182C15.9583 11.7957 14.3788 13.3703 12.6365 14.9422L11.2153 16.2327C11.0512 16.3967 10.8597 16.5172 10.6405 16.5942C10.4212 16.671 10.2045 16.7094 9.9905 16.7094ZM9.28075 4.0384C8.73975 3.21407 8.17017 2.6099 7.572 2.2259C6.974 1.8419 6.28333 1.6499 5.5 1.6499C4.5 1.6499 3.66667 1.98324 3 2.6499C2.33333 3.31657 2 4.1499 2 5.1499C2 5.9524 2.25867 6.79149 2.776 7.66715C3.29333 8.54282 3.94267 9.41332 4.724 10.2787C5.50533 11.1442 6.35183 11.9897 7.2635 12.8152C8.175 13.6408 9.01983 14.4082 9.798 15.1172C9.85567 15.1685 9.923 15.1942 10 15.1942C10.077 15.1942 10.1443 15.1685 10.202 15.1172C10.9802 14.4082 11.825 13.6408 12.7365 12.8152C13.6482 11.9897 14.4947 11.1442 15.276 10.2787C16.0573 9.41332 16.7067 8.54282 17.224 7.66715C17.7413 6.79149 18 5.9524 18 5.1499C18 4.1499 17.6667 3.31657 17 2.6499C16.3333 1.98324 15.5 1.6499 14.5 1.6499C13.7167 1.6499 13.026 1.8419 12.428 2.2259C11.8298 2.6099 11.2603 3.21407 10.7192 4.0384C10.6346 4.16657 10.5282 4.26274 10.4 4.3269C10.2718 4.3909 10.1385 4.4229 10 4.4229C9.8615 4.4229 9.72817 4.3909 9.6 4.3269C9.47183 4.26274 9.36542 4.16657 9.28075 4.0384Z" fill="#F66A6A"/>
</svg>
