<svg width="78" height="48" viewBox="0 0 78 48" fill="none" xmlns="http://www.w3.org/2000/svg">
<g id="logo">
<g id="Vector">
<path d="M50.1926 9.46864H51.9714C53.9418 9.46864 54.927 8.61117 54.927 6.89624C54.927 5.1813 53.9418 4.32383 51.9714 4.32383H50.1926V9.46864ZM50.1926 17.9521C50.1926 19.4333 48.9919 20.634 47.5108 20.634C46.0296 20.634 44.8289 19.4333 44.8289 17.9521V3.42075C44.8289 1.53152 46.3604 0 48.2497 0H53.3671C55.6841 0 57.4538 0.602052 58.6761 1.80616C59.9167 3.01026 60.537 4.70695 60.537 6.89624C60.537 9.08552 59.9167 10.7822 58.6761 11.9863C57.4538 13.1904 55.6841 13.7925 53.3671 13.7925H50.1926V17.9521Z" fill="black"/>
<path d="M67.2964 36.8347H69.0752C71.0456 36.8347 72.0307 35.9772 72.0307 34.2623C72.0307 32.5473 71.0456 31.6898 69.0752 31.6898H67.2964V36.8347ZM67.2964 45.3181C67.2964 46.7993 66.0957 48 64.6145 48C63.1334 48 61.9327 46.7993 61.9327 45.3181V30.7868C61.9327 28.8975 63.4642 27.366 65.3534 27.366H70.4709C72.7879 27.366 74.5575 27.9681 75.7799 29.1722C77.0205 30.3763 77.6408 32.073 77.6408 34.2623C77.6408 36.4515 77.0205 38.1482 75.7799 39.3523C74.5575 40.5564 72.7879 41.1585 70.4709 41.1585H67.2964V45.3181Z" fill="black"/>
<path d="M22.2832 9.22235H23.2958C24.3539 9.22235 25.1658 9.00342 25.7314 8.56556C26.2969 8.12771 26.5797 7.49829 26.5797 6.67731C26.5797 5.85633 26.2969 5.22691 25.7314 4.78905C25.1658 4.3512 24.3539 4.13227 23.2958 4.13227C22.7366 4.13227 22.2832 4.5856 22.2832 5.14481V9.22235ZM34.078 20.634H27.4007L22.2832 12.6978V20.634H16.9195V2.2805C16.9195 1.02101 17.9405 0 19.2 0H25.2661C26.4155 0 27.4189 0.173318 28.2764 0.519954C29.1339 0.848347 29.8363 1.30445 30.3836 1.88825C30.9491 2.47206 31.3688 3.14709 31.6424 3.91334C31.9343 4.67959 32.0803 5.50057 32.0803 6.37628C32.0803 7.94527 31.6971 9.22235 30.9309 10.2075C30.1829 11.1745 29.07 11.8312 27.5922 12.1779L34.078 20.634Z" fill="black"/>
<path d="M39.387 36.5884H40.3995C41.4577 36.5884 42.2695 36.3694 42.8351 35.9316C43.4007 35.4937 43.6835 34.8643 43.6835 34.0433C43.6835 33.2223 43.4007 32.5929 42.8351 32.1551C42.2695 31.7172 41.4577 31.4983 40.3995 31.4983C39.8403 31.4983 39.387 31.9516 39.387 32.5108V36.5884ZM51.1817 48H44.5044L39.387 40.0639V48H34.0233V29.6465C34.0233 28.387 35.0443 27.366 36.3038 27.366H42.3699C43.5193 27.366 44.5227 27.5393 45.3801 27.886C46.2376 28.2144 46.94 28.6705 47.4873 29.2543C48.0529 29.8381 48.4725 30.5131 48.7462 31.2794C49.0381 32.0456 49.184 32.8666 49.184 33.7423C49.184 35.3113 48.8009 36.5884 48.0347 37.5735C47.2867 38.5405 46.1738 39.1973 44.696 39.5439L51.1817 48Z" fill="black"/>
<path d="M10.1288 4.88027V17.9521C10.1288 19.4333 8.92809 20.634 7.44693 20.634C5.96577 20.634 4.76506 19.4333 4.76506 17.9521V4.88027H2.79927C1.45162 4.88027 0.359131 3.78779 0.359131 2.44014C0.359131 1.09249 1.45162 0 2.79927 0H12.0946C13.4422 0 14.5347 1.09249 14.5347 2.44014C14.5347 3.78779 13.4422 4.88027 12.0946 4.88027H10.1288Z" fill="black"/>
<path d="M39.6978 6.84151C41.2721 6.84151 42.5484 8.11777 42.5484 9.69213V17.6739C42.5484 19.2482 41.2721 20.5245 39.6978 20.5245C38.1234 20.5245 36.8472 19.2482 36.8472 17.6739V9.69213C36.8472 8.11777 38.1234 6.84151 39.6978 6.84151Z" fill="#2974E5"/>
<path d="M42.5484 2.85063C42.5484 4.42498 41.2721 5.70125 39.6978 5.70125C38.1234 5.70125 36.8472 4.42498 36.8472 2.85063C36.8472 1.27627 38.1234 0 39.6978 0C41.2721 0 42.5484 1.27627 42.5484 2.85063Z" fill="#2974E5"/>
<path d="M27.2326 32.2463V45.3181C27.2326 46.7993 26.0318 48 24.5507 48C23.0695 48 21.8688 46.7993 21.8688 45.3181V32.2463H19.903C18.5554 32.2463 17.4629 31.1538 17.4629 29.8062C17.4629 28.4585 18.5554 27.366 19.903 27.366H29.1984C30.546 27.366 31.6385 28.4585 31.6385 29.8062C31.6385 31.1538 30.546 32.2463 29.1984 32.2463H27.2326Z" fill="black"/>
<path d="M56.8015 34.2075C58.3759 34.2075 59.6522 35.4838 59.6522 37.0582V45.0399C59.6522 46.6143 58.3759 47.8905 56.8015 47.8905C55.2272 47.8905 53.9509 46.6143 53.9509 45.0399V37.0582C53.9509 35.4838 55.2272 34.2075 56.8015 34.2075Z" fill="#2974E5"/>
<path d="M59.6522 30.2166C59.6522 31.791 58.3759 33.0673 56.8015 33.0673C55.2272 33.0673 53.9509 31.791 53.9509 30.2166C53.9509 28.6423 55.2272 27.366 56.8015 27.366C58.3759 27.366 59.6522 28.6423 59.6522 30.2166Z" fill="#2974E5"/>
</g>
</g>
</svg>
