<svg width="41" height="40" viewBox="0 0 41 40" fill="none" xmlns="http://www.w3.org/2000/svg">
<path d="M8.45005 34.2951C7.747 34.2951 7.14922 34.0488 6.65672 33.5563C6.16422 33.0636 5.91797 32.4658 5.91797 31.763V14.3268C5.91797 13.624 6.16422 13.0263 6.65672 12.5338C7.14922 12.0413 7.747 11.7951 8.45005 11.7951H12.5846V7.66009C12.5846 6.95731 12.8309 6.35967 13.3234 5.86717C13.8159 5.37467 14.4137 5.12842 15.1167 5.12842H25.8859C26.5889 5.12842 27.1867 5.37467 27.6792 5.86717C28.1717 6.35967 28.418 6.95731 28.418 7.66009V18.4618H32.5525C33.2556 18.4618 33.8534 18.708 34.3459 19.2005C34.8384 19.693 35.0846 20.2906 35.0846 20.9934V31.763C35.0846 32.4658 34.8384 33.0636 34.3459 33.5563C33.8534 34.0488 33.2556 34.2951 32.5525 34.2951H22.5846V27.6284H18.418V34.2951H8.45005ZM8.41797 31.7951H12.5846V27.6284H8.41797V31.7951ZM8.41797 25.1284H12.5846V20.9618H8.41797V25.1284ZM8.41797 18.4618H12.5846V14.2951H8.41797V18.4618ZM15.0846 25.1284H19.2513V20.9618H15.0846V25.1284ZM15.0846 18.4618H19.2513V14.2951H15.0846V18.4618ZM15.0846 11.7951H19.2513V7.62842H15.0846V11.7951ZM21.7513 25.1284H25.918V20.9618H21.7513V25.1284ZM21.7513 18.4618H25.918V14.2951H21.7513V18.4618ZM21.7513 11.7951H25.918V7.62842H21.7513V11.7951ZM28.418 31.7951H32.5846V27.6284H28.418V31.7951ZM28.418 25.1284H32.5846V20.9618H28.418V25.1284Z" fill="#333333"/>
</svg>
