<svg width="41" height="40" viewBox="0 0 41 40" fill="none" xmlns="http://www.w3.org/2000/svg">
<path d="M4.66797 34.7439V30.1605C4.66797 29.8314 4.71825 29.5161 4.8188 29.2147C4.91908 28.9136 5.06964 28.6262 5.27047 28.3526L18.9467 9.93928L17.3026 7.7247C17.1959 7.58359 17.1227 7.43289 17.083 7.27261C17.0435 7.11234 17.0351 6.9547 17.0576 6.7997C17.0801 6.64498 17.1334 6.49442 17.2176 6.34803C17.302 6.20164 17.4148 6.07498 17.5559 5.96803C17.8487 5.75442 18.1585 5.67011 18.4855 5.71511C18.8124 5.75984 19.0827 5.92859 19.2963 6.22137L20.5013 7.85262L21.7063 6.22137C21.9199 5.92859 22.193 5.75984 22.5255 5.71511C22.8577 5.67011 23.1702 5.75442 23.463 5.96803C23.7555 6.18192 23.9242 6.45498 23.9692 6.7872C24.0139 7.11942 23.9295 7.43192 23.7159 7.7247L22.0717 9.93928L35.7321 28.3526C35.933 28.6262 36.0835 28.9136 36.1838 29.2147C36.2844 29.5161 36.3346 29.8314 36.3346 30.1605V34.7439C36.3346 35.1733 36.1909 35.5316 35.9034 35.8189C35.6162 36.1064 35.2577 36.2501 34.828 36.2501H6.17464C5.74491 36.2501 5.38644 36.1064 5.09922 35.8189C4.81172 35.5316 4.66797 35.1733 4.66797 34.7439ZM20.5013 12.0418L7.16797 29.9843V33.7501H12.3763L19.2705 24.1122C19.5719 23.6828 19.9821 23.468 20.5013 23.468C21.0205 23.468 21.4307 23.6828 21.7321 24.1122L28.6263 33.7501H33.8346V29.9843L20.5013 12.0418ZM15.4501 33.7501H25.5525L20.5013 26.6955L15.4501 33.7501ZM21.748 24.1122L28.6263 33.7501L21.7321 24.1122C21.4307 23.6828 21.0205 23.468 20.5013 23.468C19.9821 23.468 19.5719 23.6828 19.2705 24.1122C19.5719 23.6828 19.9848 23.468 20.5092 23.468C21.0339 23.468 21.4469 23.6828 21.748 24.1122Z" fill="#333333"/>
</svg>
