<svg width="41" height="40" viewBox="0 0 41 40" fill="none" xmlns="http://www.w3.org/2000/svg">
<path d="M20.5 35.8334C17.0128 35.8334 14.0576 34.6218 11.6346 32.1988C9.21153 29.7757 8 26.8206 8 23.3333C8 20.515 8.81306 17.7763 10.4392 15.1171C12.0653 12.4579 14.295 10.1197 17.1283 8.10252C17.6644 7.70724 18.2269 7.66779 18.8158 7.98418C19.4044 8.30029 19.6987 8.78529 19.6987 9.43918V10.8525C19.6987 11.8717 20.1132 12.7622 20.9421 13.5242C21.7712 14.2858 22.7489 14.6667 23.875 14.6667C24.3686 14.6667 24.8467 14.5706 25.3092 14.3783C25.7719 14.1861 26.1967 13.9115 26.5833 13.5546C26.8056 13.3302 27.0689 13.1993 27.3733 13.1621C27.6778 13.1246 27.9614 13.2063 28.2242 13.4071C29.7178 14.5824 30.8872 16.0433 31.7325 17.79C32.5775 19.537 33 21.3847 33 23.3333C33 26.8206 31.7885 29.7757 29.3654 32.1988C26.9424 34.6218 23.9872 35.8334 20.5 35.8334ZM10.5 23.3333C10.5 25.0128 10.9013 26.5758 11.7038 28.0225C12.506 29.4692 13.609 30.6359 15.0129 31.5225C14.889 31.2875 14.8003 31.0529 14.7467 30.8188C14.6933 30.5849 14.6667 30.3397 14.6667 30.0834C14.6667 29.312 14.8147 28.5854 15.1108 27.9038C15.4067 27.2221 15.8313 26.6046 16.3846 26.0513L20.5 22.0033L24.6313 26.0513C25.1849 26.6046 25.6069 27.2221 25.8975 27.9038C26.1881 28.5854 26.3333 29.312 26.3333 30.0834C26.3333 30.3397 26.3067 30.5849 26.2533 30.8188C26.1997 31.0529 26.111 31.2875 25.9871 31.5225C27.391 30.6359 28.494 29.4692 29.2962 28.0225C30.0987 26.5758 30.5 25.0128 30.5 23.3333C30.5 21.9445 30.2431 20.632 29.7292 19.3958C29.2153 18.1597 28.4722 17.0556 27.5 16.0833C26.9444 16.4445 26.3611 16.7153 25.75 16.8958C25.1389 17.0764 24.5139 17.1667 23.875 17.1667C22.1422 17.1667 20.6439 16.5972 19.38 15.4583C18.1161 14.3195 17.3922 12.906 17.2083 11.2179C15.0417 13.0407 13.3819 14.9947 12.2292 17.08C11.0764 19.1656 10.5 21.25 10.5 23.3333ZM20.5 25.5L18.125 27.8333C17.8194 28.1389 17.5833 28.4861 17.4167 28.875C17.25 29.2639 17.1667 29.6667 17.1667 30.0834C17.1667 30.9722 17.4931 31.7361 18.1458 32.375C18.7986 33.0139 19.5833 33.3334 20.5 33.3334C21.4167 33.3334 22.2014 33.0139 22.8542 32.375C23.5069 31.7361 23.8333 30.9722 23.8333 30.0834C23.8333 29.6389 23.75 29.2292 23.5833 28.8542C23.4167 28.4792 23.1806 28.1389 22.875 27.8333L20.5 25.5Z" fill="#1C1C1C"/>
</svg>
