<svg width="40" height="40" viewBox="0 0 40 40" fill="none" xmlns="http://www.w3.org/2000/svg">
<path d="M6.9711 36.9998C6.69565 36.9998 6.46499 36.9066 6.27912 36.7203C6.09304 36.5342 6 36.3036 6 36.0283V19.8379C6 19.5626 6.09315 19.332 6.27945 19.1459C6.46575 18.9596 6.69651 18.8664 6.97175 18.8664C7.24721 18.8664 7.47787 18.9596 7.66373 19.1459C7.84982 19.332 7.94286 19.5626 7.94286 19.8379V31.1712H18.6286V23.3998C18.6286 22.87 18.8199 22.4138 19.2027 22.031C19.5854 21.6483 20.0417 21.4569 20.5714 21.4569H28.6667C29.9133 21.4569 30.9805 21.9008 31.8682 22.7887C32.7561 23.6764 33.2 24.7436 33.2 25.9902V36.0283C33.2 36.3036 33.1069 36.5342 32.9206 36.7203C32.7343 36.9066 32.5035 36.9998 32.2282 36.9998C31.9528 36.9998 31.7221 36.9066 31.5363 36.7203C31.3502 36.5342 31.2571 36.3036 31.2571 36.0283V33.114H7.94286V36.0283C7.94286 36.3036 7.84971 36.5342 7.66341 36.7203C7.47711 36.9066 7.24634 36.9998 6.9711 36.9998ZM13.1222 29.3031C12.2017 29.3031 11.4197 28.9808 10.7762 28.3362C10.1327 27.6919 9.81091 26.9093 9.81091 25.9886C9.81091 25.0681 10.1332 24.2861 10.7778 23.6426C11.4222 22.9991 12.2047 22.6773 13.1254 22.6773C14.0459 22.6773 14.8279 22.9996 15.4714 23.6442C16.1149 24.2886 16.4367 25.0712 16.4367 25.9919C16.4367 26.9123 16.1144 27.6943 15.4698 28.3379C14.8254 28.9814 14.0429 29.3031 13.1222 29.3031ZM20.5714 31.1712H31.2571V25.9902C31.2571 25.2779 31.0035 24.668 30.4962 24.1607C29.9889 23.6534 29.379 23.3998 28.6667 23.3998H20.5714V31.1712ZM13.1238 27.3603C13.5074 27.3603 13.8317 27.2278 14.0965 26.963C14.3614 26.6981 14.4938 26.3738 14.4938 25.9902C14.4938 25.6066 14.3614 25.2824 14.0965 25.0175C13.8317 24.7526 13.5074 24.6202 13.1238 24.6202C12.7402 24.6202 12.416 24.7526 12.1511 25.0175C11.8862 25.2824 11.7538 25.6066 11.7538 25.9902C11.7538 26.3738 11.8862 26.6981 12.1511 26.963C12.416 27.2278 12.7402 27.3603 13.1238 27.3603Z" fill="#333333"/>
<path d="M22.787 10.4842L25.5641 8.09762L25.8696 8.12111C26.0375 8.14109 26.1683 8.2109 26.2621 8.33055C26.3558 8.45019 26.4027 8.57983 26.4027 8.71946C26.4027 8.79926 26.3878 8.8776 26.358 8.95448C26.3282 9.03149 26.2736 9.09882 26.1942 9.15648L24.1498 10.938L24.7638 13.6109C24.7716 13.6306 24.7754 13.6529 24.7754 13.6777V13.7445C24.7754 13.9129 24.7175 14.0531 24.6015 14.1651C24.4854 14.2773 24.3476 14.3333 24.1882 14.3333C24.1383 14.3333 24.0859 14.3275 24.031 14.3158C23.9762 14.3041 23.9242 14.2815 23.8752 14.2482L23.6286 14.0954L22.787 10.4842ZM21.1613 5.44533L20.3888 3.63291L20.4946 3.37459C20.5431 3.25469 20.6184 3.16228 20.7204 3.09737C20.8224 3.03246 20.9284 3 21.0383 3C21.1483 3 21.2557 3.03087 21.3606 3.0926C21.4656 3.1542 21.5426 3.24425 21.5916 3.36275L22.5241 5.57306L21.1613 5.44533ZM16.1018 12.4065L18.5075 10.9555L20.9131 12.4256L20.283 9.67636L22.4023 7.84351L19.6148 7.59531L18.5075 4.99876L17.4001 7.57621L14.6126 7.82441L16.7319 9.67636L16.1018 12.4065ZM14.7287 13.2143L15.4586 10.0905L13.0339 7.98899C12.9467 7.91746 12.886 7.83651 12.8518 7.74614C12.8175 7.65577 12.8004 7.56533 12.8004 7.47484C12.8004 7.31293 12.856 7.16255 12.9671 7.02369C13.0782 6.88495 13.2322 6.80527 13.4289 6.78465L16.6297 6.50361L17.8671 3.56112C17.9246 3.42302 18.0138 3.31948 18.1346 3.25049C18.2554 3.18138 18.379 3.14682 18.5056 3.14682C18.6322 3.14682 18.7564 3.18138 18.878 3.25049C18.9999 3.31948 19.0898 3.42302 19.1478 3.56112L20.3852 6.50361L23.586 6.78465C23.7828 6.80527 23.9367 6.88489 24.0478 7.02349C24.1589 7.16223 24.2145 7.31249 24.2145 7.47426C24.2145 7.56667 24.1974 7.65768 24.1631 7.74728C24.1289 7.83689 24.0682 7.91746 23.981 7.98899L21.5563 10.0905L22.2887 13.2145C22.2997 13.2476 22.3053 13.2989 22.3053 13.3682C22.3053 13.5647 22.2364 13.7294 22.0987 13.8623C21.961 13.9952 21.8004 14.0617 21.6168 14.0617C21.5823 14.0617 21.4603 14.0259 21.2508 13.9544L18.5075 12.3023L15.7641 13.9544C15.7053 13.9877 15.6443 14.0139 15.581 14.033C15.5177 14.0521 15.4574 14.0617 15.3998 14.0617C15.1927 14.0617 15.0144 13.978 14.8649 13.8106C14.7153 13.6431 14.6699 13.4443 14.7287 13.2143Z" fill="#333333"/>
</svg>
