<svg width="41" height="40" viewBox="0 0 41 40" fill="none" xmlns="http://www.w3.org/2000/svg">
<path d="M20.5 29.1666C19.3911 29.1666 18.5706 29.4443 18.0383 29.9999C17.5064 30.5555 16.4797 30.8332 14.9583 30.8332C13.4819 30.8332 12.4499 30.5555 11.8621 29.9999C11.2746 29.4443 10.4594 29.1666 9.41667 29.1666C8.60694 29.1666 7.95528 29.3674 7.46167 29.7691C6.96806 30.1707 6.31944 30.472 5.51583 30.6728C5.17833 30.7625 4.88306 30.6893 4.63 30.4532C4.37667 30.2171 4.25 29.9217 4.25 29.567C4.25 29.2017 4.37667 28.8856 4.63 28.6186C4.88306 28.3514 5.16986 28.1388 5.49042 27.9807C6.02681 27.7199 6.55083 27.4357 7.0625 27.1282C7.57417 26.8205 8.345 26.6666 9.375 26.6666C10.8792 26.6666 11.9278 26.9443 12.5208 27.4999C13.1139 28.0555 13.9125 28.3332 14.9167 28.3332C16.0042 28.3332 16.8317 28.0555 17.3992 27.4999C17.9664 26.9443 19 26.6666 20.5 26.6666C22 26.6666 23.0336 26.9443 23.6008 27.4999C24.1683 28.0555 24.9958 28.3332 26.0833 28.3332C27.0875 28.3332 27.8861 28.0555 28.4792 27.4999C29.0722 26.9443 30.1208 26.6666 31.625 26.6666C32.6869 26.6666 33.4631 26.8177 33.9533 27.1199C34.4439 27.4224 34.9626 27.7093 35.5096 27.9807C35.8301 28.1388 36.1169 28.3514 36.37 28.6186C36.6233 28.8856 36.75 29.2017 36.75 29.567C36.75 29.9217 36.6233 30.2171 36.37 30.4532C36.1169 30.6893 35.8217 30.7625 35.4842 30.6728C34.6806 30.472 34.0267 30.1707 33.5225 29.7691C33.0181 29.3674 32.3717 29.1666 31.5833 29.1666C30.5406 29.1666 29.7254 29.4443 29.1379 29.9999C28.5501 30.5555 27.5181 30.8332 26.0417 30.8332C24.5203 30.8332 23.4936 30.5555 22.9617 29.9999C22.4294 29.4443 21.6089 29.1666 20.5 29.1666ZM10.7246 24.1666C10.1112 24.1666 9.52306 24.0549 8.96 23.8316C8.39694 23.6082 7.90069 23.2766 7.47125 22.8366L6.34625 21.6953C6.11542 21.4645 5.99847 21.1786 5.99542 20.8378C5.99208 20.4973 6.11431 20.203 6.36208 19.9549C6.59292 19.7243 6.87611 19.6048 7.21167 19.5961C7.54694 19.5875 7.83861 19.6986 8.08667 19.9295L9.2275 21.0545C9.42639 21.2531 9.65403 21.4048 9.91042 21.5095C10.1668 21.6142 10.4382 21.6666 10.7246 21.6666H13V15.4324L11.7883 16.3395C11.4958 16.5425 11.1903 16.62 10.8717 16.572C10.5533 16.5239 10.2874 16.3535 10.0738 16.0607C9.86014 15.768 9.77306 15.4624 9.8125 15.1441C9.85222 14.8257 10.0183 14.5598 10.3108 14.3461L18.7179 8.15698C18.9915 7.95615 19.2747 7.80823 19.5675 7.71323C19.86 7.61795 20.1708 7.57031 20.5 7.57031C20.8292 7.57031 21.14 7.61795 21.4325 7.71323C21.7253 7.80823 22.0085 7.95615 22.2821 8.15698L30.6729 14.3299C30.9657 14.5438 31.1361 14.8125 31.1842 15.1361C31.2322 15.4598 31.1494 15.768 30.9358 16.0607C30.7222 16.3535 30.4476 16.5266 30.1121 16.5799C29.7765 16.6335 29.4625 16.5534 29.17 16.3395L28 15.4741V21.6666H30.2754C30.5618 21.6666 30.8332 21.6142 31.0896 21.5095C31.346 21.4048 31.5736 21.2531 31.7725 21.0545L32.9133 19.9295C33.1442 19.6986 33.43 19.5832 33.7708 19.5832C34.1117 19.5832 34.406 19.7071 34.6538 19.9549C34.8846 20.1857 35 20.4759 35 20.8253C35 21.1745 34.8846 21.4645 34.6538 21.6953L33.5288 22.8203C33.0885 23.2606 32.5896 23.595 32.0321 23.8236C31.4743 24.0523 30.8888 24.1666 30.2754 24.1666H10.7246ZM15.5 21.6666H19.25V19.5832C19.25 19.2285 19.3697 18.9316 19.6092 18.6924C19.8483 18.453 20.1453 18.3332 20.5 18.3332C20.8547 18.3332 21.1517 18.453 21.3908 18.6924C21.6303 18.9316 21.75 19.2285 21.75 19.5832V21.6666H25.5V13.6249L20.8046 10.1666C20.719 10.1024 20.6175 10.0703 20.5 10.0703C20.3825 10.0703 20.281 10.1024 20.1954 10.1666L15.5 13.6091V21.6666Z" fill="#1C1C1C"/>
</svg>
