<svg width="10" height="20" viewBox="0 0 10 20" fill="none" xmlns="http://www.w3.org/2000/svg">
<path d="M2.09868 10L9.63143 2.46725C9.83009 2.26858 9.92685 2.03208 9.92168 1.75775C9.91651 1.48342 9.81459 1.24683 9.61593 1.048C9.41726 0.849333 9.18076 0.75 8.90643 0.75C8.63209 0.75 8.39551 0.849333 8.19668 1.048L0.540929 8.71925C0.360263 8.90008 0.226346 9.10267 0.139179 9.327C0.0518456 9.55133 0.00817966 9.77567 0.00817966 10C0.00817966 10.2243 0.0518456 10.4487 0.139179 10.673C0.226346 10.8973 0.360263 11.0999 0.540929 11.2808L8.21218 18.952C8.41085 19.1507 8.64476 19.2474 8.91393 19.2423C9.18326 19.2371 9.41726 19.1352 9.61593 18.9365C9.81459 18.7378 9.91393 18.5013 9.91393 18.227C9.91393 17.9527 9.81459 17.7161 9.61593 17.5173L2.09868 10Z" fill="#333333"/>
</svg>
