<svg width="80" height="56" viewBox="0 0 80 56" fill="none" xmlns="http://www.w3.org/2000/svg">
<path d="M18.5826 2.21463C18.2964 2.50079 18.2964 2.96476 18.5826 3.25093L20.1371 4.80544L18.5825 6.36004C18.2963 6.64621 18.2963 7.11018 18.5825 7.39635C18.8687 7.68252 19.3326 7.68252 19.6188 7.39635L21.1734 5.84175L22.7278 7.39616C23.014 7.68233 23.478 7.68233 23.7641 7.39616C24.0503 7.10999 24.0503 6.64602 23.7641 6.35985L22.2097 4.80544L23.764 3.25113C24.0502 2.96496 24.0502 2.50099 23.764 2.21482C23.4779 1.92865 23.0139 1.92865 22.7277 2.21482L21.1734 3.76914L19.6189 2.21463C19.3327 1.92846 18.8688 1.92846 18.5826 2.21463Z" fill="black"/>
<path d="M72.5693 14.1781C72.3904 14.357 72.3904 14.6469 72.5693 14.8258L73.5408 15.7973L72.5694 16.7688C72.3905 16.9476 72.3905 17.2376 72.5694 17.4165C72.7482 17.5953 73.0382 17.5953 73.2171 17.4165L74.1885 16.445L75.16 17.4166C75.3389 17.5954 75.6289 17.5954 75.8077 17.4166C75.9866 17.2377 75.9866 16.9477 75.8077 16.7689L74.8362 15.7973L75.8078 14.8257C75.9867 14.6468 75.9867 14.3569 75.8078 14.178C75.629 13.9991 75.339 13.9991 75.1601 14.178L74.1885 15.1496L73.217 14.1781C73.0381 13.9992 72.7481 13.9992 72.5693 14.1781Z" fill="black"/>
<path d="M13.1099 48.7723C12.8211 48.7723 12.5871 49.0063 12.5871 49.2951V50.8633H11.0186C10.7299 50.8633 10.4958 51.0974 10.4958 51.3861C10.4958 51.6748 10.7299 51.9089 11.0186 51.9089H12.5871V53.4772C12.5871 53.7659 12.8211 54 13.1099 54C13.3986 54 13.6326 53.7659 13.6326 53.4772V51.9089H15.2008C15.4895 51.9089 15.7236 51.6748 15.7236 51.3861C15.7236 51.0974 15.4895 50.8633 15.2008 50.8633H13.6326V49.2951C13.6326 49.0063 13.3986 48.7723 13.1099 48.7723Z" fill="black"/>
<path d="M7.74792 21.7511C7.74792 22.5099 7.13278 23.125 6.37396 23.125C5.61514 23.125 5 22.5099 5 21.7511C5 20.9922 5.61514 20.3771 6.37396 20.3771C7.13278 20.3771 7.74792 20.9922 7.74792 21.7511Z" fill="black"/>
<path d="M75.53 42.8185C75.53 43.5773 74.9149 44.1924 74.156 44.1924C73.3972 44.1924 72.7821 43.5773 72.7821 42.8185C72.7821 42.0596 73.3972 41.4445 74.156 41.4445C74.9149 41.4445 75.53 42.0596 75.53 42.8185Z" fill="black"/>
<path d="M25.9031 49.3925C24.6851 49.3925 23.6446 48.9612 22.7815 48.0985C21.9189 47.2355 21.4875 46.1949 21.4875 44.9769V12.2839C21.4875 11.0659 21.9189 10.0253 22.7815 9.16229C23.6446 8.29965 24.6851 7.86832 25.9031 7.86832H58.5961C59.8141 7.86832 60.8547 8.29965 61.7177 9.16229C62.5804 10.0253 63.0117 11.0659 63.0117 12.2839V18.9308H59.3478V12.2839C59.3478 12.0645 59.2774 11.8844 59.1365 11.7435C58.9957 11.6026 58.8155 11.5322 58.5961 11.5322H25.9031C25.6837 11.5322 25.5036 11.6026 25.3627 11.7435C25.2219 11.8844 25.1514 12.0645 25.1514 12.2839V44.9769C25.1514 45.1963 25.2219 45.3764 25.3627 45.5173C25.5036 45.6582 25.6837 45.7286 25.9031 45.7286H58.5961C58.8155 45.7286 58.9957 45.6582 59.1365 45.5173C59.2774 45.3764 59.3478 45.1963 59.3478 44.9769V38.33H63.0117V44.9769C63.0117 46.1949 62.5804 47.2355 61.7177 48.0985C60.8547 48.9612 59.8141 49.3925 58.5961 49.3925H25.9031ZM45.4439 39.6221C44.2259 39.6221 43.1853 39.1908 42.3223 38.3281C41.4596 37.4651 41.0283 36.4245 41.0283 35.2065V22.0543C41.0283 20.8363 41.4596 19.7957 42.3223 18.9327C43.1853 18.07 44.2259 17.6387 45.4439 17.6387H61.0387C62.2567 17.6387 63.2973 18.07 64.1603 18.9327C65.023 19.7957 65.4543 20.8363 65.4543 22.0543V35.2065C65.4543 36.4245 65.023 37.4651 64.1603 38.3281C63.2973 39.1908 62.2567 39.6221 61.0387 39.6221H45.4439ZM61.0387 35.9582C61.2581 35.9582 61.4383 35.8878 61.5791 35.7469C61.72 35.6061 61.7904 35.4259 61.7904 35.2065V22.0543C61.7904 21.8349 61.72 21.6548 61.5791 21.5139C61.4383 21.373 61.2581 21.3026 61.0387 21.3026H45.4439C45.2245 21.3026 45.0444 21.373 44.9035 21.5139C44.7626 21.6548 44.6922 21.8349 44.6922 22.0543V35.2065C44.6922 35.4259 44.7626 35.6061 44.9035 35.7469C45.0444 35.8878 45.2245 35.9582 45.4439 35.9582H61.0387ZM52.02 32.2943C53.0378 32.2943 53.9028 31.9381 54.6153 31.2257C55.3277 30.5132 55.6839 29.6482 55.6839 28.6304C55.6839 27.6127 55.3277 26.7476 54.6153 26.0351C53.9028 25.3227 53.0378 24.9665 52.02 24.9665C51.0023 24.9665 50.1372 25.3227 49.4247 26.0351C48.7123 26.7476 48.3561 27.6127 48.3561 28.6304C48.3561 29.6482 48.7123 30.5132 49.4247 31.2257C50.1372 31.9381 51.0023 32.2943 52.02 32.2943Z" fill="#2974E5"/>
</svg>
