<svg width="40" height="40" viewBox="0 0 40 40" fill="none" xmlns="http://www.w3.org/2000/svg">
<path d="M19.9981 4.94531C20.3164 4.94531 20.6332 4.99295 20.9485 5.08823C21.2635 5.18323 21.5578 5.33115 21.8314 5.53198L36.5431 16.6216C36.8186 16.8355 36.9761 17.1057 37.0156 17.4324C37.055 17.7593 36.9679 18.0692 36.7543 18.362C36.5407 18.6548 36.2704 18.8209 35.9435 18.8603C35.6166 18.9 35.3067 18.8098 35.0139 18.5895L19.9981 7.29156L9.99808 14.8461V29.487C9.99808 29.6367 10.0461 29.7596 10.1422 29.8557C10.2384 29.9518 10.3613 29.9999 10.511 29.9999H15.1422C15.497 29.9999 15.7941 30.1196 16.0335 30.3591C16.2727 30.5982 16.3922 30.8952 16.3922 31.2499C16.3922 31.6046 16.2727 31.9016 16.0335 32.1407C15.7941 32.3802 15.497 32.4999 15.1422 32.4999H10.511C9.67989 32.4999 8.96989 32.2056 8.381 31.617C7.79239 31.0281 7.49808 30.3181 7.49808 29.487V16.7307L4.99808 18.6153C4.72253 18.8184 4.41697 18.9 4.08142 18.8603C3.74586 18.8209 3.47128 18.6548 3.25767 18.362C3.04405 18.0864 2.96128 17.7852 3.00933 17.4582C3.05739 17.1313 3.21919 16.861 3.49475 16.6474L18.1647 5.53198C18.4384 5.33115 18.73 5.18323 19.0397 5.08823C19.3495 4.99295 19.6689 4.94531 19.9981 4.94531ZM29.1647 36.7786C27.9553 37.6164 26.7 37.9941 25.3989 37.9116C24.0975 37.8293 22.9628 37.3043 21.9947 36.3366C21.027 35.3685 20.502 34.2311 20.4197 32.9245C20.3372 31.6178 20.7149 30.3652 21.5527 29.1666C20.7149 27.9571 20.3372 26.7018 20.4197 25.4007C20.502 24.0993 21.027 22.9646 21.9947 21.9966C22.9628 21.0288 24.1002 20.5038 25.4068 20.4216C26.7135 20.3391 27.9661 20.7167 29.1647 21.5545C30.3742 20.7167 31.6295 20.3391 32.9306 20.4216C34.232 20.5038 35.3667 21.0288 36.3347 21.9966C37.3025 22.9646 37.8275 24.102 37.9097 25.4086C37.9922 26.7153 37.6146 27.968 36.7768 29.1666C37.6146 30.376 37.9922 31.6313 37.9097 32.9324C37.8275 34.2338 37.3025 35.3685 36.3347 36.3366C35.3667 37.3043 34.2293 37.8293 32.9227 37.9116C31.616 37.9941 30.3634 37.6164 29.1647 36.7786ZM29.1647 33.7211L30.841 34.8782C31.4266 35.2927 32.0643 35.4695 32.7543 35.4086C33.4446 35.3478 34.0441 35.0631 34.5527 34.5545C35.0613 34.0459 35.3486 33.4464 35.4147 32.7561C35.4811 32.0661 35.307 31.4284 34.8922 30.8428L33.7193 29.1666L34.8764 27.4903C35.2909 26.9048 35.4677 26.267 35.4068 25.577C35.346 24.8867 35.0613 24.2873 34.5527 23.7786C34.0441 23.27 33.4446 22.9827 32.7543 22.9166C32.0643 22.8502 31.4266 23.0243 30.841 23.4391L29.1647 24.612L27.4885 23.4549C26.9029 23.0405 26.2652 22.8636 25.5752 22.9245C24.8849 22.9853 24.2854 23.27 23.7768 23.7786C23.2682 24.2873 22.9809 24.8867 22.9147 25.577C22.8484 26.267 23.0225 26.9048 23.4372 27.4903L24.6102 29.1666L23.4531 30.8428C23.0386 31.4284 22.8618 32.0661 22.9227 32.7561C22.9835 33.4464 23.2682 34.0459 23.7768 34.5545C24.2854 35.0631 24.8849 35.3504 25.5752 35.4166C26.2652 35.483 26.9029 35.3088 27.4885 34.8941L29.1647 33.7211ZM29.1647 30.8653C29.6411 30.8653 30.0434 30.7013 30.3714 30.3732C30.6995 30.0452 30.8635 29.643 30.8635 29.1666C30.8635 28.6902 30.6995 28.2879 30.3714 27.9599C30.0434 27.6318 29.6411 27.4678 29.1647 27.4678C28.6884 27.4678 28.2861 27.6318 27.9581 27.9599C27.63 28.2879 27.466 28.6902 27.466 29.1666C27.466 29.643 27.63 30.0452 27.9581 30.3732C28.2861 30.7013 28.6884 30.8653 29.1647 30.8653Z" fill="#333333"/>
</svg>
