<svg width="11" height="20" viewBox="0 0 11 20" fill="none" xmlns="http://www.w3.org/2000/svg">
<path d="M8.46096 10.0041L0.314125 1.85724C0.0992623 1.64238 -0.00537541 1.3866 0.000212457 1.0899C0.00580032 0.793207 0.116026 0.537336 0.330888 0.322293C0.545751 0.107431 0.801531 0 1.09823 0C1.39493 0 1.6508 0.107431 1.86584 0.322293L10.1457 8.61893C10.3411 8.8145 10.4859 9.0336 10.5802 9.27622C10.6747 9.51884 10.7219 9.76146 10.7219 10.0041C10.7219 10.2467 10.6747 10.4893 10.5802 10.7319C10.4859 10.9746 10.3411 11.1937 10.1457 11.3892L1.84908 19.6859C1.63421 19.9007 1.38123 20.0054 1.09012 19.9998C0.798827 19.9942 0.545751 19.884 0.330888 19.6691C0.116026 19.4542 0.00859419 19.1985 0.00859419 18.9018C0.00859419 18.6051 0.116026 18.3492 0.330888 18.1342L8.46096 10.0041Z" fill="#1C1C1C"/>
</svg>
