<svg width="40" height="40" viewBox="0 0 40 40" fill="none" xmlns="http://www.w3.org/2000/svg">
<path d="M18.7492 35.8333C18.395 35.8333 18.0982 35.7134 17.8588 35.4737C17.619 35.234 17.4992 34.937 17.4992 34.5828C17.4992 34.2284 17.619 33.9316 17.8588 33.6924C18.0982 33.453 18.395 33.3333 18.7492 33.3333H36.2492C36.6033 33.3333 36.9001 33.4531 37.1396 33.6928C37.3793 33.9326 37.4992 34.2295 37.4992 34.5837C37.4992 34.9381 37.3793 35.2349 37.1396 35.4741C36.9001 35.7135 36.6033 35.8333 36.2492 35.8333H18.7492ZM19.1658 31.3462C19.1658 29.2565 19.8394 27.438 21.1867 25.8908C22.5339 24.3438 24.2214 23.424 26.2492 23.1312V22.2662C26.2492 21.922 26.369 21.6276 26.6087 21.3828C26.8482 21.1384 27.145 21.0162 27.4992 21.0162C27.8431 21.0162 28.1374 21.1384 28.3821 21.3828C28.6268 21.6276 28.7492 21.922 28.7492 22.2662V23.1312C30.7597 23.424 32.4429 24.3438 33.7987 25.8908C35.1546 27.438 35.8325 29.2565 35.8325 31.3462H19.1658ZM22.355 28.8203H32.5762C32.1446 27.8353 31.4762 27.0309 30.5712 26.407C29.6662 25.7831 28.6422 25.4712 27.4992 25.4712C26.3389 25.4712 25.2993 25.7831 24.3804 26.407C23.4618 27.0309 22.7867 27.8353 22.355 28.8203ZM2.53125 18.237V7.33993C2.53125 6.63687 2.7775 6.03909 3.27 5.54659C3.7625 5.05409 4.36028 4.80784 5.06333 4.80784H8.3325C8.88167 4.80784 9.40681 4.99854 9.90792 5.37993C10.4088 5.76132 10.7276 6.22659 10.8646 6.77576V7.09618L22.1658 3.85576C22.4394 3.78326 22.7294 3.74423 23.0358 3.73868C23.3425 3.7334 23.6326 3.78104 23.9062 3.88159L34.6496 7.23701C34.9265 7.3234 35.1449 7.47993 35.3046 7.70659C35.464 7.93354 35.5438 8.18729 35.5438 8.46784V8.74993C35.5438 9.94659 35.1058 10.9562 34.23 11.7787C33.3539 12.6015 32.3068 13.0128 31.0888 13.0128H27.3067V13.9166C27.3067 14.5577 27.1133 15.1335 26.7267 15.6441C26.34 16.1546 25.8432 16.5296 25.2362 16.7691L14.9863 20.5766C14.8132 20.6321 14.6418 20.6781 14.4721 20.7145C14.3021 20.7509 14.1219 20.7691 13.9317 20.7691H5.06333C4.36028 20.7691 3.7625 20.5228 3.27 20.0303C2.7775 19.5378 2.53125 18.9401 2.53125 18.237ZM5.03125 12.7883V18.2691H8.36458V7.30784H5.03125V12.7883ZM10.8646 13.9745V18.2691H14.0442L23.8708 14.6633C24.1569 14.5608 24.3844 14.3877 24.5533 14.1441C24.7222 13.9005 24.8067 13.6249 24.8067 13.3174V13.0128H21.7204L18.0279 14.2403C17.701 14.347 17.3842 14.3203 17.0775 14.1603C16.7711 14.0001 16.5644 13.7478 16.4575 13.4037C16.3506 13.0662 16.3707 12.7483 16.5179 12.4499C16.6649 12.1519 16.9065 11.9495 17.2429 11.8428L21.2621 10.5128H31.0888C31.4029 10.5128 31.7742 10.4092 32.2025 10.202C32.6311 9.99479 32.8668 9.70729 32.9096 9.33951L22.9608 6.25618L10.8646 9.67951V13.9745Z" fill="#1C1C1C"/>
</svg>
