<svg width="40" height="40" viewBox="0 0 40 40" fill="none" xmlns="http://www.w3.org/2000/svg">
<path d="M7.18089 35.8334C6.33894 35.8334 5.6263 35.5417 5.04297 34.9584C4.45964 34.3751 4.16797 33.6624 4.16797 32.8205V7.17966C4.16797 6.33772 4.45964 5.62508 5.04297 5.04175C5.6263 4.45841 6.33894 4.16675 7.18089 4.16675H32.8217C33.6637 4.16675 34.3763 4.45841 34.9596 5.04175C35.543 5.62508 35.8346 6.33772 35.8346 7.17966V32.8205C35.8346 33.6624 35.543 34.3751 34.9596 34.9584C34.3763 35.5417 33.6637 35.8334 32.8217 35.8334H7.18089ZM7.18089 33.3334H32.8217C32.9501 33.3334 33.0676 33.2799 33.1742 33.173C33.2812 33.0663 33.3346 32.9488 33.3346 32.8205V7.17966C33.3346 7.05133 33.2812 6.93383 33.1742 6.82716C33.0676 6.72022 32.9501 6.66675 32.8217 6.66675H7.18089C7.05255 6.66675 6.93505 6.72022 6.82839 6.82716C6.72144 6.93383 6.66797 7.05133 6.66797 7.17966V32.8205C6.66797 32.9488 6.72144 33.0663 6.82839 33.173C6.93505 33.2799 7.05255 33.3334 7.18089 33.3334ZM11.668 29.4872H28.3346C29.2513 29.4872 29.9506 29.2062 30.4326 28.6442C30.9142 28.0823 31.1551 27.4231 31.1551 26.6667V20.513C31.1551 19.8058 30.9623 19.1583 30.5767 18.5705C30.1909 17.983 29.6892 17.5429 29.0717 17.2501V15.3205C29.0717 14.0813 28.6337 13.0237 27.7576 12.1476C26.8814 11.2715 25.8238 10.8334 24.5846 10.8334H15.418C14.1788 10.8334 13.1212 11.2715 12.2451 12.1476C11.3689 13.0237 10.9309 14.0813 10.9309 15.3205V17.2501C10.3134 17.5429 9.81172 17.983 9.42589 18.5705C9.04033 19.1583 8.84755 19.8058 8.84755 20.513V26.6667C8.84755 27.5834 9.12852 28.2827 9.69047 28.7647C10.2524 29.2463 10.9116 29.4872 11.668 29.4872ZM11.668 27.5001C11.418 27.5001 11.2166 27.4237 11.0638 27.2709C10.911 27.1181 10.8346 26.9167 10.8346 26.6667V20.513C10.8346 20.0408 10.9944 19.6449 11.3138 19.3255C11.6332 19.0061 12.0291 18.8463 12.5013 18.8463C12.9735 18.8463 13.3694 19.0061 13.6888 19.3255C14.0082 19.6449 14.168 20.0408 14.168 20.513V23.8463H25.8346V20.513C25.8346 20.0408 25.9944 19.6449 26.3138 19.3255C26.6332 19.0061 27.0291 18.8463 27.5013 18.8463C27.9735 18.8463 28.3694 19.0061 28.6888 19.3255C29.0082 19.6449 29.168 20.0408 29.168 20.513V26.6667C29.168 26.9167 29.0916 27.1181 28.9388 27.2709C28.786 27.4237 28.5846 27.5001 28.3346 27.5001H11.668ZM16.1551 21.8592V20.513C16.1551 19.5577 15.8394 18.742 15.208 18.0659C14.5766 17.3895 13.8132 17.0151 12.918 16.9426V15.3205C12.918 14.5983 13.1541 14.0011 13.6263 13.5288C14.0985 13.0566 14.6957 12.8205 15.418 12.8205H24.5846C25.3069 12.8205 25.9041 13.0566 26.3763 13.5288C26.8485 14.0011 27.0846 14.5983 27.0846 15.3205V16.9426C26.1894 17.0151 25.426 17.3895 24.7946 18.0659C24.1632 18.742 23.8476 19.5577 23.8476 20.513V21.8592H16.1551Z" fill="#1C1C1C"/>
</svg>
