<svg width="40" height="40" viewBox="0 0 40 40" fill="none" xmlns="http://www.w3.org/2000/svg">
<path d="M11.6409 13.6537C10.8492 13.6537 10.1751 13.3728 9.61838 12.8112C9.06172 12.2495 8.78339 11.5744 8.78339 10.7858C8.78339 9.99686 9.06172 9.32145 9.61838 8.7595C10.1751 8.19756 10.8492 7.91659 11.6409 7.91659C12.4328 7.91659 13.1107 8.19742 13.6746 8.75908C14.2385 9.32075 14.5205 9.99603 14.5205 10.7849C14.5205 11.5735 14.2385 12.2488 13.6746 12.8108C13.1107 13.3727 12.4328 13.6537 11.6409 13.6537ZM7.18089 35.8333C6.35227 35.8333 5.64297 35.5383 5.05297 34.9483C4.46297 34.3583 4.16797 33.6489 4.16797 32.8203V22.0191C4.16797 21.5924 4.31241 21.2346 4.6013 20.9458C4.88991 20.6571 5.24769 20.5128 5.67464 20.5128H9.00797V18.5574C9.00797 17.6944 9.30269 16.9712 9.89214 16.3878C10.4816 15.8045 11.2071 15.5128 12.0688 15.5128C12.5388 15.5128 12.9778 15.6052 13.3859 15.7899C13.7939 15.9749 14.1603 16.2351 14.4851 16.5703L16.7546 19.0895C16.9916 19.3759 17.2503 19.6351 17.5309 19.867C17.8112 20.0987 18.1089 20.3139 18.4242 20.5128H34.328C34.7549 20.5128 35.1127 20.6571 35.4013 20.9458C35.6902 21.2346 35.8346 21.5924 35.8346 22.0191V32.8203C35.8346 33.6489 35.5396 34.3583 34.9496 34.9483C34.3596 35.5383 33.6503 35.8333 32.8217 35.8333H7.18089ZM31.7421 16.8591C31.4044 16.8591 31.1244 16.741 30.9021 16.5049C30.6799 16.2688 30.5773 15.9819 30.5942 15.6441C30.6328 14.9902 30.526 14.3631 30.2738 13.7628C30.0216 13.1623 29.6657 12.6323 29.2063 12.1728C28.5163 11.4828 27.9977 10.6955 27.6505 9.81075C27.3032 8.92631 27.1317 8.01395 27.1359 7.07367C27.1359 6.7345 27.2469 6.44298 27.4688 6.19909C27.6905 5.9552 27.9703 5.83325 28.3084 5.83325C28.6464 5.83325 28.9309 5.95825 29.1617 6.20825C29.3923 6.45825 29.4991 6.752 29.4821 7.0895C29.4435 7.70923 29.5364 8.31672 29.7609 8.912C29.9853 9.507 30.3239 10.0149 30.7767 10.4358C31.467 11.126 31.997 11.9162 32.3667 12.8062C32.7364 13.6962 32.9191 14.6251 32.9146 15.5928C32.9146 15.9514 32.8038 16.2521 32.5821 16.4949C32.3602 16.7377 32.0802 16.8591 31.7421 16.8591ZM25.0596 16.8591C24.7216 16.8591 24.4414 16.741 24.2192 16.5049C23.997 16.2688 23.8945 15.9819 23.9117 15.6441C23.9501 14.9796 23.8431 14.3499 23.5909 13.7549C23.3389 13.1596 22.9778 12.6323 22.5076 12.1728C21.8176 11.4828 21.3016 10.6955 20.9596 9.81075C20.6177 8.92631 20.4489 8.01395 20.4534 7.07367C20.4534 6.7345 20.5642 6.44298 20.7859 6.19909C21.0078 5.9552 21.2878 5.83325 21.6259 5.83325C21.9637 5.83325 22.2437 5.95131 22.4659 6.18742C22.6881 6.42353 22.7907 6.71034 22.7738 7.04784C22.7352 7.68478 22.8307 8.29645 23.0605 8.88284C23.2902 9.4695 23.6295 9.98714 24.0784 10.4358C24.7792 11.126 25.3144 11.9162 25.6838 12.8062C26.0535 13.6962 26.2363 14.6251 26.2321 15.5928C26.2321 15.9514 26.1212 16.2521 25.8992 16.4949C25.6775 16.7377 25.3977 16.8591 25.0596 16.8591ZM27.8059 33.3333H31.8605V23.0128H27.8059V33.3333ZM21.2513 33.3333H25.3059V23.0128H21.2513V33.3333ZM14.6967 33.3333H18.7513V23.0128H14.6967V33.3333ZM8.14214 33.3333H12.1967V23.0128H8.14214V33.3333Z" fill="#1C1C1C"/>
</svg>
