<svg width="24" height="24" viewBox="0 0 24 24" fill="none" xmlns="http://www.w3.org/2000/svg">
<path d="M5.30775 21.5C4.80258 21.5 4.375 21.325 4.025 20.975C3.675 20.625 3.5 20.1974 3.5 19.6923V8.30775C3.5 7.80258 3.675 7.375 4.025 7.025C4.375 6.675 4.80258 6.5 5.30775 6.5H7.5C7.5 5.25133 7.93783 4.18917 8.8135 3.3135C9.68917 2.43783 10.7513 2 12 2C13.2487 2 14.3108 2.43783 15.1865 3.3135C16.0622 4.18917 16.5 5.25133 16.5 6.5H18.6923C19.1974 6.5 19.625 6.675 19.975 7.025C20.325 7.375 20.5 7.80258 20.5 8.30775V19.6923C20.5 20.1974 20.325 20.625 19.975 20.975C19.625 21.325 19.1974 21.5 18.6923 21.5H5.30775ZM9 6.5H15C15 5.66667 14.7083 4.95833 14.125 4.375C13.5417 3.79167 12.8333 3.5 12 3.5C11.1667 3.5 10.4583 3.79167 9.875 4.375C9.29167 4.95833 9 5.66667 9 6.5ZM11.9845 13.5C13.1153 13.5 14.1311 13.1173 15.0318 12.352C15.9324 11.5865 16.3776 10.7179 16.3673 9.74625C16.3673 9.53975 16.298 9.36375 16.1595 9.21825C16.0212 9.07275 15.8456 9 15.6328 9C15.4571 9 15.3 9.06058 15.1615 9.18175C15.023 9.30292 14.9249 9.47183 14.8673 9.6885C14.7224 10.3667 14.3769 10.9215 13.8307 11.353C13.2846 11.7843 12.6692 12 11.9845 12C11.3 12 10.6821 11.7843 10.1308 11.353C9.57942 10.9215 9.2365 10.3667 9.102 9.6885C9.04433 9.4615 8.95133 9.29 8.823 9.174C8.69483 9.058 8.54292 9 8.36725 9C8.15442 9 7.97625 9.07275 7.83275 9.21825C7.68908 9.36375 7.61725 9.53975 7.61725 9.74625C7.61725 10.7179 8.0625 11.5865 8.953 12.352C9.84333 13.1173 10.8538 13.5 11.9845 13.5Z" fill="#333333"/>
</svg>
