<svg width="24" height="24" viewBox="0 0 24 24" fill="none" xmlns="http://www.w3.org/2000/svg">
<path d="M6.0385 17.5L4.0365 19.5018C3.752 19.7864 3.42475 19.8509 3.05475 19.6952C2.68492 19.5394 2.5 19.2589 2.5 18.8538V4.30775C2.5 3.80258 2.675 3.375 3.025 3.025C3.375 2.675 3.80258 2.5 4.30775 2.5H19.6923C20.1974 2.5 20.625 2.675 20.975 3.025C21.325 3.375 21.5 3.80258 21.5 4.30775V15.6923C21.5 16.1974 21.325 16.625 20.975 16.975C20.625 17.325 20.1974 17.5 19.6923 17.5H6.0385ZM8 10.8845C8.24483 10.8845 8.4535 10.7983 8.626 10.626C8.79833 10.4535 8.8845 10.2448 8.8845 10C8.8845 9.75517 8.79833 9.5465 8.626 9.374C8.4535 9.20167 8.24483 9.1155 8 9.1155C7.75517 9.1155 7.5465 9.20167 7.374 9.374C7.20167 9.5465 7.1155 9.75517 7.1155 10C7.1155 10.2448 7.20167 10.4535 7.374 10.626C7.5465 10.7983 7.75517 10.8845 8 10.8845ZM12 10.8845C12.2448 10.8845 12.4535 10.7983 12.626 10.626C12.7983 10.4535 12.8845 10.2448 12.8845 10C12.8845 9.75517 12.7983 9.5465 12.626 9.374C12.4535 9.20167 12.2448 9.1155 12 9.1155C11.7552 9.1155 11.5465 9.20167 11.374 9.374C11.2017 9.5465 11.1155 9.75517 11.1155 10C11.1155 10.2448 11.2017 10.4535 11.374 10.626C11.5465 10.7983 11.7552 10.8845 12 10.8845ZM16 10.8845C16.2448 10.8845 16.4535 10.7983 16.626 10.626C16.7983 10.4535 16.8845 10.2448 16.8845 10C16.8845 9.75517 16.7983 9.5465 16.626 9.374C16.4535 9.20167 16.2448 9.1155 16 9.1155C15.7552 9.1155 15.5465 9.20167 15.374 9.374C15.2017 9.5465 15.1155 9.75517 15.1155 10C15.1155 10.2448 15.2017 10.4535 15.374 10.626C15.5465 10.7983 15.7552 10.8845 16 10.8845Z" fill="#333333"/>
</svg>
