<svg width="24" height="24" viewBox="0 0 24 24" fill="none" xmlns="http://www.w3.org/2000/svg">
<path d="M11.5203 14.174L8.369 11.023C8.32567 10.9795 8.2915 10.9309 8.2665 10.8773C8.2415 10.8238 8.229 10.7663 8.229 10.705C8.229 10.5825 8.27042 10.476 8.35325 10.3855C8.43609 10.2952 8.54525 10.25 8.68075 10.25H15.3193C15.4548 10.25 15.5639 10.2957 15.6468 10.387C15.7296 10.4782 15.771 10.5846 15.771 10.7063C15.771 10.7368 15.7243 10.8423 15.6308 11.023L12.4798 14.174C12.4074 14.2465 12.3326 14.2994 12.2553 14.3327C12.1779 14.3661 12.0928 14.3828 12 14.3828C11.9072 14.3828 11.8221 14.3661 11.7448 14.3327C11.6674 14.2994 11.5926 14.2465 11.5203 14.174Z" fill="black"/>
</svg>
