<svg width="20" height="20" viewBox="0 0 20 20" fill="none" xmlns="http://www.w3.org/2000/svg">
<path d="M4.16675 15.8327H5.218L13.7484 7.30227L12.6972 6.25102L4.16675 14.7814V15.8327ZM3.67008 17.0827C3.45661 17.0827 3.27772 17.0105 3.13341 16.866C2.98897 16.7217 2.91675 16.5428 2.91675 16.3293V14.8856C2.91675 14.6824 2.95578 14.4887 3.03383 14.3046C3.11175 14.1204 3.21911 13.9599 3.35591 13.8231L13.9088 3.27497C14.0348 3.16053 14.1739 3.07213 14.3261 3.00977C14.4785 2.94727 14.6382 2.91602 14.8053 2.91602C14.9724 2.91602 15.1342 2.94567 15.2907 3.00497C15.4474 3.06428 15.5861 3.15858 15.7067 3.28789L16.7245 4.31831C16.8538 4.439 16.9459 4.57789 17.0009 4.73497C17.0559 4.89206 17.0834 5.04914 17.0834 5.20622C17.0834 5.37386 17.0548 5.53379 16.9976 5.68602C16.9404 5.83838 16.8493 5.97754 16.7245 6.10352L6.17633 16.6435C6.03953 16.7803 5.87904 16.8877 5.69487 16.9656C5.51071 17.0437 5.31703 17.0827 5.11383 17.0827H3.67008ZM13.2136 6.78581L12.6972 6.25102L13.7484 7.30227L13.2136 6.78581Z" fill="#333333"/>
</svg>
