<svg width="40" height="40" viewBox="0 0 40 40" fill="none" xmlns="http://www.w3.org/2000/svg">
<path d="M18.75 21.2513H10.4167C10.0625 21.2513 9.76572 21.1314 9.52627 20.8917C9.28655 20.652 9.16669 20.3551 9.16669 20.0009C9.16669 19.6464 9.28655 19.3496 9.52627 19.1105C9.76572 18.871 10.0625 18.7513 10.4167 18.7513H18.75V10.418C18.75 10.0638 18.8699 9.767 19.1096 9.52755C19.3493 9.28783 19.6463 9.16797 20.0004 9.16797C20.3549 9.16797 20.6517 9.28783 20.8909 9.52755C21.1303 9.767 21.25 10.0638 21.25 10.418V18.7513H29.5834C29.9375 18.7513 30.2343 18.8712 30.4738 19.1109C30.7135 19.3506 30.8334 19.6476 30.8334 20.0017C30.8334 20.3562 30.7135 20.653 30.4738 20.8921C30.2343 21.1316 29.9375 21.2513 29.5834 21.2513H21.25V29.5846C21.25 29.9388 21.1302 30.2356 20.8904 30.4751C20.6507 30.7148 20.3538 30.8346 19.9996 30.8346C19.6452 30.8346 19.3484 30.7148 19.1092 30.4751C18.8697 30.2356 18.75 29.9388 18.75 29.5846V21.2513Z" fill="#777777"/>
</svg>
