<svg width="16" height="16" viewBox="0 0 16 16" fill="none" xmlns="http://www.w3.org/2000/svg">
<g id="Location Icon">
<path id="Vector" d="M8.00002 13.009C9.30424 11.8414 10.3023 10.7216 10.9942 9.64933C11.6861 8.57711 12.032 7.638 12.032 6.832C12.032 5.61666 11.6459 4.61755 10.8737 3.83466C10.1015 3.05178 9.14357 2.66033 8.00002 2.66033C6.85646 2.66033 5.89857 3.05178 5.12635 3.83466C4.35413 4.61755 3.96802 5.61666 3.96802 6.832C3.96802 7.638 4.31396 8.57711 5.00585 9.64933C5.69774 10.7216 6.69579 11.8414 8.00002 13.009ZM8.00002 13.9602C7.87013 13.9602 7.74024 13.9378 7.61035 13.893C7.48035 13.8481 7.3628 13.7787 7.25768 13.6847C6.65946 13.1333 6.09963 12.5656 5.57818 11.9813C5.05685 11.3972 4.60368 10.8133 4.21868 10.2295C3.83357 9.64572 3.52885 9.06711 3.30452 8.49366C3.08018 7.92011 2.96802 7.36622 2.96802 6.832C2.96802 5.29355 3.46563 4.04805 4.46085 3.0955C5.45618 2.14294 6.63591 1.66666 8.00002 1.66666C9.36413 1.66666 10.5438 2.14294 11.5392 3.0955C12.5344 4.04805 13.032 5.29355 13.032 6.832C13.032 7.36622 12.9198 7.919 12.6955 8.49033C12.4712 9.06178 12.1676 9.64044 11.7847 10.2263C11.4017 10.8122 10.9495 11.3962 10.4282 11.9782C9.90685 12.5603 9.34702 13.1269 8.74868 13.6782C8.64513 13.7722 8.52741 13.8427 8.39552 13.8897C8.26374 13.9367 8.13191 13.9602 8.00002 13.9602ZM8.00118 7.91016C8.33285 7.91016 8.61641 7.79205 8.85185 7.55583C9.08741 7.31961 9.20518 7.03566 9.20518 6.704C9.20518 6.37233 9.08707 6.08872 8.85085 5.85316C8.61463 5.61772 8.33063 5.5 7.99885 5.5C7.66718 5.5 7.38363 5.61811 7.14818 5.85433C6.91263 6.09055 6.79485 6.37455 6.79485 6.70633C6.79485 7.038 6.91296 7.32155 7.14918 7.557C7.38541 7.79244 7.66941 7.91016 8.00118 7.91016Z" fill="#777777"/>
</g>
</svg>
