<svg width="33" height="30" viewBox="0 0 33 30" fill="none" xmlns="http://www.w3.org/2000/svg">
<path fill-rule="evenodd" clip-rule="evenodd" d="M11.847 11.103L10.745 14.533H12.932L11.871 11.103H11.847Z" fill="#FAE100"/>
<path fill-rule="evenodd" clip-rule="evenodd" d="M28.534 17.621C28.346 17.766 28.118 17.839 27.854 17.839C27.664 17.839 27.509 17.806 27.389 17.739C27.268 17.661 27.144 17.532 27.021 17.332L24.869 13.866L23.843 14.936L23.853 16.87C23.85 17.161 23.766 17.398 23.597 17.574C23.427 17.752 23.197 17.839 22.912 17.839C22.675 17.839 22.476 17.773 22.312 17.649C22.148 17.516 22.044 17.34 21.999 17.119C21.984 17.039 21.979 16.957 21.982 16.869L21.98 9.962C21.982 9.673 22.064 9.437 22.234 9.258C22.402 9.082 22.631 8.993 22.918 8.993C23.154 8.993 23.353 9.057 23.515 9.187C23.682 9.318 23.785 9.494 23.829 9.715C23.845 9.797 23.853 9.88 23.848 9.962L23.853 12.792L26.788 9.418C26.92 9.274 27.037 9.169 27.143 9.098C27.252 9.028 27.379 8.993 27.533 8.993C27.739 8.993 27.924 9.05 28.092 9.167C28.26 9.277 28.362 9.429 28.402 9.623L28.416 9.694C28.414 9.722 28.416 9.752 28.421 9.774C28.419 9.908 28.391 10.027 28.334 10.129C28.277 10.234 28.204 10.337 28.113 10.441L26.193 12.537L28.463 16.134L28.532 16.243C28.686 16.487 28.776 16.666 28.801 16.785C28.803 16.792 28.806 16.815 28.814 16.844V16.904C28.814 17.238 28.722 17.476 28.534 17.621ZM21.516 17.474C21.333 17.614 21.101 17.688 20.821 17.688H16.924C16.634 17.688 16.4 17.63 16.221 17.508C16.039 17.393 15.923 17.2 15.867 16.932C15.847 16.819 15.832 16.692 15.826 16.55L15.829 9.962C15.829 9.673 15.915 9.437 16.085 9.258C16.252 9.082 16.481 8.993 16.77 8.993C17.005 8.993 17.206 9.057 17.368 9.187C17.528 9.318 17.635 9.494 17.681 9.715C17.697 9.797 17.702 9.88 17.697 9.962L17.695 16.051H20.816C21.066 16.051 21.278 16.104 21.447 16.216C21.617 16.33 21.727 16.487 21.765 16.692C21.778 16.744 21.787 16.808 21.792 16.87C21.792 17.128 21.7 17.332 21.516 17.474ZM15.275 17.592C15.104 17.761 14.898 17.839 14.655 17.839C14.223 17.839 13.943 17.661 13.815 17.306L13.333 15.883H10.325L9.84 17.306C9.723 17.661 9.444 17.839 9.003 17.839C8.785 17.839 8.599 17.785 8.452 17.669C8.304 17.557 8.207 17.393 8.165 17.186C8.152 17.128 8.147 17.061 8.147 16.988C8.144 16.893 8.158 16.778 8.199 16.645C8.233 16.511 8.277 16.375 8.325 16.243L10.741 9.587C10.816 9.373 10.931 9.221 11.081 9.13C11.229 9.04 11.421 8.993 11.653 8.993H12.101C12.344 8.993 12.547 9.043 12.712 9.141C12.876 9.237 13.007 9.428 13.098 9.705L15.354 16.243C15.427 16.445 15.476 16.619 15.506 16.763C15.524 16.86 15.536 16.935 15.539 16.988C15.535 17.228 15.448 17.425 15.275 17.592ZM7.559 16.87C7.558 17.161 7.473 17.398 7.303 17.574C7.136 17.752 6.904 17.839 6.619 17.839C6.383 17.839 6.184 17.773 6.021 17.649C5.856 17.516 5.753 17.34 5.706 17.119C5.69 17.039 5.686 16.957 5.69 16.869L5.694 10.786H3.928C3.685 10.786 3.475 10.726 3.301 10.618C3.125 10.51 3.018 10.35 2.978 10.145C2.968 10.09 2.958 10.027 2.951 9.962C2.951 9.705 3.044 9.502 3.228 9.362C3.411 9.221 3.643 9.145 3.923 9.145H9.323C9.566 9.145 9.775 9.203 9.948 9.312C10.125 9.422 10.233 9.578 10.276 9.786C10.284 9.842 10.29 9.901 10.287 9.962C10.287 10.229 10.197 10.426 10.017 10.573C9.838 10.713 9.608 10.786 9.327 10.786H7.56V16.87H7.559ZM16.226 0C7.265 0 0 5.736 0 12.816C0 17.369 3.01 21.356 7.53 23.638L6 29.345C5.942 29.518 5.989 29.707 6.116 29.833C6.204 29.921 6.32 29.969 6.447 29.969C6.545 29.969 6.641 29.927 6.729 29.86L13.304 25.42C14.258 25.557 15.233 25.633 16.226 25.633C25.186 25.633 32.452 19.896 32.452 12.816C32.452 5.736 25.185 0 16.226 0Z" fill="#FAE100"/>
</svg>
