<svg width="72" height="103" viewBox="0 0 72 103" fill="none" xmlns="http://www.w3.org/2000/svg">
<rect opacity="0.6" y="79" width="72" height="24" rx="12" fill="#D9D9D9"/>
<path fill-rule="evenodd" clip-rule="evenodd" d="M49.503 47.818C42.111 54.941 30.128 54.941 22.737 47.818C15.347 40.695 15.347 29.146 22.737 22.023C30.127 14.899 42.111 14.899 49.503 22.023C56.893 29.146 56.893 40.695 49.503 47.818ZM57.81 10.632C45.46 0.452998 26.768 0.456997 14.42 10.639C1.045 21.669 -0.579998 40.195 9.537 53.052L32.368 83.255C34.208 85.688 38.03 85.688 39.87 83.255L62.705 53.055C72.823 40.196 71.192 21.661 57.81 10.632V10.632Z" stroke="white" stroke-width="5"/>
</svg>
