<?xml version="1.0" encoding="UTF-8" standalone="no"?>
<!DOCTYPE svg PUBLIC "-//W3C//DTD SVG 1.1//EN"
 "http://www.w3.org/Graphics/SVG/1.1/DTD/svg11.dtd">
<!-- Generated by graphviz version 2.47.0 (20210316.0004)
 -->
<!-- Title: dependencies Pages: 1 -->
<svg width="562pt" height="211pt"
 viewBox="0.00 0.00 562.00 211.00" xmlns="http://www.w3.org/2000/svg" xmlns:xlink="http://www.w3.org/1999/xlink">
<g id="graph0" class="graph" transform="scale(1 1) rotate(0) translate(4 207)">
<title>dependencies</title>
<polygon fill="white" stroke="transparent" points="-4,4 -4,-207 558,-207 558,4 -4,4"/>
<text text-anchor="start" x="256.01" y="-42.4" font-family="Times-12" font-weight="bold" font-size="14.00">Legend</text>
<polygon fill="#ffffb3" stroke="transparent" points="43,-10 43,-30 63,-30 63,-10 43,-10"/>
<text text-anchor="start" x="66.63" y="-15.4" font-family="Times-12" font-size="14.00"> &#160;Declarations</text>
<polygon fill="#8dd3c7" stroke="transparent" points="156,-10 156,-30 176,-30 176,-10 156,-10"/>
<text text-anchor="start" x="179.73" y="-15.4" font-family="Times-12" font-size="14.00"> &#160;Module</text>
<polygon fill="#80b1d3" stroke="transparent" points="242,-10 242,-30 262,-30 262,-10 242,-10"/>
<text text-anchor="start" x="265.78" y="-15.4" font-family="Times-12" font-size="14.00"> &#160;Bootstrap</text>
<polygon fill="#fdb462" stroke="transparent" points="339,-10 339,-30 359,-30 359,-10 339,-10"/>
<text text-anchor="start" x="362.67" y="-15.4" font-family="Times-12" font-size="14.00"> &#160;Providers</text>
<polygon fill="#fb8072" stroke="transparent" points="435,-10 435,-30 455,-30 455,-10 435,-10"/>
<text text-anchor="start" x="458.73" y="-15.4" font-family="Times-12" font-size="14.00"> &#160;Exports</text>
<g id="clust1" class="cluster">
<title>cluster_UserModule</title>
<polygon fill="none" stroke="black" stroke-dasharray="1,5" points="8,-70 8,-195 546,-195 546,-70 8,-70"/>
</g>
<g id="clust3" class="cluster">
<title>cluster_UserModule_imports</title>
<polygon fill="none" stroke="black" points="318,-78 318,-130 538,-130 538,-78 318,-78"/>
</g>
<g id="clust6" class="cluster">
<title>cluster_UserModule_providers</title>
<polygon fill="none" stroke="black" points="16,-78 16,-130 310,-130 310,-78 16,-78"/>
</g>
<!-- AuthModule -->
<g id="node1" class="node">
<title>AuthModule</title>
<polygon fill="#8dd3c7" stroke="black" points="529.55,-122 526.55,-126 505.55,-126 502.55,-122 442.45,-122 442.45,-86 529.55,-86 529.55,-122"/>
<text text-anchor="middle" x="486" y="-99.8" font-family="Times,serif" font-size="14.00">AuthModule</text>
</g>
<!-- UserModule -->
<g id="node3" class="node">
<title>UserModule</title>
<polygon fill="#8dd3c7" stroke="black" points="344.98,-187 341.98,-191 320.98,-191 317.98,-187 259.02,-187 259.02,-151 344.98,-151 344.98,-187"/>
<text text-anchor="middle" x="302" y="-164.8" font-family="Times,serif" font-size="14.00">UserModule</text>
</g>
<!-- AuthModule&#45;&gt;UserModule -->
<g id="edge1" class="edge">
<title>AuthModule&#45;&gt;UserModule</title>
<path fill="none" stroke="black" d="M486,-122.11C486,-141.34 486,-169 486,-169 486,-169 355.14,-169 355.14,-169"/>
<polygon fill="black" stroke="black" points="355.14,-165.5 345.14,-169 355.14,-172.5 355.14,-165.5"/>
</g>
<!-- BcryptModule -->
<g id="node2" class="node">
<title>BcryptModule</title>
<polygon fill="#8dd3c7" stroke="black" points="423.65,-122 420.65,-126 399.65,-126 396.65,-122 326.35,-122 326.35,-86 423.65,-86 423.65,-122"/>
<text text-anchor="middle" x="375" y="-99.8" font-family="Times,serif" font-size="14.00">BcryptModule</text>
</g>
<!-- BcryptModule&#45;&gt;UserModule -->
<g id="edge2" class="edge">
<title>BcryptModule&#45;&gt;UserModule</title>
<path fill="none" stroke="black" d="M335.58,-122.11C335.58,-122.11 335.58,-140.99 335.58,-140.99"/>
<polygon fill="black" stroke="black" points="332.08,-140.99 335.58,-150.99 339.08,-140.99 332.08,-140.99"/>
</g>
<!-- UserRepository -->
<g id="node4" class="node">
<title>UserRepository</title>
<ellipse fill="#fdb462" stroke="black" cx="230" cy="-104" rx="71.79" ry="18"/>
<text text-anchor="middle" x="230" y="-99.8" font-family="Times,serif" font-size="14.00">UserRepository</text>
</g>
<!-- UserRepository&#45;&gt;UserModule -->
<g id="edge3" class="edge">
<title>UserRepository&#45;&gt;UserModule</title>
<path fill="none" stroke="black" d="M280.33,-116.84C280.33,-116.84 280.33,-140.52 280.33,-140.52"/>
<polygon fill="black" stroke="black" points="276.83,-140.52 280.33,-150.52 283.83,-140.52 276.83,-140.52"/>
</g>
<!-- UserService -->
<g id="node5" class="node">
<title>UserService</title>
<ellipse fill="#fdb462" stroke="black" cx="82" cy="-104" rx="58.44" ry="18"/>
<text text-anchor="middle" x="82" y="-99.8" font-family="Times,serif" font-size="14.00">UserService</text>
</g>
<!-- UserService&#45;&gt;UserModule -->
<g id="edge4" class="edge">
<title>UserService&#45;&gt;UserModule</title>
<path fill="none" stroke="black" d="M82,-122.11C82,-141.34 82,-169 82,-169 82,-169 248.8,-169 248.8,-169"/>
<polygon fill="black" stroke="black" points="248.8,-172.5 258.8,-169 248.8,-165.5 248.8,-172.5"/>
</g>
</g>
</svg>
