<svg width="36" height="36" viewBox="0 0 36 36" fill="none" xmlns="http://www.w3.org/2000/svg">
<path d="M16.875 19.125H9.375C9.05625 19.125 8.78913 19.0171 8.57363 18.8014C8.35788 18.5856 8.25 18.3184 8.25 17.9996C8.25 17.6806 8.35788 17.4135 8.57363 17.1982C8.78913 16.9827 9.05625 16.875 9.375 16.875H16.875V9.375C16.875 9.05625 16.9829 8.78913 17.1986 8.57363C17.4144 8.35788 17.6816 8.25 18.0004 8.25C18.3194 8.25 18.5865 8.35788 18.8018 8.57363C19.0173 8.78913 19.125 9.05625 19.125 9.375V16.875H26.625C26.9438 16.875 27.2109 16.9829 27.4264 17.1986C27.6421 17.4144 27.75 17.6816 27.75 18.0004C27.75 18.3194 27.6421 18.5865 27.4264 18.8018C27.2109 19.0173 26.9438 19.125 26.625 19.125H19.125V26.625C19.125 26.9438 19.0171 27.2109 18.8014 27.4264C18.5856 27.6421 18.3184 27.75 17.9996 27.75C17.6806 27.75 17.4135 27.6421 17.1982 27.4264C16.9827 27.2109 16.875 26.9438 16.875 26.625V19.125Z" fill="white"/>
</svg>
