<svg width="24" height="24" viewBox="0 0 24 24" fill="none" xmlns="http://www.w3.org/2000/svg">
<path d="M12 19.5135C13.9564 17.7622 15.4534 16.0823 16.4913 14.474C17.5291 12.8657 18.048 11.457 18.048 10.248C18.048 8.425 17.4689 6.92633 16.3105 5.752C15.1522 4.57767 13.7154 3.9905 12 3.9905C10.2847 3.9905 8.84786 4.57767 7.68953 5.752C6.53119 6.92633 5.95203 8.425 5.95203 10.248C5.95203 11.457 6.47094 12.8657 7.50878 14.474C8.54661 16.0823 10.0437 17.7622 12 19.5135ZM12 20.9403C11.8052 20.9403 11.6104 20.9067 11.4155 20.8395C11.2205 20.7722 11.0442 20.668 10.8865 20.527C9.98919 19.7 9.14944 18.8483 8.36728 17.972C7.58528 17.0958 6.90553 16.2199 6.32803 15.3443C5.75036 14.4686 5.29328 13.6007 4.95678 12.7405C4.62028 11.8802 4.45203 11.0493 4.45203 10.248C4.45203 7.94033 5.19844 6.07208 6.69128 4.64325C8.18428 3.21442 9.95386 2.5 12 2.5C14.0462 2.5 15.8158 3.21442 17.3088 4.64325C18.8016 6.07208 19.548 7.94033 19.548 10.248C19.548 11.0493 19.3798 11.8785 19.0433 12.7355C18.7068 13.5927 18.2514 14.4607 17.677 15.3395C17.1025 16.2183 16.4243 17.0943 15.6423 17.9672C14.8603 18.8404 14.0205 19.6904 13.123 20.5173C12.9677 20.6583 12.7911 20.764 12.5933 20.8345C12.3956 20.905 12.1979 20.9403 12 20.9403ZM12.0018 11.8652C12.4993 11.8652 12.9246 11.6881 13.2778 11.3338C13.6311 10.9794 13.8078 10.5535 13.8078 10.056C13.8078 9.5585 13.6306 9.13308 13.2763 8.77975C12.9219 8.42658 12.4959 8.25 11.9983 8.25C11.5008 8.25 11.0754 8.42717 10.7223 8.7815C10.3689 9.13583 10.1923 9.56183 10.1923 10.0595C10.1923 10.557 10.3694 10.9823 10.7238 11.3355C11.0781 11.6887 11.5041 11.8652 12.0018 11.8652Z" fill="black"/>
</svg>
