<svg width="16" height="16" viewBox="0 0 16 16" fill="none" xmlns="http://www.w3.org/2000/svg">
<path d="M6.10373 10.8098L12.6807 4.23281C12.8359 4.0776 13.017 4 13.224 4C13.4309 4 13.612 4.0776 13.7672 4.23281C13.9224 4.38802 14 4.57233 14 4.78575C14 4.99916 13.9224 5.18347 13.7672 5.33868L6.64696 12.4783C6.49175 12.6335 6.31068 12.7111 6.10373 12.7111C5.89679 12.7111 5.71571 12.6335 5.5605 12.4783L2.2235 9.1413C2.06829 8.9861 1.99392 8.80178 2.00039 8.58837C2.00686 8.37496 2.08769 8.19065 2.2429 8.03544C2.39811 7.88023 2.58242 7.80263 2.79584 7.80263C3.00925 7.80263 3.19356 7.88023 3.34877 8.03544L6.10373 10.8098Z" fill="#299C00"/>
</svg>
