<svg width="40" height="40" viewBox="0 0 40 40" fill="none" xmlns="http://www.w3.org/2000/svg">
<g filter="url(#filter0_d_62_3408)">
<rect x="8" y="8" width="24" height="24" rx="12" fill="white"/>
<path d="M19.9998 21.4008L15.0998 26.3008C14.9165 26.4841 14.6831 26.5758 14.3998 26.5758C14.1165 26.5758 13.8831 26.4841 13.6998 26.3008C13.5165 26.1174 13.4248 25.8841 13.4248 25.6008C13.4248 25.3174 13.5165 25.0841 13.6998 24.9008L18.5998 20.0008L13.6998 15.1008C13.5165 14.9174 13.4248 14.6841 13.4248 14.4008C13.4248 14.1174 13.5165 13.8841 13.6998 13.7008C13.8831 13.5174 14.1165 13.4258 14.3998 13.4258C14.6831 13.4258 14.9165 13.5174 15.0998 13.7008L19.9998 18.6008L24.8998 13.7008C25.0831 13.5174 25.3165 13.4258 25.5998 13.4258C25.8831 13.4258 26.1165 13.5174 26.2998 13.7008C26.4831 13.8841 26.5748 14.1174 26.5748 14.4008C26.5748 14.6841 26.4831 14.9174 26.2998 15.1008L21.3998 20.0008L26.2998 24.9008C26.4831 25.0841 26.5748 25.3174 26.5748 25.6008C26.5748 25.8841 26.4831 26.1174 26.2998 26.3008C26.1165 26.4841 25.8831 26.5758 25.5998 26.5758C25.3165 26.5758 25.0831 26.4841 24.8998 26.3008L19.9998 21.4008Z" fill="black"/>
</g>
<defs>
<filter id="filter0_d_62_3408" x="0" y="0" width="40" height="40" filterUnits="userSpaceOnUse" color-interpolation-filters="sRGB">
<feFlood flood-opacity="0" result="BackgroundImageFix"/>
<feColorMatrix in="SourceAlpha" type="matrix" values="0 0 0 0 0 0 0 0 0 0 0 0 0 0 0 0 0 0 127 0" result="hardAlpha"/>
<feOffset/>
<feGaussianBlur stdDeviation="4"/>
<feComposite in2="hardAlpha" operator="out"/>
<feColorMatrix type="matrix" values="0 0 0 0 0 0 0 0 0 0 0 0 0 0 0 0 0 0 0.1 0"/>
<feBlend mode="normal" in2="BackgroundImageFix" result="effect1_dropShadow_62_3408"/>
<feBlend mode="normal" in="SourceGraphic" in2="effect1_dropShadow_62_3408" result="shape"/>
</filter>
</defs>
</svg>
