<svg width="24" height="24" viewBox="0 0 24 24" fill="none" xmlns="http://www.w3.org/2000/svg">
<path d="M14.725 11.9996L7.37495 19.3496C7.12495 19.5996 7.00412 19.8913 7.01245 20.2246C7.02078 20.558 7.14995 20.8496 7.39995 21.0996C7.64995 21.3496 7.94162 21.4746 8.27495 21.4746C8.60828 21.4746 8.89995 21.3496 9.14995 21.0996L16.85 13.4246C17.05 13.2246 17.2 12.9996 17.3 12.7496C17.4 12.4996 17.45 12.2496 17.45 11.9996C17.45 11.7496 17.4 11.4996 17.3 11.2496C17.2 10.9996 17.05 10.7746 16.85 10.5746L9.14995 2.87462C8.89995 2.62462 8.60412 2.50379 8.26245 2.51212C7.92078 2.52046 7.62495 2.64962 7.37495 2.89962C7.12495 3.14962 6.99995 3.44129 6.99995 3.77462C6.99995 4.10796 7.12495 4.39962 7.37495 4.64962L14.725 11.9996Z" fill="#333333"/>
</svg>
