<?xml version="1.0" encoding="UTF-8" standalone="no"?>
<!DOCTYPE svg PUBLIC "-//W3C//DTD SVG 1.1//EN"
 "http://www.w3.org/Graphics/SVG/1.1/DTD/svg11.dtd">
<!-- Generated by graphviz version 2.47.0 (20210316.0004)
 -->
<!-- Title: dependencies Pages: 1 -->
<svg width="946pt" height="211pt"
 viewBox="0.00 0.00 946.00 211.00" xmlns="http://www.w3.org/2000/svg" xmlns:xlink="http://www.w3.org/1999/xlink">
<g id="graph0" class="graph" transform="scale(1 1) rotate(0) translate(4 207)">
<title>dependencies</title>
<polygon fill="white" stroke="transparent" points="-4,4 -4,-207 942,-207 942,4 -4,4"/>
<text text-anchor="start" x="448.01" y="-42.4" font-family="Times-12" font-weight="bold" font-size="14.00">Legend</text>
<polygon fill="#ffffb3" stroke="transparent" points="235,-10 235,-30 255,-30 255,-10 235,-10"/>
<text text-anchor="start" x="258.63" y="-15.4" font-family="Times-12" font-size="14.00"> &#160;Declarations</text>
<polygon fill="#8dd3c7" stroke="transparent" points="348,-10 348,-30 368,-30 368,-10 348,-10"/>
<text text-anchor="start" x="371.73" y="-15.4" font-family="Times-12" font-size="14.00"> &#160;Module</text>
<polygon fill="#80b1d3" stroke="transparent" points="434,-10 434,-30 454,-30 454,-10 434,-10"/>
<text text-anchor="start" x="457.78" y="-15.4" font-family="Times-12" font-size="14.00"> &#160;Bootstrap</text>
<polygon fill="#fdb462" stroke="transparent" points="531,-10 531,-30 551,-30 551,-10 531,-10"/>
<text text-anchor="start" x="554.67" y="-15.4" font-family="Times-12" font-size="14.00"> &#160;Providers</text>
<polygon fill="#fb8072" stroke="transparent" points="627,-10 627,-30 647,-30 647,-10 627,-10"/>
<text text-anchor="start" x="650.73" y="-15.4" font-family="Times-12" font-size="14.00"> &#160;Exports</text>
<g id="clust1" class="cluster">
<title>cluster_AppModule</title>
<polygon fill="none" stroke="black" stroke-dasharray="1,5" points="8,-70 8,-195 930,-195 930,-70 8,-70"/>
</g>
<g id="clust6" class="cluster">
<title>cluster_AppModule_providers</title>
<polygon fill="none" stroke="black" points="792,-78 792,-130 922,-130 922,-78 792,-78"/>
</g>
<g id="clust3" class="cluster">
<title>cluster_AppModule_imports</title>
<polygon fill="none" stroke="black" points="16,-78 16,-130 784,-130 784,-78 16,-78"/>
</g>
<!-- AuthModule -->
<g id="node1" class="node">
<title>AuthModule</title>
<polygon fill="#8dd3c7" stroke="black" points="775.55,-122 772.55,-126 751.55,-126 748.55,-122 688.45,-122 688.45,-86 775.55,-86 775.55,-122"/>
<text text-anchor="middle" x="732" y="-99.8" font-family="Times,serif" font-size="14.00">AuthModule</text>
</g>
<!-- AppModule -->
<g id="node7" class="node">
<title>AppModule</title>
<polygon fill="#8dd3c7" stroke="black" points="521.66,-187 518.66,-191 497.66,-191 494.66,-187 438.34,-187 438.34,-151 521.66,-151 521.66,-187"/>
<text text-anchor="middle" x="480" y="-164.8" font-family="Times,serif" font-size="14.00">AppModule</text>
</g>
<!-- AuthModule&#45;&gt;AppModule -->
<g id="edge1" class="edge">
<title>AuthModule&#45;&gt;AppModule</title>
<path fill="none" stroke="black" d="M732,-122.11C732,-141.34 732,-169 732,-169 732,-169 531.9,-169 531.9,-169"/>
<polygon fill="black" stroke="black" points="531.9,-165.5 521.9,-169 531.9,-172.5 531.9,-165.5"/>
</g>
<!-- BcryptModule -->
<g id="node2" class="node">
<title>BcryptModule</title>
<polygon fill="#8dd3c7" stroke="black" points="669.65,-122 666.65,-126 645.65,-126 642.65,-122 572.35,-122 572.35,-86 669.65,-86 669.65,-122"/>
<text text-anchor="middle" x="621" y="-99.8" font-family="Times,serif" font-size="14.00">BcryptModule</text>
</g>
<!-- BcryptModule&#45;&gt;AppModule -->
<g id="edge2" class="edge">
<title>BcryptModule&#45;&gt;AppModule</title>
<path fill="none" stroke="black" d="M621,-122.03C621,-138.4 621,-160 621,-160 621,-160 531.92,-160 531.92,-160"/>
<polygon fill="black" stroke="black" points="531.92,-156.5 521.92,-160 531.92,-163.5 531.92,-156.5"/>
</g>
<!-- BoardCommentModule -->
<g id="node3" class="node">
<title>BoardCommentModule</title>
<polygon fill="#8dd3c7" stroke="black" points="554.48,-122 551.48,-126 530.48,-126 527.48,-122 405.52,-122 405.52,-86 554.48,-86 554.48,-122"/>
<text text-anchor="middle" x="480" y="-99.8" font-family="Times,serif" font-size="14.00">BoardCommentModule</text>
</g>
<!-- BoardCommentModule&#45;&gt;AppModule -->
<g id="edge3" class="edge">
<title>BoardCommentModule&#45;&gt;AppModule</title>
<path fill="none" stroke="black" d="M480,-122.11C480,-122.11 480,-140.99 480,-140.99"/>
<polygon fill="black" stroke="black" points="476.5,-140.99 480,-150.99 483.5,-140.99 476.5,-140.99"/>
</g>
<!-- BoardModule -->
<g id="node4" class="node">
<title>BoardModule</title>
<polygon fill="#8dd3c7" stroke="black" points="387.76,-122 384.76,-126 363.76,-126 360.76,-122 294.24,-122 294.24,-86 387.76,-86 387.76,-122"/>
<text text-anchor="middle" x="341" y="-99.8" font-family="Times,serif" font-size="14.00">BoardModule</text>
</g>
<!-- BoardModule&#45;&gt;AppModule -->
<g id="edge4" class="edge">
<title>BoardModule&#45;&gt;AppModule</title>
<path fill="none" stroke="black" d="M341,-122.03C341,-138.4 341,-160 341,-160 341,-160 428.3,-160 428.3,-160"/>
<polygon fill="black" stroke="black" points="428.3,-163.5 438.3,-160 428.3,-156.5 428.3,-163.5"/>
</g>
<!-- BoardPasswordModule -->
<g id="node5" class="node">
<title>BoardPasswordModule</title>
<polygon fill="#8dd3c7" stroke="black" points="275.92,-122 272.92,-126 251.92,-126 248.92,-122 128.08,-122 128.08,-86 275.92,-86 275.92,-122"/>
<text text-anchor="middle" x="202" y="-99.8" font-family="Times,serif" font-size="14.00">BoardPasswordModule</text>
</g>
<!-- BoardPasswordModule&#45;&gt;AppModule -->
<g id="edge5" class="edge">
<title>BoardPasswordModule&#45;&gt;AppModule</title>
<path fill="none" stroke="black" d="M202,-122.11C202,-141.34 202,-169 202,-169 202,-169 428.08,-169 428.08,-169"/>
<polygon fill="black" stroke="black" points="428.08,-172.5 438.08,-169 428.08,-165.5 428.08,-172.5"/>
</g>
<!-- UserModule -->
<g id="node6" class="node">
<title>UserModule</title>
<polygon fill="#8dd3c7" stroke="black" points="109.98,-122 106.98,-126 85.98,-126 82.98,-122 24.02,-122 24.02,-86 109.98,-86 109.98,-122"/>
<text text-anchor="middle" x="67" y="-99.8" font-family="Times,serif" font-size="14.00">UserModule</text>
</g>
<!-- UserModule&#45;&gt;AppModule -->
<g id="edge6" class="edge">
<title>UserModule&#45;&gt;AppModule</title>
<path fill="none" stroke="black" d="M67,-122.29C67,-144.21 67,-178 67,-178 67,-178 428.13,-178 428.13,-178"/>
<polygon fill="black" stroke="black" points="428.13,-181.5 438.13,-178 428.13,-174.5 428.13,-181.5"/>
</g>
<!-- AppService -->
<g id="node8" class="node">
<title>AppService</title>
<ellipse fill="#fdb462" stroke="black" cx="857" cy="-104" rx="56.74" ry="18"/>
<text text-anchor="middle" x="857" y="-99.8" font-family="Times,serif" font-size="14.00">AppService</text>
</g>
<!-- AppService&#45;&gt;AppModule -->
<g id="edge7" class="edge">
<title>AppService&#45;&gt;AppModule</title>
<path fill="none" stroke="black" d="M857,-122.29C857,-144.21 857,-178 857,-178 857,-178 531.79,-178 531.79,-178"/>
<polygon fill="black" stroke="black" points="531.79,-174.5 521.79,-178 531.79,-181.5 531.79,-174.5"/>
</g>
</g>
</svg>
