<svg width="24" height="24" viewBox="0 0 24 24" fill="none" xmlns="http://www.w3.org/2000/svg">
<path d="M11.9905 19.7094C11.7763 19.7094 11.5612 19.671 11.3453 19.5942C11.1293 19.5172 10.9392 19.3967 10.775 19.2327L9.3385 17.9269C7.5655 16.3102 5.9825 14.7221 4.5895 13.1624C3.1965 11.6027 2.5 9.9319 2.5 8.1499C2.5 6.73074 2.9785 5.54257 3.9355 4.5854C4.89267 3.6284 6.08083 3.1499 7.5 3.1499C8.30633 3.1499 9.10283 3.33582 9.8895 3.70765C10.676 4.07949 11.3795 4.68332 12 5.51915C12.6205 4.68332 13.324 4.07949 14.1105 3.70765C14.8972 3.33582 15.6937 3.1499 16.5 3.1499C17.9192 3.1499 19.1073 3.6284 20.0645 4.5854C21.0215 5.54257 21.5 6.73074 21.5 8.1499C21.5 9.95124 20.7917 11.6407 19.375 13.2182C17.9583 14.7957 16.3788 16.3703 14.6365 17.9422L13.2153 19.2327C13.0512 19.3967 12.8597 19.5172 12.6405 19.5942C12.4212 19.671 12.2045 19.7094 11.9905 19.7094ZM11.2808 7.0384C10.7398 6.21407 10.1702 5.6099 9.572 5.2259C8.974 4.8419 8.28333 4.6499 7.5 4.6499C6.5 4.6499 5.66667 4.98324 5 5.6499C4.33333 6.31657 4 7.1499 4 8.1499C4 8.9524 4.25867 9.79149 4.776 10.6672C5.29333 11.5428 5.94267 12.4133 6.724 13.2787C7.50533 14.1442 8.35183 14.9897 9.2635 15.8152C10.175 16.6408 11.0198 17.4082 11.798 18.1172C11.8557 18.1685 11.923 18.1942 12 18.1942C12.077 18.1942 12.1443 18.1685 12.202 18.1172C12.9802 17.4082 13.825 16.6408 14.7365 15.8152C15.6482 14.9897 16.4947 14.1442 17.276 13.2787C18.0573 12.4133 18.7067 11.5428 19.224 10.6672C19.7413 9.79149 20 8.9524 20 8.1499C20 7.1499 19.6667 6.31657 19 5.6499C18.3333 4.98324 17.5 4.6499 16.5 4.6499C15.7167 4.6499 15.026 4.8419 14.428 5.2259C13.8298 5.6099 13.2603 6.21407 12.7192 7.0384C12.6346 7.16657 12.5282 7.26274 12.4 7.3269C12.2718 7.3909 12.1385 7.4229 12 7.4229C11.8615 7.4229 11.7282 7.3909 11.6 7.3269C11.4718 7.26274 11.3654 7.16657 11.2808 7.0384Z" fill="#F66A6A"/>
</svg>
