<svg width="24" height="24" viewBox="0 0 24 24" fill="none" xmlns="http://www.w3.org/2000/svg">
<path d="M5.30775 20.501C4.80258 20.501 4.375 20.326 4.025 19.976C3.675 19.626 3.5 19.1984 3.5 18.6933V5.30875C3.5 4.80358 3.675 4.376 4.025 4.026C4.375 3.676 4.80258 3.501 5.30775 3.501H12.1598C12.4098 3.501 12.5973 3.5795 12.7223 3.7365C12.8473 3.89367 12.9098 4.06517 12.9098 4.251C12.9098 4.43683 12.8447 4.60833 12.7145 4.7655C12.5843 4.9225 12.3942 5.001 12.1442 5.001H5.30775C5.23075 5.001 5.16025 5.03308 5.09625 5.09725C5.03208 5.16125 5 5.23175 5 5.30875V18.6933C5 18.7703 5.03208 18.8407 5.09625 18.9047C5.16025 18.9689 5.23075 19.001 5.30775 19.001H18.6923C18.7692 19.001 18.8398 18.9689 18.9038 18.9047C18.9679 18.8407 19 18.7703 19 18.6933V11.7933C19 11.5433 19.0785 11.3558 19.2355 11.2308C19.3927 11.1058 19.5642 11.0433 19.75 11.0433C19.9358 11.0433 20.1073 11.1058 20.2645 11.2308C20.4215 11.3558 20.5 11.5433 20.5 11.7933V18.6933C20.5 19.1984 20.325 19.626 19.975 19.976C19.625 20.326 19.1974 20.501 18.6923 20.501H5.30775ZM9.5 13.597V11.8165C9.5 11.5753 9.54683 11.3436 9.6405 11.1212C9.734 10.8987 9.86283 10.7055 10.027 10.5415L18.5598 2.00875C18.7148 1.85358 18.8853 1.74042 19.0712 1.66925C19.2571 1.59808 19.4462 1.5625 19.6385 1.5625C19.8347 1.5625 20.0231 1.59808 20.2038 1.66925C20.3846 1.74042 20.5493 1.85033 20.698 1.999L21.9538 3.251C22.0986 3.40617 22.2098 3.57733 22.2875 3.7645C22.365 3.95167 22.4038 4.14142 22.4038 4.33375C22.4038 4.52608 22.3708 4.71258 22.3048 4.89325C22.2388 5.07408 22.1282 5.242 21.973 5.397L13.4115 13.9587C13.2473 14.1227 13.0541 14.2542 12.8318 14.353C12.6093 14.4517 12.3775 14.501 12.1365 14.501H10.404C10.1462 14.501 9.93108 14.4147 9.75875 14.2422C9.58625 14.0699 9.5 13.8548 9.5 13.597ZM11 13.001H12.2463L18.4788 6.76825L17.8558 6.14525L17.1885 5.503L11 11.6915V13.001Z" fill="white"/>
</svg>
