<svg width="12" height="14" viewBox="0 0 12 14" fill="none" xmlns="http://www.w3.org/2000/svg">
<path d="M4 10.9987C3.63333 10.9987 3.31944 10.8681 3.05833 10.607C2.79722 10.3459 2.66667 10.032 2.66667 9.66536V1.66536C2.66667 1.2987 2.79722 0.984809 3.05833 0.723698C3.31944 0.462587 3.63333 0.332031 4 0.332031H10C10.3667 0.332031 10.6806 0.462587 10.9417 0.723698C11.2028 0.984809 11.3333 1.2987 11.3333 1.66536V9.66536C11.3333 10.032 11.2028 10.3459 10.9417 10.607C10.6806 10.8681 10.3667 10.9987 10 10.9987H4ZM4 9.66536H10V1.66536H4V9.66536ZM1.33333 13.6654C0.966667 13.6654 0.652778 13.5348 0.391667 13.2737C0.130556 13.0126 0 12.6987 0 12.332V3.66536C0 3.47648 0.0638889 3.31814 0.191667 3.19036C0.319444 3.06259 0.477778 2.9987 0.666667 2.9987C0.855556 2.9987 1.01389 3.06259 1.14167 3.19036C1.26944 3.31814 1.33333 3.47648 1.33333 3.66536V12.332H8C8.18889 12.332 8.34722 12.3959 8.475 12.5237C8.60278 12.6515 8.66667 12.8098 8.66667 12.9987C8.66667 13.1876 8.60278 13.3459 8.475 13.4737C8.34722 13.6015 8.18889 13.6654 8 13.6654H1.33333Z" fill="#5F6368"/>
</svg>
