<?xml version="1.0" encoding="UTF-8" standalone="no"?>
<!DOCTYPE svg PUBLIC "-//W3C//DTD SVG 1.1//EN"
 "http://www.w3.org/Graphics/SVG/1.1/DTD/svg11.dtd">
<!-- Generated by graphviz version 2.47.0 (20210316.0004)
 -->
<!-- Title: dependencies Pages: 1 -->
<svg width="552pt" height="211pt"
 viewBox="0.00 0.00 552.00 211.00" xmlns="http://www.w3.org/2000/svg" xmlns:xlink="http://www.w3.org/1999/xlink">
<g id="graph0" class="graph" transform="scale(1 1) rotate(0) translate(4 207)">
<title>dependencies</title>
<polygon fill="white" stroke="transparent" points="-4,4 -4,-207 548,-207 548,4 -4,4"/>
<text text-anchor="start" x="251.01" y="-42.4" font-family="Times-12" font-weight="bold" font-size="14.00">Legend</text>
<polygon fill="#ffffb3" stroke="transparent" points="38,-10 38,-30 58,-30 58,-10 38,-10"/>
<text text-anchor="start" x="61.63" y="-15.4" font-family="Times-12" font-size="14.00"> &#160;Declarations</text>
<polygon fill="#8dd3c7" stroke="transparent" points="151,-10 151,-30 171,-30 171,-10 151,-10"/>
<text text-anchor="start" x="174.73" y="-15.4" font-family="Times-12" font-size="14.00"> &#160;Module</text>
<polygon fill="#80b1d3" stroke="transparent" points="237,-10 237,-30 257,-30 257,-10 237,-10"/>
<text text-anchor="start" x="260.78" y="-15.4" font-family="Times-12" font-size="14.00"> &#160;Bootstrap</text>
<polygon fill="#fdb462" stroke="transparent" points="334,-10 334,-30 354,-30 354,-10 334,-10"/>
<text text-anchor="start" x="357.67" y="-15.4" font-family="Times-12" font-size="14.00"> &#160;Providers</text>
<polygon fill="#fb8072" stroke="transparent" points="430,-10 430,-30 450,-30 450,-10 430,-10"/>
<text text-anchor="start" x="453.73" y="-15.4" font-family="Times-12" font-size="14.00"> &#160;Exports</text>
<g id="clust1" class="cluster">
<title>cluster_BoardPasswordModule</title>
<polygon fill="none" stroke="black" stroke-dasharray="1,5" points="8,-70 8,-195 536,-195 536,-70 8,-70"/>
</g>
<g id="clust6" class="cluster">
<title>cluster_BoardPasswordModule_providers</title>
<polygon fill="none" stroke="black" points="138,-78 138,-130 528,-130 528,-78 138,-78"/>
</g>
<g id="clust3" class="cluster">
<title>cluster_BoardPasswordModule_imports</title>
<polygon fill="none" stroke="black" points="16,-78 16,-130 130,-130 130,-78 16,-78"/>
</g>
<!-- BcryptModule -->
<g id="node1" class="node">
<title>BcryptModule</title>
<polygon fill="#8dd3c7" stroke="black" points="121.65,-122 118.65,-126 97.65,-126 94.65,-122 24.35,-122 24.35,-86 121.65,-86 121.65,-122"/>
<text text-anchor="middle" x="73" y="-99.8" font-family="Times,serif" font-size="14.00">BcryptModule</text>
</g>
<!-- BoardPasswordModule -->
<g id="node2" class="node">
<title>BoardPasswordModule</title>
<polygon fill="#8dd3c7" stroke="black" points="296.92,-187 293.92,-191 272.92,-191 269.92,-187 149.08,-187 149.08,-151 296.92,-151 296.92,-187"/>
<text text-anchor="middle" x="223" y="-164.8" font-family="Times,serif" font-size="14.00">BoardPasswordModule</text>
</g>
<!-- BcryptModule&#45;&gt;BoardPasswordModule -->
<g id="edge1" class="edge">
<title>BcryptModule&#45;&gt;BoardPasswordModule</title>
<path fill="none" stroke="black" d="M73,-122.11C73,-141.34 73,-169 73,-169 73,-169 138.88,-169 138.88,-169"/>
<polygon fill="black" stroke="black" points="138.88,-172.5 148.88,-169 138.88,-165.5 138.88,-172.5"/>
</g>
<!-- BoardPasswordService -->
<g id="node3" class="node">
<title>BoardPasswordService</title>
<ellipse fill="#fdb462" stroke="black" cx="419" cy="-104" rx="100.7" ry="18"/>
<text text-anchor="middle" x="419" y="-99.8" font-family="Times,serif" font-size="14.00">BoardPasswordService</text>
</g>
<!-- BoardPasswordService&#45;&gt;BoardPasswordModule -->
<g id="edge2" class="edge">
<title>BoardPasswordService&#45;&gt;BoardPasswordModule</title>
<path fill="none" stroke="black" d="M419,-122.11C419,-141.34 419,-169 419,-169 419,-169 306.82,-169 306.82,-169"/>
<polygon fill="black" stroke="black" points="306.82,-165.5 296.82,-169 306.82,-172.5 306.82,-165.5"/>
</g>
<!-- BoardRepository -->
<g id="node4" class="node">
<title>BoardRepository</title>
<ellipse fill="#fdb462" stroke="black" cx="223" cy="-104" rx="77.03" ry="18"/>
<text text-anchor="middle" x="223" y="-99.8" font-family="Times,serif" font-size="14.00">BoardRepository</text>
</g>
<!-- BoardRepository&#45;&gt;BoardPasswordModule -->
<g id="edge3" class="edge">
<title>BoardRepository&#45;&gt;BoardPasswordModule</title>
<path fill="none" stroke="black" d="M223,-122.11C223,-122.11 223,-140.99 223,-140.99"/>
<polygon fill="black" stroke="black" points="219.5,-140.99 223,-150.99 226.5,-140.99 219.5,-140.99"/>
</g>
</g>
</svg>
