<svg width="14" height="14" viewBox="0 0 14 14" fill="none" xmlns="http://www.w3.org/2000/svg">
<path d="M7.00005 8.40078L2.10005 13.3008C1.91672 13.4841 1.68338 13.5758 1.40005 13.5758C1.11672 13.5758 0.883382 13.4841 0.700049 13.3008C0.516715 13.1174 0.425049 12.8841 0.425049 12.6008C0.425049 12.3174 0.516715 12.0841 0.700049 11.9008L5.60005 7.00078L0.700049 2.10078C0.516715 1.91745 0.425049 1.68411 0.425049 1.40078C0.425049 1.11745 0.516715 0.884115 0.700049 0.700781C0.883382 0.517448 1.11672 0.425781 1.40005 0.425781C1.68338 0.425781 1.91672 0.517448 2.10005 0.700781L7.00005 5.60078L11.9 0.700781C12.0834 0.517448 12.3167 0.425781 12.6 0.425781C12.8834 0.425781 13.1167 0.517448 13.3 0.700781C13.4834 0.884115 13.575 1.11745 13.575 1.40078C13.575 1.68411 13.4834 1.91745 13.3 2.10078L8.40005 7.00078L13.3 11.9008C13.4834 12.0841 13.575 12.3174 13.575 12.6008C13.575 12.8841 13.4834 13.1174 13.3 13.3008C13.1167 13.4841 12.8834 13.5758 12.6 13.5758C12.3167 13.5758 12.0834 13.4841 11.9 13.3008L7.00005 8.40078Z" fill="black"/>
</svg>
