<svg width="19" height="10" viewBox="0 0 19 10" fill="none" xmlns="http://www.w3.org/2000/svg">
<path d="M9.10145 2.61068L2.0598 9.65232C1.82029 9.89183 1.53687 10.0076 1.20953 9.99961C0.882202 9.99163 0.598779 9.86788 0.359268 9.62837C0.119756 9.38886 0 9.10544 0 8.7781C0 8.45077 0.119756 8.16735 0.359268 7.92784L7.73623 0.574828C7.92784 0.383219 8.1434 0.239511 8.38291 0.143707C8.62242 0.0479021 8.86193 0 9.10145 0C9.34096 0 9.58047 0.0479021 9.81998 0.143707C10.0595 0.239511 10.2751 0.383219 10.4667 0.574828L17.8436 7.95179C18.0831 8.1913 18.1989 8.47073 18.1909 8.79008C18.1829 9.10943 18.0592 9.38886 17.8197 9.62837C17.5802 9.86788 17.2967 9.98764 16.9694 9.98764C16.6421 9.98764 16.3587 9.86788 16.1191 9.62837L9.10145 2.61068Z" fill="#5F6368"/>
</svg>
