<svg width="24" height="24" viewBox="0 0 24 24" fill="none" xmlns="http://www.w3.org/2000/svg">
<path d="M8.68075 13.75C8.54525 13.75 8.43609 13.7043 8.35325 13.613C8.27042 13.5218 8.229 13.4154 8.229 13.2937C8.229 13.2632 8.27575 13.1577 8.36925 12.977L11.5203 9.826C11.5926 9.7535 11.6674 9.70058 11.7448 9.66725C11.8221 9.63392 11.9072 9.61725 12 9.61725C12.0928 9.61725 12.1779 9.63392 12.2553 9.66725C12.3326 9.70058 12.4074 9.7535 12.4798 9.826L15.631 12.977C15.6743 13.0205 15.7085 13.0691 15.7335 13.1227C15.7585 13.1762 15.771 13.2337 15.771 13.295C15.771 13.4175 15.7296 13.524 15.6468 13.6145C15.5639 13.7048 15.4548 13.75 15.3193 13.75H8.68075Z" fill="#333333"/>
</svg>
