<svg width="40" height="40" viewBox="0 0 40 40" fill="none" xmlns="http://www.w3.org/2000/svg">
<rect x="0.5" y="0.5" width="39" height="39" rx="19.5" fill="white" fill-opacity="0.9"/>
<rect x="0.5" y="0.5" width="39" height="39" rx="19.5" stroke="#F2F2F2"/>
<path d="M20.1014 17.6107L13.0598 24.6523C12.8203 24.8918 12.5369 25.0076 12.2095 24.9996C11.8822 24.9916 11.5988 24.8679 11.3593 24.6284C11.1198 24.3889 11 24.1054 11 23.7781C11 23.4508 11.1198 23.1673 11.3593 22.9278L18.7362 15.5748C18.9278 15.3832 19.1434 15.2395 19.3829 15.1437C19.6224 15.0479 19.8619 15 20.1014 15C20.341 15 20.5805 15.0479 20.82 15.1437C21.0595 15.2395 21.2751 15.3832 21.4667 15.5748L28.8436 22.9518C29.0831 23.1913 29.1989 23.4707 29.1909 23.7901C29.1829 24.1094 29.0592 24.3889 28.8197 24.6284C28.5802 24.8679 28.2967 24.9876 27.9694 24.9876C27.6421 24.9876 27.3587 24.8679 27.1191 24.6284L20.1014 17.6107Z" fill="#5F6368"/>
</svg>
