<svg width="24" height="24" viewBox="0 0 24 24" fill="none" xmlns="http://www.w3.org/2000/svg">
<path d="M4 8.5C4 9.01917 4.09708 9.52783 4.29125 10.026C4.48558 10.524 4.827 11.091 5.3155 11.727C5.80383 12.3628 6.46025 13.1177 7.28475 13.9915C8.10908 14.8652 9.15458 15.9404 10.4213 17.2172C10.4879 17.2839 10.5588 17.3047 10.6337 17.2797C10.7088 17.2547 10.7546 17.2006 10.7713 17.1172L11.304 11.75H10.7845C10.0642 11.75 9.48925 11.467 9.05975 10.901C8.63025 10.335 8.51292 9.70775 8.70775 9.01925L9.773 5.29025C9.4615 5.13142 9.1345 5.00167 8.792 4.901C8.44967 4.80033 8.10233 4.75 7.75 4.75C6.71433 4.75 5.83042 5.11608 5.09825 5.84825C4.36608 6.58042 4 7.46433 4 8.5ZM19.9807 8.5C19.9807 7.46433 19.6147 6.58042 18.8825 5.84825C18.1503 5.11608 17.2664 4.75 16.2308 4.75C16.0089 4.75 15.7903 4.7705 15.575 4.8115C15.3597 4.8525 15.1443 4.90958 14.9288 4.98275L14.1845 7.25H14.5885C15.2358 7.37317 15.7258 7.72283 16.0585 8.299C16.3913 8.87533 16.4571 9.48717 16.2557 10.1345L14.523 15.827C14.4897 15.9167 14.5188 15.9891 14.6105 16.0442C14.7022 16.0994 14.7897 16.0853 14.873 16.002C15.9435 14.9083 16.8134 13.9929 17.4827 13.2557C18.1519 12.5186 18.6711 11.8788 19.0403 11.3365C19.4096 10.7942 19.6587 10.3089 19.7875 9.88075C19.9163 9.45258 19.9807 8.99233 19.9807 8.5ZM12.0253 20.0422C11.8051 20.0422 11.5887 20.0006 11.3763 19.9172C11.1639 19.8339 10.9757 19.7153 10.8115 19.5615C9.14867 18.0257 7.78108 16.7231 6.70875 15.6537C5.63625 14.5846 4.78717 13.6439 4.1615 12.8317C3.53583 12.0196 3.1025 11.2782 2.8615 10.6077C2.6205 9.93725 2.5 9.23583 2.5 8.5035C2.5 7.03883 3.00908 5.79708 4.02725 4.77825C5.04542 3.75942 6.28633 3.25 7.75 3.25C8.76667 3.25 9.66283 3.4385 10.4385 3.8155C11.2142 4.19233 11.4949 4.74867 11.2808 5.4845L10.2787 9.00375C10.1954 9.32442 10.2402 9.61225 10.413 9.86725C10.5858 10.1224 10.8225 10.25 11.123 10.25H12.9423L12.3405 16.41C12.3238 16.5418 12.378 16.6161 12.503 16.6327C12.628 16.6494 12.7072 16.5994 12.7405 16.4827L14.7155 10.0115C14.809 9.691 14.7686 9.40058 14.5943 9.14025C14.4199 8.88008 14.1821 8.75 13.8807 8.75H12.077L13.477 4.58075C13.6475 4.04875 14.0036 3.69392 14.5452 3.51625C15.0869 3.33875 15.6487 3.25 16.2308 3.25C17.6936 3.25 18.9375 3.75908 19.9625 4.77725C20.9875 5.79542 21.5 7.03633 21.5 8.5C21.5 9.2095 21.3634 9.91092 21.0903 10.6042C20.8172 11.2976 20.3612 12.0663 19.722 12.9105C19.083 13.7548 18.2349 14.71 17.1777 15.776C16.1207 16.842 14.8032 18.1038 13.225 19.5615C13.0615 19.7218 12.8757 19.842 12.6678 19.922C12.4598 20.0022 12.2456 20.0422 12.0253 20.0422Z" fill="#333333"/>
</svg>
