<svg width="24" height="24" viewBox="0 0 24 24" fill="none" xmlns="http://www.w3.org/2000/svg">
<path d="M2.5 20.8463V18.0963C2.5 17.8988 2.53017 17.7096 2.5905 17.5288C2.65067 17.3481 2.741 17.1757 2.8615 17.0115L11.0673 5.96354L10.0808 4.6348C10.0168 4.55013 9.97283 4.45971 9.949 4.36354C9.92533 4.26738 9.92025 4.1728 9.93375 4.0798C9.94725 3.98696 9.97925 3.89663 10.0298 3.80879C10.0804 3.72096 10.1481 3.64496 10.2327 3.58079C10.4084 3.45263 10.5943 3.40204 10.7905 3.42904C10.9867 3.45588 11.1488 3.55713 11.277 3.73279L12 4.71155L12.723 3.73279C12.8512 3.55713 13.015 3.45588 13.2145 3.42904C13.4138 3.40204 13.6013 3.45263 13.777 3.58079C13.9525 3.70913 14.0538 3.87296 14.0807 4.0723C14.1076 4.27163 14.0569 4.45913 13.9288 4.6348L12.9423 5.96354L21.1385 17.0115C21.259 17.1757 21.3493 17.3481 21.4095 17.5288C21.4698 17.7096 21.5 17.8988 21.5 18.0963V20.8463C21.5 21.104 21.4138 21.319 21.2413 21.4913C21.0689 21.6638 20.8538 21.75 20.596 21.75H3.404C3.14617 21.75 2.93108 21.6638 2.75875 21.4913C2.58625 21.319 2.5 21.104 2.5 20.8463ZM12 7.22504L4 17.9905V20.25H7.125L11.2615 14.4673C11.4423 14.2096 11.6885 14.0808 12 14.0808C12.3115 14.0808 12.5577 14.2096 12.7385 14.4673L16.875 20.25H20V17.9905L12 7.22504ZM8.96925 20.25H15.0307L12 16.0173L8.96925 20.25ZM12.748 14.4673L16.875 20.25L12.7385 14.4673C12.5577 14.2096 12.3115 14.0808 12 14.0808C11.6885 14.0808 11.4423 14.2096 11.2615 14.4673C11.4423 14.2096 11.6901 14.0808 12.0048 14.0808C12.3196 14.0808 12.5673 14.2096 12.748 14.4673Z" fill="#333333"/>
</svg>
