<svg width="24" height="24" viewBox="0 0 24 24" fill="none" xmlns="http://www.w3.org/2000/svg">
<path d="M12.0005 13.0538L6.9275 18.127C6.789 18.2653 6.61492 18.3362 6.40525 18.3395C6.19575 18.3427 6.0185 18.2718 5.8735 18.127C5.72867 17.982 5.65625 17.8063 5.65625 17.6C5.65625 17.3937 5.72867 17.218 5.8735 17.073L10.9468 12L5.8735 6.92701C5.73517 6.78851 5.66433 6.61443 5.661 6.40476C5.65783 6.19526 5.72867 6.01801 5.8735 5.87301C6.0185 5.72818 6.19417 5.65576 6.4005 5.65576C6.60683 5.65576 6.7825 5.72818 6.9275 5.87301L12.0005 10.9463L17.0735 5.87301C17.212 5.73468 17.3861 5.66385 17.5957 5.66051C17.8053 5.65735 17.9825 5.72818 18.1275 5.87301C18.2723 6.01801 18.3448 6.19368 18.3448 6.40001C18.3448 6.60635 18.2723 6.78201 18.1275 6.92701L13.0543 12L18.1275 17.073C18.2658 17.2115 18.3367 17.3856 18.34 17.5953C18.3432 17.8048 18.2723 17.982 18.1275 18.127C17.9825 18.2718 17.8068 18.3443 17.6005 18.3443C17.3942 18.3443 17.2185 18.2718 17.0735 18.127L12.0005 13.0538Z" fill="#333333"/>
</svg>
