<svg width="24" height="24" viewBox="0 0 24 24" fill="none" xmlns="http://www.w3.org/2000/svg">
<path d="M9.09868 12L16.6314 4.46725C16.8301 4.26858 16.9268 4.03208 16.9217 3.75775C16.9165 3.48342 16.8146 3.24683 16.6159 3.048C16.4173 2.84933 16.1808 2.75 15.9064 2.75C15.6321 2.75 15.3955 2.84933 15.1967 3.048L7.54093 10.7193C7.36026 10.9001 7.22635 11.1027 7.13918 11.327C7.05185 11.5513 7.00818 11.7757 7.00818 12C7.00818 12.2243 7.05185 12.4487 7.13918 12.673C7.22635 12.8973 7.36026 13.0999 7.54093 13.2808L15.2122 20.952C15.4108 21.1507 15.6448 21.2474 15.9139 21.2423C16.1833 21.2371 16.4173 21.1352 16.6159 20.9365C16.8146 20.7378 16.9139 20.5013 16.9139 20.227C16.9139 19.9527 16.8146 19.7161 16.6159 19.5173L9.09868 12Z" fill="#333333"/>
</svg>
