<svg width="24" height="24" viewBox="0 0 24 24" fill="none" xmlns="http://www.w3.org/2000/svg">
<path d="M7.11466 17.1153C6.86399 17.1153 6.65382 17.0305 6.48416 16.861C6.31466 16.6915 6.22991 16.4814 6.22991 16.2308V14.7308H18.6049L18.9222 15.048V6H20.4222C20.6728 6 20.8829 6.08475 21.0524 6.25425C21.2221 6.42392 21.3069 6.634 21.3069 6.8845V18.4693C21.3069 18.8723 21.1219 19.1522 20.7519 19.309C20.3821 19.4658 20.0548 19.4019 19.7702 19.1173L17.7684 17.1153H7.11466ZM6.22991 12.7308L4.22816 14.7328C3.94349 15.0173 3.61624 15.0812 3.24641 14.9245C2.87641 14.7677 2.69141 14.4877 2.69141 14.0845V3.38475C2.69141 3.13408 2.77624 2.92392 2.94591 2.75425C3.11541 2.58475 3.32549 2.5 3.57616 2.5H16.0377C16.2883 2.5 16.4984 2.58475 16.6679 2.75425C16.8374 2.92392 16.9222 3.13408 16.9222 3.38475V11.8463C16.9222 12.0968 16.8374 12.3068 16.6679 12.4765C16.4984 12.646 16.2883 12.7308 16.0377 12.7308H6.22991ZM15.4222 11.2308V4H4.19141V11.9233L4.88391 11.2308H15.4222Z" fill="#333333"/>
</svg>
