<svg width="24" height="24" viewBox="0 0 24 24" fill="none" xmlns="http://www.w3.org/2000/svg">
<path d="M11.2503 21.5C11.0378 21.5 10.8597 21.4281 10.716 21.2843C10.5722 21.1404 10.5003 20.9623 10.5003 20.7498C10.5003 20.5371 10.5722 20.359 10.716 20.2155C10.8597 20.0719 11.0378 20 11.2503 20H21.7503C21.9628 20 22.1409 20.0719 22.2845 20.2158C22.4284 20.3596 22.5003 20.5378 22.5003 20.7503C22.5003 20.9629 22.4284 21.141 22.2845 21.2845C22.1409 21.4282 21.9628 21.5 21.7503 21.5H11.2503ZM11.5003 18.8078C11.5003 17.5539 11.9044 16.4629 12.7128 15.5345C13.5211 14.6064 14.5336 14.0544 15.7503 13.8788V13.3598C15.7503 13.1533 15.8222 12.9766 15.966 12.8298C16.1097 12.6831 16.2878 12.6098 16.5003 12.6098C16.7066 12.6098 16.8832 12.6831 17.03 12.8298C17.1769 12.9766 17.2503 13.1533 17.2503 13.3598V13.8788C18.4566 14.0544 19.4665 14.6064 20.28 15.5345C21.0935 16.4629 21.5003 17.5539 21.5003 18.8078H11.5003ZM13.4138 17.2923H19.5465C19.2875 16.7013 18.8865 16.2186 18.3435 15.8443C17.8005 15.4699 17.1861 15.2828 16.5003 15.2828C15.8041 15.2828 15.1804 15.4699 14.629 15.8443C14.0779 16.2186 13.6728 16.7013 13.4138 17.2923ZM1.51953 10.9423V4.40403C1.51953 3.9822 1.66728 3.62353 1.96278 3.32803C2.25828 3.03253 2.61695 2.88478 3.03878 2.88478H5.00028C5.32978 2.88478 5.64486 2.9992 5.94553 3.22803C6.24603 3.45686 6.43736 3.73603 6.51953 4.06553V4.25778L13.3003 2.31353C13.4644 2.27003 13.6384 2.24661 13.8223 2.24328C14.0063 2.24011 14.1804 2.2687 14.3445 2.32903L20.7905 4.34228C20.9567 4.39411 21.0877 4.48803 21.1835 4.62403C21.2792 4.7602 21.327 4.91245 21.327 5.08078V5.25003C21.327 5.96803 21.0643 6.57378 20.5388 7.06728C20.0131 7.56095 19.3849 7.80778 18.654 7.80778H16.3848V8.35003C16.3848 8.7347 16.2688 9.0802 16.0368 9.38653C15.8048 9.69286 15.5067 9.91786 15.1425 10.0615L8.99253 12.346C8.8887 12.3794 8.78587 12.4069 8.68403 12.4288C8.58203 12.4506 8.47395 12.4615 8.35978 12.4615H3.03878C2.61695 12.4615 2.25828 12.3138 1.96278 12.0183C1.66728 11.7228 1.51953 11.3641 1.51953 10.9423ZM3.01953 7.67303V10.9615H5.01953V4.38478H3.01953V7.67303ZM6.51953 8.38478V10.9615H8.42728L14.3233 8.79803C14.4949 8.73653 14.6314 8.6327 14.7328 8.48653C14.8341 8.34036 14.8848 8.17503 14.8848 7.99053V7.80778H13.033L10.8175 8.54428C10.6214 8.60828 10.4313 8.59228 10.2473 8.49628C10.0634 8.40011 9.93945 8.24878 9.87528 8.04228C9.81112 7.83978 9.8232 7.64903 9.91153 7.47003C9.9997 7.2912 10.1447 7.16978 10.3465 7.10578L12.758 6.30778H18.654C18.8425 6.30778 19.0653 6.24561 19.3223 6.12128C19.5794 5.99695 19.7209 5.82445 19.7465 5.60378L13.7773 3.75378L6.51953 5.80778V8.38478Z" fill="#333333"/>
</svg>
