<?xml version="1.0" ?><svg height="519px" version="1.1" viewBox="0 0 519 519" width="519px" xmlns="http://www.w3.org/2000/svg" xmlns:xlink="http://www.w3.org/1999/xlink"><title/><desc/><defs><radialGradient cx="50%" cy="18.3997132%" fx="50%" fy="18.3997132%" id="radialGradient-1" r="59.6759141%"><stop offset="0%" stop-color="#FDE990"/><stop offset="100%" stop-color="#FACE57"/></radialGradient><radialGradient cx="50%" cy="44.7705207%" fx="50%" fy="44.7705207%" gradientTransform="translate(0.500000,0.447705),rotate(-88.879799),scale(1.000000,1.022987),translate(-0.500000,-0.447705)" id="radialGradient-2" r="49.9681774%"><stop offset="0%" stop-color="#D27C12" stop-opacity="0.186216128"/><stop offset="85.6313345%" stop-color="#D27C12" stop-opacity="0"/><stop offset="100%" stop-color="#D27C12" stop-opacity="0.324546547"/></radialGradient><linearGradient id="linearGradient-3" x1="50%" x2="50%" y1="0%" y2="100%"><stop offset="0%" stop-color="#EEB643"/><stop offset="100%" stop-color="#FCE486"/></linearGradient><linearGradient id="linearGradient-4" x1="50%" x2="50%" y1="0%" y2="100%"><stop offset="0%" stop-color="#000000"/><stop offset="100%" stop-color="#887133"/></linearGradient><linearGradient id="linearGradient-5" x1="53.4159909%" x2="46.5840091%" y1="0.372692418%" y2="99.6273076%"><stop offset="0%" stop-color="#251C0C"/><stop offset="100%" stop-color="#000000"/></linearGradient></defs><g fill="none" fill-rule="evenodd" id="Page-1" stroke="none" stroke-width="1"><g id="Artboard" transform="translate(-718.000000, -1626.000000)"><g id="Group-6" transform="translate(718.000000, 1626.000000)"><circle cx="259.5" cy="259.5" fill="url(#radialGradient-1)" id="Oval" r="259.5"/><circle cx="259.5" cy="259.5" fill="url(#radialGradient-2)" id="Oval" r="259.5"/><ellipse cx="267.5" cy="363.75" fill="url(#linearGradient-3)" id="Oval" opacity="0.879673549" rx="83.5" ry="107.25"/><ellipse cx="267.5" cy="363" fill="url(#linearGradient-4)" id="Oval" opacity="0.879673549" rx="78.5" ry="103"/><path d="M151.90429,228.871037 C167.706009,231.063437 185.289662,204.97601 188.492544,175.5 C191.695426,146.02399 179.30467,124.321362 163.50295,122.128963 C147.701231,119.936563 126.617943,146.02399 123.415061,175.5 C120.21218,204.97601 136.102571,226.678638 151.90429,228.871037 Z" fill="url(#linearGradient-5)" id="Oval" opacity="0.879673549"/><path d="M382.09571,228.871037 C366.293991,231.063437 348.710338,204.97601 345.507456,175.5 C342.304574,146.02399 354.69533,124.321362 370.49705,122.128963 C386.298769,119.936563 407.382057,146.02399 410.584939,175.5 C413.78782,204.97601 397.897429,226.678638 382.09571,228.871037 Z" fill="url(#linearGradient-5)" id="Oval" opacity="0.879673549"/><path d="M115.713211,54.4542242 C140.329049,24.4552822 170.679103,20.8369349 201.31227,44.3199213 C206.568689,48.3494234 207.552789,55.8634802 203.510319,61.1030368 C199.508273,66.2901979 192.080025,67.3034917 186.831562,63.413417 L186.673191,63.2940343 C166.366358,47.7270812 150.725947,49.5917381 134.300856,69.6087439 C130.102583,74.7251145 122.538225,75.4802975 117.405388,71.2954925 C112.272552,67.1106874 111.514938,59.5705948 115.713211,54.4542242 Z" fill="#251C0C" fill-rule="nonzero" id="Path-6"/><path d="M331.713211,54.4542242 C356.329049,24.4552822 386.679103,20.8369349 417.31227,44.3199213 C422.568689,48.3494234 423.552789,55.8634802 419.510319,61.1030368 C415.508273,66.2901979 408.080025,67.3034917 402.831562,63.413417 L402.673191,63.2940343 C382.366358,47.7270812 366.725947,49.5917381 350.300856,69.6087439 C346.102583,74.7251145 338.538225,75.4802975 333.405388,71.2954925 C328.272552,67.1106874 327.514938,59.5705948 331.713211,54.4542242 Z" fill="#251C0C" fill-rule="nonzero" id="Path-6" transform="translate(375.500000, 51.500000) scale(-1, 1) translate(-375.500000, -51.500000) "/></g></g></g></svg>