<svg width="160" height="160" viewBox="0 0 160 160" fill="none" xmlns="http://www.w3.org/2000/svg">
<rect width="160" height="160" rx="8" fill="#F2F2F2"/>
<path d="M78.7513 65.2503H70.418C70.0638 65.2503 69.767 65.1305 69.5276 64.8907C69.2878 64.651 69.168 64.3541 69.168 63.9999C69.168 63.6455 69.2878 63.3487 69.5276 63.1095C69.767 62.87 70.0638 62.7503 70.418 62.7503H78.7513V54.417C78.7513 54.0628 78.8712 53.766 79.1109 53.5266C79.3506 53.2869 79.6476 53.167 80.0017 53.167C80.3562 53.167 80.653 53.2869 80.8921 53.5266C81.1316 53.766 81.2513 54.0628 81.2513 54.417V62.7503H89.5846C89.9388 62.7503 90.2356 62.8702 90.4751 63.1099C90.7148 63.3496 90.8346 63.6466 90.8346 64.0007C90.8346 64.3552 90.7148 64.652 90.4751 64.8912C90.2356 65.1306 89.9388 65.2503 89.5846 65.2503H81.2513V73.5837C81.2513 73.9378 81.1314 74.2346 80.8917 74.4741C80.652 74.7138 80.3551 74.8337 80.0009 74.8337C79.6464 74.8337 79.3496 74.7138 79.1105 74.4741C78.871 74.2346 78.7513 73.9378 78.7513 73.5837V65.2503Z" fill="#777777"/>
<path d="M24.7031 99.0625H15.6719V98.0625H24.7031V99.0625ZM25.1094 99.1094C25.1094 99.9115 25.0859 100.638 25.0391 101.289C24.9922 101.94 24.875 102.672 24.6875 103.484L23.4844 103.344C23.6094 102.781 23.7031 102.255 23.7656 101.766C23.8281 101.276 23.8646 100.839 23.875 100.453C23.8854 100.068 23.8906 99.6198 23.8906 99.1094V98.0625H25.1094V99.1094ZM15.5 101.641L15.3438 100.656L24.2656 100.391V101.266L15.5 101.641ZM26.7188 104.078H14.0781V103.078H26.7188V104.078ZM25.2188 108.625H16.8125V110.516H15.5938V107.688H24V106.375H15.5625V105.422H25.2188V108.625ZM25.7031 111.078H15.5938V110.094H25.7031V111.078ZM39.3594 105.875H38.1406V97.3906H39.3594V105.875ZM39.3594 111.266H38.1406V107.641H30.0156V106.625H39.3594V111.266ZM29.75 104.062C31.1042 104.062 32.2839 104.031 33.2891 103.969C34.2943 103.906 35.3333 103.797 36.4062 103.641L36.5469 104.641C35.4427 104.807 34.3802 104.922 33.3594 104.984C32.3385 105.047 31.1354 105.078 29.75 105.078H28.625V104.062H29.75ZM34.9375 102.047H29.8125V104.578H28.625V101.078H33.7188V99.2188H28.5938V98.2188H34.9375V102.047ZM48.6562 100.781H41.6875V99.7812H48.6562V100.781ZM45.1719 101.719C45.7552 101.719 46.2734 101.852 46.7266 102.117C47.1797 102.383 47.5365 102.755 47.7969 103.234C48.0573 103.714 48.1875 104.26 48.1875 104.875C48.1875 105.49 48.0573 106.036 47.7969 106.516C47.5365 106.995 47.1797 107.372 46.7266 107.648C46.2734 107.924 45.7552 108.062 45.1719 108.062C44.599 108.062 44.0859 107.924 43.6328 107.648C43.1797 107.372 42.8255 106.992 42.5703 106.508C42.3151 106.023 42.1875 105.479 42.1875 104.875C42.1875 104.271 42.3151 103.727 42.5703 103.242C42.8255 102.758 43.1797 102.383 43.6328 102.117C44.0859 101.852 44.599 101.719 45.1719 101.719ZM45.1719 102.75C44.8177 102.75 44.4948 102.844 44.2031 103.031C43.9115 103.219 43.6849 103.471 43.5234 103.789C43.362 104.107 43.2812 104.469 43.2812 104.875C43.2812 105.281 43.3646 105.646 43.5312 105.969C43.6979 106.292 43.9245 106.542 44.2109 106.719C44.4974 106.896 44.8177 106.984 45.1719 106.984C45.5365 106.984 45.8646 106.896 46.1562 106.719C46.4479 106.542 46.6771 106.292 46.8438 105.969C47.0104 105.646 47.0938 105.281 47.0938 104.875C47.0938 104.469 47.0104 104.107 46.8438 103.789C46.6771 103.471 46.4479 103.219 46.1562 103.031C45.8646 102.844 45.5365 102.75 45.1719 102.75ZM53.5469 111.266H52.375V97.375H53.5469V111.266ZM52.7656 104.25H50.1094V103.234H52.7656V104.25ZM50.5312 110.578H49.375V97.7188H50.5312V110.578ZM45.7969 100.391H44.5781V97.7969H45.7969V100.391ZM66.4531 103.125H62.5469V102.125H66.4531V103.125ZM60.2031 101.109C60.2031 102.109 60.0339 103.091 59.6953 104.055C59.3568 105.018 58.8932 105.872 58.3047 106.617C57.7161 107.362 57.0573 107.932 56.3281 108.328L55.5312 107.344C56.2083 107.01 56.8255 106.516 57.3828 105.859C57.9401 105.203 58.3802 104.456 58.7031 103.617C59.026 102.779 59.1875 101.943 59.1875 101.109V98.5781H60.2031V101.109ZM60.4375 101.109C60.4375 101.932 60.599 102.745 60.9219 103.547C61.2448 104.349 61.6823 105.06 62.2344 105.68C62.7865 106.299 63.3958 106.766 64.0625 107.078L63.3281 108.078C62.5885 107.693 61.9245 107.143 61.3359 106.43C60.7474 105.716 60.2839 104.896 59.9453 103.969C59.6068 103.042 59.4375 102.089 59.4375 101.109V98.5781H60.4375V101.109ZM67.0625 111.297H65.8438V97.375H67.0625V111.297ZM77.8438 101.109C77.8438 102.109 77.6745 103.089 77.3359 104.047C76.9974 105.005 76.5339 105.854 75.9453 106.594C75.3568 107.333 74.6979 107.901 73.9688 108.297L73.1875 107.312C73.8646 106.979 74.4792 106.484 75.0312 105.828C75.5833 105.172 76.0234 104.427 76.3516 103.594C76.6797 102.76 76.8438 101.932 76.8438 101.109V98.5781H77.8438V101.109ZM78.0469 101.109C78.0469 101.901 78.2083 102.695 78.5312 103.492C78.8542 104.289 79.2917 105 79.8438 105.625C80.3958 106.25 80.9948 106.724 81.6406 107.047L80.8906 108.031C80.1719 107.646 79.5208 107.096 78.9375 106.383C78.3542 105.669 77.8958 104.852 77.5625 103.93C77.2292 103.008 77.0625 102.068 77.0625 101.109V98.5781H78.0469V101.109ZM84.1406 111.266H82.9219V97.375H84.1406V111.266ZM86.4688 104.078H83.8594V103.016H86.4688V104.078ZM92 100.359C92 101.182 91.8333 101.961 91.5 102.695C91.1667 103.43 90.7031 104.068 90.1094 104.609C89.5156 105.151 88.8333 105.562 88.0625 105.844L87.4219 104.859C88.1094 104.609 88.724 104.255 89.2656 103.797C89.8073 103.339 90.2292 102.812 90.5312 102.219C90.8333 101.625 90.9844 101.005 90.9844 100.359V98.9062H92V100.359ZM92.2188 100.359C92.2188 100.974 92.3698 101.562 92.6719 102.125C92.974 102.688 93.3958 103.182 93.9375 103.609C94.4792 104.036 95.0938 104.359 95.7812 104.578L95.1562 105.562C94.3854 105.302 93.7005 104.914 93.1016 104.398C92.5026 103.883 92.0365 103.279 91.7031 102.586C91.3698 101.893 91.2031 101.151 91.2031 100.359V98.9062H92.2188V100.359ZM95.4219 99.5469H87.7344V98.5469H95.4219V99.5469ZM98.6875 107.578H97.4688V97.3906H98.6875V107.578ZM99.125 110.969H89.7188V109.938H99.125V110.969ZM90.9375 110.391H89.7188V106.609H90.9375V110.391ZM115.875 101.719H112.109V100.703H115.875V101.719ZM108.891 98.0312C109.578 98.0208 110.193 98.151 110.734 98.4219C111.276 98.6927 111.703 99.0729 112.016 99.5625C112.328 100.052 112.484 100.609 112.484 101.234C112.484 101.859 112.328 102.417 112.016 102.906C111.703 103.396 111.276 103.776 110.734 104.047C110.193 104.318 109.578 104.453 108.891 104.453C108.193 104.453 107.57 104.318 107.023 104.047C106.477 103.776 106.049 103.396 105.742 102.906C105.435 102.417 105.281 101.859 105.281 101.234C105.281 100.609 105.435 100.052 105.742 99.5625C106.049 99.0729 106.479 98.6927 107.031 98.4219C107.583 98.151 108.203 98.0208 108.891 98.0312ZM108.891 99.0781C108.422 99.0677 108.003 99.1536 107.633 99.3359C107.263 99.5182 106.974 99.7734 106.766 100.102C106.557 100.43 106.453 100.807 106.453 101.234C106.453 101.651 106.557 102.026 106.766 102.359C106.974 102.693 107.263 102.953 107.633 103.141C108.003 103.328 108.422 103.422 108.891 103.422C109.359 103.422 109.776 103.328 110.141 103.141C110.505 102.953 110.789 102.693 110.992 102.359C111.195 102.026 111.297 101.651 111.297 101.234C111.297 100.807 111.195 100.43 110.992 100.102C110.789 99.7734 110.505 99.5182 110.141 99.3359C109.776 99.1536 109.359 99.0677 108.891 99.0781ZM116.578 104.828H115.344V97.375H116.578V104.828ZM108.859 107.297H115.344V105.531H116.578V111.078H107.625V105.531H108.859V107.297ZM115.344 110.078V108.281H108.859V110.078H115.344ZM131.609 109.547H118.891V108.516H131.609V109.547ZM125.812 108.969H124.609V105.531H125.812V108.969ZM130 102.609H121.703V105.422H120.484V101.609H128.797V99.4219H120.453V98.4062H130V102.609ZM130.328 105.891H120.484V104.875H130.328V105.891ZM143.938 105.078H134.344V104.062H143.938V105.078ZM145.438 109.375H132.719V108.344H145.438V109.375ZM143.797 99.6875H135.562V104.516H134.344V98.6719H143.797V99.6875Z" fill="#777777"/>
</svg>
